SplineFontDB: 3.2
FontName: NotoSerif-Bold
FullName: Noto Serif Bold
FamilyName: Noto Serif
Weight: Bold
Copyright: Copyright 2022 The Noto Project Authors https:github.comnotofontslatin-greek-cyrillic
Version: 2.13
ItalicAngle: 0
UnderlinePosition: -256
UnderlineWidth: 102.4
Ascent: 1638
Descent: 410
InvalidEm: 0
sfntRevision: 0x00020354
LayerCount: 2
Layer: 0 0 "Back" 1
Layer: 1 0 "Fore" 0
XUID: [1021 282 2012869056 12155519]
StyleMap: 0x0040
FSType: 0
OS2Version: 4
OS2_WeightWidthSlopeOnly: 1
OS2_UseTypoMetrics: 1
CreationTime: 1633362496
ModificationTime: 1719097561
PfmFamily: 17
TTFWeight: 700
TTFWidth: 5
LineGap: 0
VLineGap: 0
Panose: 2 2 8 2 6 5 5 2 2 4
OS2TypoAscent: 2189
OS2TypoAOffset: 0
OS2TypoDescent: -600
OS2TypoDOffset: 0
OS2TypoLinegap: 0
OS2WinAscent: 2189
OS2WinAOffset: 0
OS2WinDescent: 797
OS2WinDOffset: 0
HheadAscent: 2189
HheadAOffset: 0
HheadDescent: -600
HheadDOffset: 0
OS2SubXSize: 1331
OS2SubYSize: 1229
OS2SubXOff: 0
OS2SubYOff: 154
OS2SupXSize: 1331
OS2SupYSize: 1229
OS2SupXOff: 0
OS2SupYOff: 717
OS2StrikeYSize: 102
OS2StrikeYPos: 659
OS2CapHeight: 1462
OS2XHeight: 1098
OS2Vendor: 'GOOG'
OS2CodePages: 0000019f.00000000
OS2UnicodeRanges: e00002ff.4000201f.08000029.00100000
Lookup: 1 0 0 "'aalt' Access All Alternates lookup 0" { "'aalt' Access All Alternates lookup 0 subtable"  } ['aalt' ('DFLT' <'dflt' > 'cyrl' <'MKD ' 'SRB ' 'dflt' > 'grek' <'APPH' 'IPPH' 'dflt' > 'latn' <'APPH' 'CAT ' 'IPPH' 'MAH ' 'MOL ' 'NAV ' 'ROM ' 'dflt' > ) ]
Lookup: 3 0 0 "'aalt' Access All Alternates lookup 1" { "'aalt' Access All Alternates lookup 1 subtable"  } ['aalt' ('DFLT' <'dflt' > 'cyrl' <'MKD ' 'SRB ' 'dflt' > 'grek' <'APPH' 'IPPH' 'dflt' > 'latn' <'APPH' 'CAT ' 'IPPH' 'MAH ' 'MOL ' 'NAV ' 'ROM ' 'dflt' > ) ]

StartChar: .notdef
Encoding: 1114112 -1 0
Width: 1191
GlyphClass: 1
Flags: HW
LayerCount: 2
Fore
SplineSet
174 0 m 1
 174 1462 l 1
 1016 1462 l 1
 1016 0 l 1
 174 0 l 1
279 104 m 1
 911 104 l 1
 911 1358 l 1
 279 1358 l 1
 279 104 l 1
EndSplineSet
EndChar

StartChar: exclam
Encoding: 33 33 4
Width: 782
GlyphClass: 1
Flags: HW
LayerCount: 2
Fore
SplineSet
322 467 m 1
 213 1462 l 1
 569 1462 l 1
 463 467 l 1
 322 467 l 1
393 -16 m 0
 299 -16 225 24 225 147 c 0
 225 272 299 311 393 311 c 0
 483 311 561 272 561 147 c 0
 561 24 483 -16 393 -16 c 0
EndSplineSet
Substitution2: "'smcp' Lowercase to Small Capitals lookup 38 subtable" exclam.sc
Substitution2: "'c2sc' Capitals to Small Capitals lookup 37 subtable" exclam.sc
Substitution2: "'aalt' Access All Alternates lookup 0 subtable" exclam.sc
EndChar

StartChar: quotedbl
Encoding: 34 34 5
Width: 1040
GlyphClass: 1
Flags: HW
LayerCount: 2
Fore
SplineSet
229 899 m 1
 137 1462 l 1
 457 1462 l 1
 365 899 l 1
 229 899 l 1
676 899 m 1
 584 1462 l 1
 903 1462 l 1
 811 899 l 1
 676 899 l 1
EndSplineSet
EndChar

StartChar: numbersign
Encoding: 35 35 6
Width: 1144
GlyphClass: 1
Flags: HW
LayerCount: 2
Fore
SplineSet
184 0 m 1
 262 410 l 1
 57 410 l 1
 57 551 l 1
 289 551 l 1
 360 922 l 1
 123 922 l 1
 123 1065 l 1
 387 1065 l 1
 459 1462 l 1
 606 1462 l 1
 532 1065 l 1
 745 1065 l 1
 821 1462 l 1
 967 1462 l 1
 891 1065 l 1
 1087 1065 l 1
 1087 922 l 1
 864 922 l 1
 795 551 l 1
 1022 551 l 1
 1022 410 l 1
 766 410 l 1
 690 0 l 1
 545 0 l 1
 621 410 l 1
 408 410 l 1
 330 0 l 1
 184 0 l 1
434 551 m 1
 649 551 l 1
 721 922 l 1
 506 922 l 1
 434 551 l 1
EndSplineSet
EndChar

StartChar: dollar
Encoding: 36 36 7
Width: 1144
GlyphClass: 1
Flags: HW
LayerCount: 2
Fore
SplineSet
524 88 m 1
 211 96 100 246 100 375 c 0
 100 494 195 539 293 539 c 1
 293 334 385 220 524 197 c 1
 524 639 l 1
 225 762 145 862 145 1042 c 0
 145 1239 301 1374 524 1399 c 1
 524 1556 l 1
 639 1556 l 1
 639 1401 l 1
 881 1393 989 1305 989 1196 c 0
 989 1110 916 1047 764 1047 c 1
 764 1129 729 1241 639 1280 c 1
 639 881 l 1
 803 799 1042 751 1042 481 c 0
 1042 272 893 121 639 92 c 1
 639 -162 l 1
 524 -162 l 1
 524 88 l 1
524 1290 m 1
 444 1276 385 1220 385 1128 c 0
 385 1054 413 997 524 936 c 1
 524 1290 l 1
639 201 m 1
 741 224 799 297 799 389 c 0
 799 475 745 533 639 588 c 1
 639 201 l 1
EndSplineSet
EndChar

StartChar: percent
Encoding: 37 37 8
Width: 1855
GlyphClass: 1
Flags: HW
LayerCount: 2
Fore
SplineSet
438 573 m 0
 178 573 70 756 70 1030 c 0
 70 1304 178 1483 440 1483 c 0
 686 1483 807 1304 807 1030 c 0
 807 756 686 573 438 573 c 0
492 0 m 1
 1198 1462 l 1
 1356 1462 l 1
 651 0 l 1
 492 0 l 1
438 676 m 0
 540 676 573 807 573 1030 c 0
 573 1249 540 1378 440 1378 c 0
 338 1378 301 1249 301 1030 c 0
 301 807 338 676 438 676 c 0
1417 -20 m 0
 1157 -20 1049 162 1049 436 c 0
 1049 710 1157 889 1419 889 c 0
 1665 889 1786 710 1786 436 c 0
 1786 162 1665 -20 1417 -20 c 0
1417 82 m 0
 1519 82 1552 213 1552 436 c 0
 1552 655 1519 784 1419 784 c 0
 1317 784 1280 655 1280 436 c 0
 1280 213 1317 82 1417 82 c 0
EndSplineSet
EndChar

StartChar: ampersand
Encoding: 38 38 9
Width: 1640
GlyphClass: 1
Flags: HW
LayerCount: 2
Fore
SplineSet
616 -20 m 0
 280 -20 96 142 96 416 c 0
 96 656 258 745 446 819 c 1
 337 948 291 1045 291 1182 c 0
 291 1362 430 1483 702 1483 c 0
 964 1483 1094 1350 1094 1192 c 0
 1094 1026 995 932 782 834 c 1
 1087 514 l 1
 1103 608 1108 704 1108 782 c 2
 1108 872 l 1
 1556 872 l 1
 1556 764 l 1
 1524 764 l 2
 1432 764 1348 750 1313 625 c 0
 1293 549 1264 461 1223 373 c 1
 1427 160 l 2
 1466 119 1521 109 1595 109 c 2
 1614 109 l 1
 1614 0 l 1
 1208 0 l 1
 1067 150 l 1
 965 50 821 -20 616 -20 c 0
696 926 m 1
 811 992 846 1065 846 1190 c 0
 846 1286 817 1360 702 1360 c 0
 610 1360 569 1286 569 1188 c 0
 569 1094 610 1022 696 926 c 1
668 117 m 0
 813 117 911 168 977 248 c 1
 539 715 l 1
 424 633 397 531 397 406 c 0
 397 244 504 117 668 117 c 0
EndSplineSet
Substitution2: "'smcp' Lowercase to Small Capitals lookup 38 subtable" ampersand.sc
Substitution2: "'c2sc' Capitals to Small Capitals lookup 37 subtable" ampersand.sc
Substitution2: "'aalt' Access All Alternates lookup 0 subtable" ampersand.sc
EndChar

StartChar: quotesingle
Encoding: 39 39 10
Width: 593
GlyphClass: 1
Flags: HW
LayerCount: 2
Fore
SplineSet
229 899 m 1
 137 1462 l 1
 457 1462 l 1
 365 899 l 1
 229 899 l 1
EndSplineSet
EndChar

StartChar: parenleft
Encoding: 40 40 11
Width: 819
GlyphClass: 1
Flags: HW
LayerCount: 2
Fore
SplineSet
754 -285 m 1
 297 -103 117 209 117 651 c 0
 117 1091 297 1399 754 1581 c 1
 754 1452 l 1
 500 1284 446 975 446 651 c 0
 446 325 500 14 754 -154 c 1
 754 -285 l 1
EndSplineSet
Substitution2: "'smcp' Lowercase to Small Capitals lookup 38 subtable" parenleft.sc
Substitution2: "'c2sc' Capitals to Small Capitals lookup 37 subtable" parenleft.sc
Substitution2: "'sups' Superscript lookup 24 subtable" uni207D
Substitution2: "'sinf' Scientific Inferiors lookup 23 subtable" uni208D
Substitution2: "'subs' Subscript lookup 22 subtable" uni208D
AlternateSubs2: "'aalt' Access All Alternates lookup 1 subtable" uni208D uni207D parenleft.sc
EndChar

StartChar: parenright
Encoding: 41 41 12
Width: 819
GlyphClass: 1
Flags: HW
LayerCount: 2
Fore
SplineSet
66 -154 m 1
 320 14 373 325 373 651 c 0
 373 975 320 1284 66 1452 c 1
 66 1581 l 1
 523 1399 702 1091 702 651 c 0
 702 209 523 -103 66 -285 c 1
 66 -154 l 1
EndSplineSet
Substitution2: "'smcp' Lowercase to Small Capitals lookup 38 subtable" parenright.sc
Substitution2: "'c2sc' Capitals to Small Capitals lookup 37 subtable" parenright.sc
Substitution2: "'sups' Superscript lookup 24 subtable" uni207E
Substitution2: "'sinf' Scientific Inferiors lookup 23 subtable" uni208E
Substitution2: "'subs' Subscript lookup 22 subtable" uni208E
AlternateSubs2: "'aalt' Access All Alternates lookup 1 subtable" uni208E uni207E parenright.sc
EndChar

StartChar: asterisk
Encoding: 42 42 13
Width: 1028
GlyphClass: 1
Flags: HW
LayerCount: 2
Fore
SplineSet
401 752 m 1
 467 1083 l 1
 164 868 l 1
 72 1071 l 1
 391 1153 l 1
 72 1237 l 1
 164 1440 l 1
 467 1223 l 1
 401 1556 l 1
 631 1556 l 1
 557 1225 l 1
 864 1440 l 1
 956 1235 l 1
 637 1153 l 1
 956 1073 l 1
 864 868 l 1
 557 1081 l 1
 631 752 l 1
 401 752 l 1
EndSplineSet
EndChar

StartChar: plus
Encoding: 43 43 14
Width: 1144
GlyphClass: 1
Flags: HW
LayerCount: 2
Fore
SplineSet
498 293 m 1
 498 659 l 1
 133 659 l 1
 133 805 l 1
 498 805 l 1
 498 1171 l 1
 645 1171 l 1
 645 805 l 1
 1012 805 l 1
 1012 659 l 1
 645 659 l 1
 645 293 l 1
 498 293 l 1
EndSplineSet
Substitution2: "'sups' Superscript lookup 24 subtable" uni207A
Substitution2: "'sinf' Scientific Inferiors lookup 23 subtable" uni208A
Substitution2: "'subs' Subscript lookup 22 subtable" uni208A
AlternateSubs2: "'aalt' Access All Alternates lookup 1 subtable" uni208A uni207A
EndChar

StartChar: comma
Encoding: 44 44 15
Width: 602
GlyphClass: 1
Flags: HW
LayerCount: 2
Fore
SplineSet
92 -209 m 1
 211 -166 272 -129 272 -49 c 0
 272 29 123 6 123 170 c 0
 123 262 186 311 270 311 c 0
 385 311 459 225 459 86 c 0
 459 -88 358 -243 92 -315 c 1
 92 -209 l 1
EndSplineSet
EndChar

StartChar: hyphen
Encoding: 45 45 16
Width: 634
GlyphClass: 1
Flags: HW
LayerCount: 2
Fore
SplineSet
51 451 m 1
 51 666 l 1
 584 666 l 1
 584 451 l 1
 51 451 l 1
EndSplineSet
EndChar

StartChar: period
Encoding: 46 46 17
Width: 602
GlyphClass: 1
Flags: HW
LayerCount: 2
Fore
SplineSet
301 -16 m 0
 207 -16 133 24 133 147 c 0
 133 272 207 311 301 311 c 0
 391 311 469 272 469 147 c 0
 469 24 391 -16 301 -16 c 0
EndSplineSet
EndChar

StartChar: slash
Encoding: 47 47 18
Width: 589
GlyphClass: 1
Flags: HW
LayerCount: 2
Fore
SplineSet
0 -248 m 1
 446 1556 l 1
 590 1556 l 1
 147 -250 l 1
 0 -248 l 1
EndSplineSet
Substitution2: "'frac' Diagonal Fractions lookup 27 subtable" fraction
Substitution2: "'aalt' Access All Alternates lookup 0 subtable" fraction
EndChar

StartChar: zero
Encoding: 48 48 19
Width: 1144
GlyphClass: 1
Flags: HW
LayerCount: 2
Fore
SplineSet
573 -20 m 0
 198 -20 70 280 70 735 c 0
 70 1188 198 1483 575 1483 c 0
 929 1483 1075 1188 1075 733 c 0
 1075 280 929 -20 573 -20 c 0
573 113 m 0
 725 113 758 342 758 733 c 0
 758 1124 725 1350 575 1350 c 0
 421 1350 387 1124 387 733 c 0
 387 342 421 113 573 113 c 0
EndSplineSet
Substitution2: "'zero' Slashed Zero lookup 42 subtable" zero.slash
Substitution2: "'case' Case-Sensitive Forms lookup 39 subtable" zero.lf
Substitution2: "'onum' Oldstyle Figures lookup 36 subtable" zero.tosf
Substitution2: "'pnum' Proportional Numbers lookup 34 subtable" zero.lf
Substitution2: "'frac' Diagonal Fractions lookup 28 subtable" zero.numr
Substitution2: "'dnom' Denominators lookup 26 subtable" zero.dnom
Substitution2: "'numr' Numerators lookup 25 subtable" zero.numr
Substitution2: "'sups' Superscript lookup 24 subtable" uni2070
Substitution2: "'sinf' Scientific Inferiors lookup 23 subtable" uni2080
Substitution2: "'subs' Subscript lookup 22 subtable" uni2080
AlternateSubs2: "'aalt' Access All Alternates lookup 1 subtable" uni2070 zero.lf zero.tosf zero.dnom zero.numr uni2080
EndChar

StartChar: one
Encoding: 49 49 20
Width: 1144
GlyphClass: 1
Flags: HW
LayerCount: 2
Fore
SplineSet
199 0 m 1
 199 109 l 1
 367 109 l 2
 437 109 469 140 469 242 c 2
 469 1268 l 1
 365 1141 287 1055 205 1055 c 0
 139 1055 86 1114 86 1206 c 1
 168 1226 266 1264 401 1364 c 2
 545 1470 l 1
 774 1470 l 1
 774 242 l 2
 774 156 793 109 879 109 c 2
 1044 109 l 1
 1044 0 l 1
 199 0 l 1
EndSplineSet
Substitution2: "'case' Case-Sensitive Forms lookup 39 subtable" one.lf
Substitution2: "'onum' Oldstyle Figures lookup 36 subtable" one.tosf
Substitution2: "'pnum' Proportional Numbers lookup 34 subtable" one.lf
Substitution2: "'frac' Diagonal Fractions lookup 28 subtable" one.numr
Substitution2: "'dnom' Denominators lookup 26 subtable" one.dnom
Substitution2: "'numr' Numerators lookup 25 subtable" one.numr
Substitution2: "'sups' Superscript lookup 24 subtable" uni00B9
Substitution2: "'sinf' Scientific Inferiors lookup 23 subtable" uni2081
Substitution2: "'subs' Subscript lookup 22 subtable" uni2081
AlternateSubs2: "'aalt' Access All Alternates lookup 1 subtable" uni00B9 one.lf one.tosf one.dnom one.numr uni2081
EndChar

StartChar: two
Encoding: 50 50 21
Width: 1144
GlyphClass: 1
Flags: HW
LayerCount: 2
Fore
SplineSet
72 0 m 1
 72 211 l 1
 375 520 l 2
 627 778 690 922 690 1133 c 0
 690 1289 628 1358 530 1358 c 0
 391 1358 342 1237 342 1004 c 1
 186 1004 80 1059 80 1206 c 0
 80 1353 231 1483 530 1483 c 0
 835 1483 999 1354 999 1143 c 0
 999 953 881 809 471 420 c 2
 266 225 l 1
 743 225 l 2
 827 225 888 277 913 367 c 2
 930 430 l 1
 1051 430 l 1
 1040 0 l 1
 72 0 l 1
EndSplineSet
Substitution2: "'case' Case-Sensitive Forms lookup 39 subtable" two.lf
Substitution2: "'onum' Oldstyle Figures lookup 36 subtable" two.tosf
Substitution2: "'pnum' Proportional Numbers lookup 34 subtable" two.lf
Substitution2: "'frac' Diagonal Fractions lookup 28 subtable" two.numr
Substitution2: "'dnom' Denominators lookup 26 subtable" two.dnom
Substitution2: "'numr' Numerators lookup 25 subtable" two.numr
Substitution2: "'sups' Superscript lookup 24 subtable" uni00B2
Substitution2: "'sinf' Scientific Inferiors lookup 23 subtable" uni2082
Substitution2: "'subs' Subscript lookup 22 subtable" uni2082
AlternateSubs2: "'aalt' Access All Alternates lookup 1 subtable" uni00B2 two.lf two.tosf two.dnom two.numr uni2082
EndChar

StartChar: three
Encoding: 51 51 22
Width: 1144
GlyphClass: 1
Flags: HW
LayerCount: 2
Fore
SplineSet
498 -20 m 0
 189 -20 57 96 57 225 c 0
 57 329 137 385 231 385 c 1
 231 211 333 123 483 123 c 0
 616 123 735 188 735 424 c 0
 735 580 623 692 418 692 c 2
 291 692 l 1
 291 819 l 1
 426 819 l 2
 602 819 686 940 686 1120 c 0
 686 1267 627 1358 516 1358 c 0
 369 1358 340 1200 340 1040 c 1
 170 1040 74 1098 74 1223 c 0
 74 1368 227 1483 526 1483 c 0
 817 1483 999 1362 999 1149 c 0
 999 965 864 839 686 780 c 1
 850 749 1051 658 1051 422 c 0
 1051 88 781 -20 498 -20 c 0
EndSplineSet
Substitution2: "'case' Case-Sensitive Forms lookup 39 subtable" three.lf
Substitution2: "'onum' Oldstyle Figures lookup 36 subtable" three.tosf
Substitution2: "'pnum' Proportional Numbers lookup 34 subtable" three.lf
Substitution2: "'frac' Diagonal Fractions lookup 28 subtable" three.numr
Substitution2: "'dnom' Denominators lookup 26 subtable" three.dnom
Substitution2: "'numr' Numerators lookup 25 subtable" three.numr
Substitution2: "'sups' Superscript lookup 24 subtable" uni00B3
Substitution2: "'sinf' Scientific Inferiors lookup 23 subtable" uni2083
Substitution2: "'subs' Subscript lookup 22 subtable" uni2083
AlternateSubs2: "'aalt' Access All Alternates lookup 1 subtable" uni00B3 three.lf three.tosf three.dnom three.numr uni2083
EndChar

StartChar: four
Encoding: 52 52 23
Width: 1144
GlyphClass: 1
Flags: HW
LayerCount: 2
Fore
SplineSet
369 0 m 1
 369 109 l 1
 426 109 l 2
 518 109 594 127 594 256 c 2
 594 381 l 1
 27 381 l 1
 27 506 l 1
 608 1462 l 1
 893 1462 l 1
 893 516 l 1
 1106 516 l 1
 1106 381 l 1
 893 381 l 1
 893 256 l 2
 893 127 969 109 1061 109 c 2
 1087 109 l 1
 1087 0 l 1
 369 0 l 1
170 516 m 1
 594 516 l 1
 594 874 l 2
 594 993 598 1141 608 1268 c 1
 581 1205 477 1024 446 973 c 2
 170 516 l 1
EndSplineSet
Substitution2: "'case' Case-Sensitive Forms lookup 39 subtable" four.lf
Substitution2: "'onum' Oldstyle Figures lookup 36 subtable" four.tosf
Substitution2: "'pnum' Proportional Numbers lookup 34 subtable" four.lf
Substitution2: "'frac' Diagonal Fractions lookup 28 subtable" four.numr
Substitution2: "'dnom' Denominators lookup 26 subtable" four.dnom
Substitution2: "'numr' Numerators lookup 25 subtable" four.numr
Substitution2: "'sups' Superscript lookup 24 subtable" uni2074
Substitution2: "'sinf' Scientific Inferiors lookup 23 subtable" uni2084
Substitution2: "'subs' Subscript lookup 22 subtable" uni2084
AlternateSubs2: "'aalt' Access All Alternates lookup 1 subtable" uni2074 four.lf four.tosf four.dnom four.numr uni2084
EndChar

StartChar: five
Encoding: 53 53 24
Width: 1144
GlyphClass: 1
Flags: HW
LayerCount: 2
Fore
SplineSet
502 -20 m 0
 195 -20 82 100 82 227 c 0
 82 321 148 369 246 369 c 1
 246 252 303 123 471 123 c 0
 606 123 723 199 723 451 c 0
 723 656 620 754 444 754 c 0
 340 754 278 735 217 717 c 1
 123 754 l 1
 188 1462 l 1
 963 1462 l 1
 973 1090 l 1
 856 1090 l 1
 840 1159 l 2
 828 1208 811 1237 745 1237 c 2
 319 1237 l 1
 287 858 l 1
 330 874 428 889 512 889 c 0
 829 889 1036 744 1036 451 c 0
 1036 97 750 -20 502 -20 c 0
EndSplineSet
Substitution2: "'case' Case-Sensitive Forms lookup 39 subtable" five.lf
Substitution2: "'onum' Oldstyle Figures lookup 36 subtable" five.tosf
Substitution2: "'pnum' Proportional Numbers lookup 34 subtable" five.lf
Substitution2: "'frac' Diagonal Fractions lookup 28 subtable" five.numr
Substitution2: "'dnom' Denominators lookup 26 subtable" five.dnom
Substitution2: "'numr' Numerators lookup 25 subtable" five.numr
Substitution2: "'sups' Superscript lookup 24 subtable" uni2075
Substitution2: "'sinf' Scientific Inferiors lookup 23 subtable" uni2085
Substitution2: "'subs' Subscript lookup 22 subtable" uni2085
AlternateSubs2: "'aalt' Access All Alternates lookup 1 subtable" uni2075 five.lf five.tosf five.dnom five.numr uni2085
EndChar

StartChar: six
Encoding: 54 54 25
Width: 1144
GlyphClass: 1
Flags: HW
LayerCount: 2
Fore
SplineSet
600 -20 m 0
 297 -20 92 199 92 676 c 0
 92 1127 281 1483 676 1483 c 0
 940 1483 1038 1374 1038 1257 c 0
 1038 1173 973 1098 793 1098 c 1
 793 1221 766 1362 657 1362 c 0
 495 1362 397 1167 381 821 c 1
 436 858 525 897 664 897 c 0
 912 897 1073 739 1073 473 c 0
 1073 180 911 -20 600 -20 c 0
606 115 m 0
 710 115 776 217 776 453 c 0
 776 674 705 772 588 772 c 0
 514 772 416 721 381 674 c 1
 383 281 481 115 606 115 c 0
EndSplineSet
Substitution2: "'case' Case-Sensitive Forms lookup 39 subtable" six.lf
Substitution2: "'onum' Oldstyle Figures lookup 36 subtable" six.tosf
Substitution2: "'pnum' Proportional Numbers lookup 34 subtable" six.lf
Substitution2: "'frac' Diagonal Fractions lookup 28 subtable" six.numr
Substitution2: "'dnom' Denominators lookup 26 subtable" six.dnom
Substitution2: "'numr' Numerators lookup 25 subtable" six.numr
Substitution2: "'sups' Superscript lookup 24 subtable" uni2076
Substitution2: "'sinf' Scientific Inferiors lookup 23 subtable" uni2086
Substitution2: "'subs' Subscript lookup 22 subtable" uni2086
AlternateSubs2: "'aalt' Access All Alternates lookup 1 subtable" uni2076 six.lf six.tosf six.dnom six.numr uni2086
EndChar

StartChar: seven
Encoding: 55 55 26
Width: 1144
GlyphClass: 1
Flags: HW
LayerCount: 2
Fore
SplineSet
256 0 m 1
 801 1239 l 1
 344 1239 l 2
 270 1239 233 1203 225 1135 c 2
 213 1032 l 1
 90 1032 l 1
 100 1462 l 1
 1077 1462 l 1
 1077 1362 l 1
 512 0 l 1
 256 0 l 1
EndSplineSet
Substitution2: "'case' Case-Sensitive Forms lookup 39 subtable" seven.lf
Substitution2: "'onum' Oldstyle Figures lookup 36 subtable" seven.tosf
Substitution2: "'pnum' Proportional Numbers lookup 34 subtable" seven.lf
Substitution2: "'frac' Diagonal Fractions lookup 28 subtable" seven.numr
Substitution2: "'dnom' Denominators lookup 26 subtable" seven.dnom
Substitution2: "'numr' Numerators lookup 25 subtable" seven.numr
Substitution2: "'sups' Superscript lookup 24 subtable" uni2077
Substitution2: "'sinf' Scientific Inferiors lookup 23 subtable" uni2087
Substitution2: "'subs' Subscript lookup 22 subtable" uni2087
AlternateSubs2: "'aalt' Access All Alternates lookup 1 subtable" uni2077 seven.lf seven.tosf seven.dnom seven.numr uni2087
EndChar

StartChar: eight
Encoding: 56 56 27
Width: 1144
GlyphClass: 1
Flags: HW
LayerCount: 2
Fore
SplineSet
559 -20 m 0
 217 -20 61 156 61 373 c 0
 61 549 182 649 362 739 c 1
 198 833 109 950 109 1110 c 0
 109 1300 232 1483 584 1483 c 0
 873 1483 1020 1331 1020 1124 c 0
 1020 960 913 881 743 793 c 1
 989 674 1083 553 1083 387 c 0
 1083 129 889 -20 559 -20 c 0
618 862 m 1
 718 919 762 993 762 1128 c 0
 762 1245 696 1364 571 1364 c 0
 458 1364 397 1266 397 1135 c 0
 397 994 475 928 618 862 c 1
569 96 m 0
 708 96 799 202 799 352 c 0
 799 485 711 561 500 657 c 1
 408 598 338 508 338 365 c 0
 338 205 430 96 569 96 c 0
EndSplineSet
Substitution2: "'case' Case-Sensitive Forms lookup 39 subtable" eight.lf
Substitution2: "'onum' Oldstyle Figures lookup 36 subtable" eight.tosf
Substitution2: "'pnum' Proportional Numbers lookup 34 subtable" eight.lf
Substitution2: "'frac' Diagonal Fractions lookup 28 subtable" eight.numr
Substitution2: "'dnom' Denominators lookup 26 subtable" eight.dnom
Substitution2: "'numr' Numerators lookup 25 subtable" eight.numr
Substitution2: "'sups' Superscript lookup 24 subtable" uni2078
Substitution2: "'sinf' Scientific Inferiors lookup 23 subtable" uni2088
Substitution2: "'subs' Subscript lookup 22 subtable" uni2088
AlternateSubs2: "'aalt' Access All Alternates lookup 1 subtable" uni2078 eight.lf eight.tosf eight.dnom eight.numr uni2088
EndChar

StartChar: nine
Encoding: 57 57 28
Width: 1144
GlyphClass: 1
Flags: HW
LayerCount: 2
Fore
SplineSet
465 -20 m 0
 217 -20 129 94 129 211 c 0
 129 270 159 314 229 328 c 1
 268 205 338 109 475 109 c 0
 655 109 750 309 764 702 c 1
 703 622 610 563 473 563 c 0
 237 563 72 711 72 987 c 0
 72 1282 248 1483 541 1483 c 0
 838 1483 1053 1276 1053 795 c 0
 1053 344 885 -20 465 -20 c 0
561 711 m 0
 655 711 725 766 764 848 c 1
 760 1196 678 1346 553 1346 c 0
 436 1346 369 1228 369 999 c 0
 369 811 434 711 561 711 c 0
EndSplineSet
Substitution2: "'case' Case-Sensitive Forms lookup 39 subtable" nine.lf
Substitution2: "'onum' Oldstyle Figures lookup 36 subtable" nine.tosf
Substitution2: "'pnum' Proportional Numbers lookup 34 subtable" nine.lf
Substitution2: "'frac' Diagonal Fractions lookup 28 subtable" nine.numr
Substitution2: "'dnom' Denominators lookup 26 subtable" nine.dnom
Substitution2: "'numr' Numerators lookup 25 subtable" nine.numr
Substitution2: "'sups' Superscript lookup 24 subtable" uni2079
Substitution2: "'sinf' Scientific Inferiors lookup 23 subtable" uni2089
Substitution2: "'subs' Subscript lookup 22 subtable" uni2089
AlternateSubs2: "'aalt' Access All Alternates lookup 1 subtable" uni2079 nine.lf nine.tosf nine.dnom nine.numr uni2089
EndChar

StartChar: colon
Encoding: 58 58 29
Width: 622
GlyphClass: 1
Flags: HW
LayerCount: 2
Fore
SplineSet
311 788 m 0
 217 788 143 829 143 952 c 0
 143 1077 217 1116 311 1116 c 0
 401 1116 479 1077 479 952 c 0
 479 829 401 788 311 788 c 0
311 -16 m 0
 217 -16 143 24 143 147 c 0
 143 272 217 311 311 311 c 0
 401 311 479 272 479 147 c 0
 479 24 401 -16 311 -16 c 0
EndSplineSet
EndChar

StartChar: semicolon
Encoding: 59 59 30
Width: 622
GlyphClass: 1
Flags: HW
LayerCount: 2
Fore
SplineSet
311 788 m 0
 217 788 143 829 143 952 c 0
 143 1077 217 1116 311 1116 c 0
 401 1116 479 1077 479 952 c 0
 479 829 401 788 311 788 c 0
113 -209 m 1
 232 -166 293 -129 293 -49 c 0
 293 29 143 6 143 170 c 0
 143 262 207 311 291 311 c 0
 406 311 479 225 479 86 c 0
 479 -88 379 -243 113 -315 c 1
 113 -209 l 1
EndSplineSet
EndChar

StartChar: less
Encoding: 60 60 31
Width: 1144
GlyphClass: 1
Flags: HW
LayerCount: 2
Fore
SplineSet
1012 213 m 1
 133 690 l 1
 133 774 l 1
 1012 1253 l 1
 1012 1092 l 1
 352 731 l 1
 1012 375 l 1
 1012 213 l 1
EndSplineSet
EndChar

StartChar: equal
Encoding: 61 61 32
Width: 1144
GlyphClass: 1
Flags: HW
LayerCount: 2
Fore
SplineSet
129 858 m 1
 129 1001 l 1
 1016 1001 l 1
 1016 858 l 1
 129 858 l 1
129 461 m 1
 129 604 l 1
 1016 604 l 1
 1016 461 l 1
 129 461 l 1
EndSplineSet
Substitution2: "'sups' Superscript lookup 24 subtable" uni207C
Substitution2: "'sinf' Scientific Inferiors lookup 23 subtable" uni208C
Substitution2: "'subs' Subscript lookup 22 subtable" uni208C
AlternateSubs2: "'aalt' Access All Alternates lookup 1 subtable" uni208C uni207C
EndChar

StartChar: greater
Encoding: 62 62 33
Width: 1144
GlyphClass: 1
Flags: HW
LayerCount: 2
Fore
SplineSet
133 213 m 1
 133 375 l 1
 793 731 l 1
 133 1092 l 1
 133 1253 l 1
 1012 774 l 1
 1012 690 l 1
 133 213 l 1
EndSplineSet
EndChar

StartChar: question
Encoding: 63 63 34
Width: 1126
GlyphClass: 1
Flags: HW
LayerCount: 2
Fore
SplineSet
399 719 m 1
 632 813 688 977 688 1139 c 0
 688 1270 641 1360 528 1360 c 0
 405 1360 365 1241 365 1102 c 1
 197 1102 76 1149 76 1245 c 0
 76 1378 211 1483 512 1483 c 0
 801 1483 1014 1344 1014 1106 c 0
 1014 887 878 766 606 653 c 1
 580 467 l 1
 426 467 l 1
 399 719 l 1
500 -16 m 0
 406 -16 332 24 332 147 c 0
 332 272 406 311 500 311 c 0
 590 311 668 272 668 147 c 0
 668 24 590 -16 500 -16 c 0
EndSplineSet
Substitution2: "'smcp' Lowercase to Small Capitals lookup 38 subtable" question.sc
Substitution2: "'c2sc' Capitals to Small Capitals lookup 37 subtable" question.sc
Substitution2: "'aalt' Access All Alternates lookup 0 subtable" question.sc
EndChar

StartChar: at
Encoding: 64 64 35
Width: 1886
GlyphClass: 1
Flags: HW
LayerCount: 2
Fore
SplineSet
954 -291 m 0
 487 -291 104 -30 104 500 c 0
 104 1049 518 1462 1085 1462 c 0
 1558 1462 1806 1174 1806 803 c 0
 1806 395 1589 158 1384 158 c 0
 1263 158 1178 213 1133 350 c 1
 1120 350 l 1
 1063 244 981 158 838 158 c 0
 666 158 516 268 516 508 c 0
 516 727 670 1083 1067 1083 c 0
 1161 1083 1229 1055 1272 1022 c 1
 1358 1065 l 1
 1407 1065 l 1
 1321 553 l 2
 1315 520 1307 447 1307 414 c 0
 1307 301 1360 276 1405 276 c 0
 1514 276 1640 459 1640 795 c 0
 1640 1170 1401 1358 1071 1358 c 0
 682 1358 305 1026 305 487 c 0
 305 4 614 -186 983 -186 c 0
 1204 -186 1409 -100 1536 -14 c 1
 1585 -92 l 1
 1442 -201 1214 -291 954 -291 c 0
899 276 m 0
 1016 276 1062 399 1085 518 c 2
 1167 936 l 1
 1151 973 1102 993 1059 993 c 0
 852 993 768 651 768 487 c 0
 768 352 821 276 899 276 c 0
EndSplineSet
EndChar

StartChar: A
Encoding: 65 65 36
Width: 1542
GlyphClass: 2
Flags: HW
AnchorPoint: "Anchor-3" 774 731 basechar 0
AnchorPoint: "Anchor-2" 1235 1462 basechar 0
AnchorPoint: "Anchor-1" 1214 0 basechar 0
AnchorPoint: "Anchor-0" 772 1462 basechar 0
LayerCount: 2
Fore
SplineSet
8 0 m 1
 8 109 l 1
 33 109 l 2
 107 109 152 135 197 258 c 2
 641 1462 l 1
 922 1462 l 1
 1350 256 l 2
 1391 141 1439 109 1505 109 c 2
 1542 109 l 1
 1542 0 l 1
 866 0 l 1
 866 109 l 1
 946 109 l 2
 987 109 1034 131 1034 188 c 0
 1034 221 1024 253 1016 276 c 2
 944 481 l 1
 446 481 l 1
 387 305 l 2
 377 272 362 221 362 188 c 0
 362 135 408 109 455 109 c 2
 541 109 l 1
 541 0 l 1
 8 0 l 1
489 606 m 1
 903 606 l 1
 795 942 l 2
 766 1034 730 1159 707 1255 c 1
 682 1167 643 1046 610 952 c 2
 489 606 l 1
EndSplineSet
Substitution2: "'c2sc' Capitals to Small Capitals lookup 37 subtable" a.sc
Substitution2: "Single Substitution lookup 32 subtable" ordfeminine
AlternateSubs2: "'aalt' Access All Alternates lookup 1 subtable" ordfeminine a.sc
EndChar

StartChar: B
Encoding: 66 66 37
Width: 1376
GlyphClass: 2
Flags: HW
AnchorPoint: "Anchor-3" 680 731 basechar 0
AnchorPoint: "Anchor-2" 1335 1462 basechar 0
AnchorPoint: "Anchor-1" 688 0 basechar 0
AnchorPoint: "Anchor-0" 688 1462 basechar 0
LayerCount: 2
Fore
SplineSet
57 0 m 1
 57 109 l 1
 141 109 l 2
 200 109 248 125 248 242 c 2
 248 1223 l 2
 248 1332 198 1354 141 1354 c 2
 57 1354 l 1
 57 1462 l 1
 655 1462 l 2
 1044 1462 1241 1346 1241 1090 c 0
 1241 910 1137 827 983 778 c 1
 983 768 l 1
 1171 721 1303 600 1303 401 c 0
 1303 133 1104 0 717 0 c 2
 57 0 l 1
649 827 m 2
 839 827 897 904 897 1090 c 0
 897 1276 829 1337 645 1337 c 2
 571 1337 l 1
 571 827 l 1
 649 827 l 2
707 125 m 2
 889 125 958 199 958 408 c 0
 958 609 899 702 711 702 c 2
 571 702 l 1
 571 125 l 1
 707 125 l 2
EndSplineSet
Substitution2: "'c2sc' Capitals to Small Capitals lookup 37 subtable" b.sc
Substitution2: "'aalt' Access All Alternates lookup 0 subtable" b.sc
EndChar

StartChar: C
Encoding: 67 67 38
Width: 1368
GlyphClass: 2
Flags: HW
AnchorPoint: "Anchor-3" 698 731 basechar 0
AnchorPoint: "Anchor-2" 1327 1462 basechar 0
AnchorPoint: "Anchor-1" 786 0 basechar 0
AnchorPoint: "Anchor-0" 815 1462 basechar 0
LayerCount: 2
Fore
SplineSet
821 -20 m 0
 346 -20 113 280 113 733 c 0
 113 1175 354 1483 819 1483 c 0
 1132 1483 1286 1378 1286 1245 c 0
 1286 1143 1196 1067 1030 1067 c 1
 1030 1202 975 1352 805 1352 c 0
 545 1352 457 1128 457 733 c 0
 457 338 567 143 870 143 c 0
 1069 143 1179 246 1249 338 c 1
 1269 322 1284 285 1284 250 c 0
 1284 135 1171 -20 821 -20 c 0
EndSplineSet
Substitution2: "'c2sc' Capitals to Small Capitals lookup 37 subtable" c.sc
Substitution2: "'aalt' Access All Alternates lookup 0 subtable" c.sc
EndChar

StartChar: D
Encoding: 68 68 39
Width: 1570
GlyphClass: 2
Flags: HW
AnchorPoint: "Anchor-3" 786 731 basechar 0
AnchorPoint: "Anchor-2" 1530 1462 basechar 0
AnchorPoint: "Anchor-1" 758 0 basechar 0
AnchorPoint: "Anchor-0" 762 1462 basechar 0
LayerCount: 2
Fore
SplineSet
57 0 m 1
 57 109 l 1
 143 109 l 2
 202 109 248 125 248 242 c 2
 248 1229 l 2
 248 1338 200 1354 143 1354 c 2
 57 1354 l 1
 57 1462 l 1
 733 1462 l 2
 1186 1462 1458 1223 1458 758 c 0
 1458 309 1210 0 733 0 c 2
 57 0 l 1
686 127 m 2
 967 127 1112 367 1112 758 c 0
 1112 1149 967 1337 688 1337 c 2
 571 1337 l 1
 571 127 l 1
 686 127 l 2
EndSplineSet
Substitution2: "'c2sc' Capitals to Small Capitals lookup 37 subtable" d.sc
Substitution2: "'aalt' Access All Alternates lookup 0 subtable" d.sc
EndChar

StartChar: E
Encoding: 69 69 40
Width: 1337
GlyphClass: 2
Flags: HW
AnchorPoint: "Anchor-3" 664 731 basechar 0
AnchorPoint: "Anchor-2" 1296 1462 basechar 0
AnchorPoint: "Anchor-1" 670 0 basechar 0
AnchorPoint: "Anchor-0" 670 1462 basechar 0
LayerCount: 2
Fore
SplineSet
57 0 m 1
 57 109 l 1
 143 109 l 2
 200 109 248 122 248 231 c 2
 248 1221 l 2
 248 1338 202 1354 143 1354 c 2
 57 1354 l 1
 57 1462 l 1
 1194 1462 l 1
 1202 1085 l 1
 1059 1085 l 1
 1049 1182 l 2
 1039 1282 1002 1337 918 1337 c 2
 573 1337 l 1
 573 825 l 1
 1059 825 l 1
 1059 702 l 1
 573 702 l 1
 573 125 l 1
 983 125 l 2
 1065 125 1100 191 1114 281 c 2
 1130 377 l 1
 1272 377 l 1
 1257 0 l 1
 57 0 l 1
EndSplineSet
Substitution2: "'c2sc' Capitals to Small Capitals lookup 37 subtable" e.sc
Substitution2: "'aalt' Access All Alternates lookup 0 subtable" e.sc
EndChar

StartChar: F
Encoding: 70 70 41
Width: 1271
GlyphClass: 2
Flags: HW
AnchorPoint: "Anchor-3" 629 731 basechar 0
AnchorPoint: "Anchor-2" 1231 1462 basechar 0
AnchorPoint: "Anchor-1" 410 0 basechar 0
AnchorPoint: "Anchor-0" 637 1462 basechar 0
LayerCount: 2
Fore
SplineSet
57 0 m 1
 57 109 l 1
 143 109 l 2
 200 109 248 122 248 231 c 2
 248 1229 l 2
 248 1338 200 1354 143 1354 c 2
 57 1354 l 1
 57 1462 l 1
 1192 1462 l 1
 1202 1085 l 1
 1059 1085 l 1
 1049 1184 l 2
 1037 1293 981 1337 897 1337 c 2
 571 1337 l 1
 571 778 l 1
 1057 778 l 1
 1057 657 l 1
 571 657 l 1
 571 242 l 2
 571 125 619 109 678 109 c 2
 805 109 l 1
 805 0 l 1
 57 0 l 1
EndSplineSet
Substitution2: "'c2sc' Capitals to Small Capitals lookup 37 subtable" f.sc
Substitution2: "'aalt' Access All Alternates lookup 0 subtable" f.sc
EndChar

StartChar: G
Encoding: 71 71 42
Width: 1574
GlyphClass: 2
Flags: HW
AnchorPoint: "Anchor-3" 815 731 basechar 0
AnchorPoint: "Anchor-2" 1534 1462 basechar 0
AnchorPoint: "Anchor-1" 870 0 basechar 0
AnchorPoint: "Anchor-0" 874 1462 basechar 0
LayerCount: 2
Fore
SplineSet
866 -20 m 0
 358 -20 113 280 113 733 c 0
 113 1175 375 1483 877 1483 c 0
 1217 1483 1389 1378 1389 1245 c 0
 1389 1149 1296 1071 1124 1071 c 1
 1124 1237 1044 1352 870 1352 c 0
 571 1352 457 1128 457 733 c 0
 457 338 575 119 897 119 c 0
 948 119 1000 123 1047 133 c 1
 1047 434 l 2
 1047 543 997 580 901 580 c 2
 874 580 l 1
 874 688 l 1
 1518 688 l 1
 1518 580 l 1
 1491 580 l 2
 1407 580 1370 543 1370 426 c 2
 1370 90 l 1
 1210 16 1052 -20 866 -20 c 0
EndSplineSet
Substitution2: "'c2sc' Capitals to Small Capitals lookup 37 subtable" g.sc
Substitution2: "'aalt' Access All Alternates lookup 0 subtable" g.sc
EndChar

StartChar: H
Encoding: 72 72 43
Width: 1677
GlyphClass: 2
Flags: HW
AnchorPoint: "Anchor-3" 840 750 basechar 0
AnchorPoint: "Anchor-2" 1636 1462 basechar 0
AnchorPoint: "Anchor-1" 840 0 basechar 0
AnchorPoint: "Anchor-0" 840 1462 basechar 0
LayerCount: 2
Fore
SplineSet
57 0 m 1
 57 109 l 1
 143 109 l 2
 200 109 248 125 248 242 c 2
 248 1229 l 2
 248 1338 198 1354 143 1354 c 2
 57 1354 l 1
 57 1462 l 1
 764 1462 l 1
 764 1354 l 1
 676 1354 l 2
 619 1354 571 1338 571 1221 c 2
 571 825 l 1
 1106 825 l 1
 1106 1221 l 2
 1106 1338 1058 1354 1001 1354 c 2
 913 1354 l 1
 913 1462 l 1
 1620 1462 l 1
 1620 1354 l 1
 1534 1354 l 2
 1477 1354 1430 1338 1430 1221 c 2
 1430 231 l 2
 1430 122 1479 109 1534 109 c 2
 1620 109 l 1
 1620 0 l 1
 913 0 l 1
 913 109 l 1
 1001 109 l 2
 1058 109 1106 125 1106 242 c 2
 1106 700 l 1
 571 700 l 1
 571 242 l 2
 571 125 619 109 676 109 c 2
 764 109 l 1
 764 0 l 1
 57 0 l 1
EndSplineSet
Substitution2: "'c2sc' Capitals to Small Capitals lookup 37 subtable" h.sc
Substitution2: "'aalt' Access All Alternates lookup 0 subtable" h.sc
EndChar

StartChar: I
Encoding: 73 73 44
Width: 821
GlyphClass: 2
Flags: HW
AnchorPoint: "Anchor-3" 410 731 basechar 0
AnchorPoint: "Anchor-2" 780 1462 basechar 0
AnchorPoint: "Anchor-1" 412 0 basechar 0
AnchorPoint: "Anchor-0" 412 1462 basechar 0
LayerCount: 2
Fore
SplineSet
57 0 m 1
 57 109 l 1
 143 109 l 2
 202 109 248 125 248 242 c 2
 248 1221 l 2
 248 1338 202 1354 143 1354 c 2
 57 1354 l 1
 57 1462 l 1
 764 1462 l 1
 764 1354 l 1
 678 1354 l 2
 619 1354 573 1338 573 1221 c 2
 573 242 l 2
 573 125 619 109 678 109 c 2
 764 109 l 1
 764 0 l 1
 57 0 l 1
EndSplineSet
Substitution2: "'c2sc' Capitals to Small Capitals lookup 37 subtable" i.sc
Substitution2: "'aalt' Access All Alternates lookup 0 subtable" i.sc
EndChar

StartChar: J
Encoding: 74 74 45
Width: 813
GlyphClass: 2
Flags: HW
AnchorPoint: "Anchor-3" 362 485 basechar 0
AnchorPoint: "Anchor-2" 750 1462 basechar 0
AnchorPoint: "Anchor-1" 229 -492 basechar 0
AnchorPoint: "Anchor-0" 414 1462 basechar 0
LayerCount: 2
Fore
SplineSet
-43 -492 m 1
 -43 -373 l 1
 -6 -373 l 2
 125 -373 252 -280 252 -6 c 2
 252 1229 l 2
 252 1338 204 1354 147 1354 c 2
 61 1354 l 1
 61 1462 l 1
 768 1462 l 1
 768 1354 l 1
 682 1354 l 2
 623 1354 575 1338 575 1221 c 2
 575 -4 l 2
 575 -375 312 -492 31 -492 c 2
 -43 -492 l 1
EndSplineSet
Substitution2: "'c2sc' Capitals to Small Capitals lookup 37 subtable" j.sc
Substitution2: "'aalt' Access All Alternates lookup 0 subtable" j.sc
EndChar

StartChar: K
Encoding: 75 75 46
Width: 1503
GlyphClass: 2
Flags: HW
AnchorPoint: "Anchor-3" 780 731 basechar 0
AnchorPoint: "Anchor-2" 1462 1462 basechar 0
AnchorPoint: "Anchor-1" 850 0 basechar 0
AnchorPoint: "Anchor-0" 819 1462 basechar 0
LayerCount: 2
Fore
SplineSet
57 0 m 1
 57 109 l 1
 143 109 l 2
 200 109 248 122 248 231 c 2
 248 1229 l 2
 248 1338 200 1354 143 1354 c 2
 57 1354 l 1
 57 1462 l 1
 764 1462 l 1
 764 1354 l 1
 678 1354 l 2
 619 1354 571 1338 571 1221 c 2
 571 743 l 1
 889 1090 l 2
 977 1184 1006 1239 1006 1296 c 0
 1006 1341 975 1356 891 1356 c 1
 891 1462 l 1
 1446 1462 l 1
 1446 1356 l 1
 1335 1356 1247 1282 1151 1176 c 2
 881 879 l 1
 1262 274 l 2
 1344 147 1405 109 1495 109 c 2
 1503 109 l 1
 1503 0 l 1
 1393 0 l 2
 1080 0 1014 59 938 188 c 2
 662 659 l 1
 571 588 l 1
 571 242 l 2
 571 125 619 109 678 109 c 2
 764 109 l 1
 764 0 l 1
 57 0 l 1
EndSplineSet
Substitution2: "'c2sc' Capitals to Small Capitals lookup 37 subtable" k.sc
Substitution2: "'aalt' Access All Alternates lookup 0 subtable" k.sc
EndChar

StartChar: L
Encoding: 76 76 47
Width: 1339
GlyphClass: 2
Flags: HW
AnchorPoint: "Anchor-3" 420 731 basechar 0
AnchorPoint: "Anchor-2" 1298 1462 basechar 0
AnchorPoint: "Anchor-1" 670 0 basechar 0
AnchorPoint: "Anchor-0" 414 1462 basechar 0
LayerCount: 2
Fore
SplineSet
57 0 m 1
 57 109 l 1
 143 109 l 2
 202 109 248 125 248 242 c 2
 248 1221 l 2
 248 1338 202 1354 143 1354 c 2
 57 1354 l 1
 57 1462 l 1
 764 1462 l 1
 764 1354 l 1
 678 1354 l 2
 621 1354 573 1338 573 1229 c 2
 573 125 l 1
 954 125 l 2
 1048 125 1099 188 1124 303 c 2
 1157 457 l 1
 1272 457 l 1
 1257 0 l 1
 57 0 l 1
EndSplineSet
Substitution2: "'c2sc' Capitals to Small Capitals lookup 37 subtable" l.sc
Substitution2: "'aalt' Access All Alternates lookup 0 subtable" l.sc
EndChar

StartChar: M
Encoding: 77 77 48
Width: 1949
GlyphClass: 2
Flags: HW
AnchorPoint: "Anchor-3" 975 731 basechar 0
AnchorPoint: "Anchor-2" 1909 1462 basechar 0
AnchorPoint: "Anchor-1" 932 0 basechar 0
AnchorPoint: "Anchor-0" 975 1462 basechar 0
LayerCount: 2
Fore
SplineSet
57 0 m 1
 57 109 l 1
 143 109 l 2
 200 109 248 122 248 231 c 2
 248 1229 l 2
 248 1338 200 1354 143 1354 c 2
 57 1354 l 1
 57 1462 l 1
 647 1462 l 1
 987 473 l 1
 1313 1462 l 1
 1892 1462 l 1
 1892 1354 l 1
 1806 1354 l 2
 1747 1354 1702 1338 1702 1221 c 2
 1702 242 l 2
 1702 125 1747 109 1806 109 c 2
 1892 109 l 1
 1892 0 l 1
 1237 0 l 1
 1237 109 l 1
 1257 109 l 2
 1343 109 1386 123 1386 223 c 2
 1386 1260 l 1
 973 0 l 1
 834 0 l 1
 401 1260 l 1
 401 242 l 2
 401 125 457 109 553 109 c 2
 565 109 l 1
 565 0 l 1
 57 0 l 1
EndSplineSet
Substitution2: "'c2sc' Capitals to Small Capitals lookup 37 subtable" m.sc
Substitution2: "'aalt' Access All Alternates lookup 0 subtable" m.sc
EndChar

StartChar: N
Encoding: 78 78 49
Width: 1613
GlyphClass: 2
Flags: HW
AnchorPoint: "Anchor-3" 817 731 basechar 0
AnchorPoint: "Anchor-2" 1573 1462 basechar 0
AnchorPoint: "Anchor-1" 807 0 basechar 0
AnchorPoint: "Anchor-0" 807 1462 basechar 0
LayerCount: 2
Fore
SplineSet
57 0 m 1
 57 109 l 1
 143 109 l 2
 200 109 248 125 248 242 c 2
 248 1229 l 2
 248 1338 198 1354 143 1354 c 2
 57 1354 l 1
 57 1462 l 1
 512 1462 l 1
 1235 440 l 1
 1235 1229 l 2
 1235 1338 1185 1354 1130 1354 c 2
 1044 1354 l 1
 1044 1462 l 1
 1579 1462 l 1
 1579 1354 l 1
 1493 1354 l 2
 1436 1354 1389 1338 1389 1221 c 2
 1389 0 l 1
 1200 0 l 1
 401 1128 l 1
 401 242 l 2
 401 125 449 109 506 109 c 2
 592 109 l 1
 592 0 l 1
 57 0 l 1
EndSplineSet
Substitution2: "'c2sc' Capitals to Small Capitals lookup 37 subtable" n.sc
Substitution2: "'aalt' Access All Alternates lookup 0 subtable" n.sc
EndChar

StartChar: O
Encoding: 79 79 50
Width: 1611
GlyphClass: 2
Flags: HW
AnchorPoint: "Anchor-3" 807 731 basechar 0
AnchorPoint: "Anchor-2" 1571 1462 basechar 0
AnchorPoint: "Anchor-1" 807 0 basechar 0
AnchorPoint: "Anchor-0" 807 1462 basechar 0
LayerCount: 2
Fore
SplineSet
807 -20 m 0
 340 -20 113 280 113 735 c 0
 113 1188 340 1485 809 1485 c 0
 1251 1485 1499 1188 1499 733 c 0
 1499 280 1251 -20 807 -20 c 0
807 113 m 0
 1063 113 1155 342 1155 733 c 0
 1155 1124 1063 1352 809 1352 c 0
 553 1352 457 1124 457 733 c 0
 457 342 553 113 807 113 c 0
EndSplineSet
Substitution2: "'c2sc' Capitals to Small Capitals lookup 37 subtable" o.sc
Substitution2: "Single Substitution lookup 32 subtable" ordmasculine
AlternateSubs2: "'aalt' Access All Alternates lookup 1 subtable" ordmasculine o.sc
EndChar

StartChar: P
Encoding: 80 80 51
Width: 1306
GlyphClass: 2
Flags: HW
AnchorPoint: "Anchor-3" 651 731 basechar 0
AnchorPoint: "Anchor-2" 1286 1462 basechar 0
AnchorPoint: "Anchor-1" 410 0 basechar 0
AnchorPoint: "Anchor-0" 653 1462 basechar 0
LayerCount: 2
Fore
SplineSet
57 0 m 1
 57 109 l 1
 143 109 l 2
 202 109 248 125 248 242 c 2
 248 1229 l 2
 248 1338 200 1354 143 1354 c 2
 57 1354 l 1
 57 1462 l 1
 686 1462 l 2
 1065 1462 1245 1296 1245 1028 c 0
 1245 782 1083 559 641 559 c 2
 571 559 l 1
 571 231 l 2
 571 122 623 109 680 109 c 2
 805 109 l 1
 805 0 l 1
 57 0 l 1
621 678 m 2
 824 678 901 774 901 1020 c 0
 901 1239 833 1341 651 1341 c 2
 571 1341 l 1
 571 678 l 1
 621 678 l 2
EndSplineSet
Substitution2: "'c2sc' Capitals to Small Capitals lookup 37 subtable" p.sc
Substitution2: "'aalt' Access All Alternates lookup 0 subtable" p.sc
EndChar

StartChar: Q
Encoding: 81 81 52
Width: 1611
GlyphClass: 2
Flags: HW
AnchorPoint: "Anchor-3" 805 496 basechar 0
AnchorPoint: "Anchor-2" 1571 1462 basechar 0
AnchorPoint: "Anchor-1" 807 -492 basechar 0
AnchorPoint: "Anchor-0" 807 1462 basechar 0
LayerCount: 2
Fore
SplineSet
1182 -492 m 2
 936 -492 686 -354 659 -8 c 1
 290 49 113 332 113 735 c 0
 113 1188 340 1485 809 1485 c 0
 1251 1485 1499 1188 1499 733 c 0
 1499 350 1323 78 1001 0 c 1
 1024 -301 1161 -373 1296 -373 c 2
 1329 -373 l 1
 1329 -492 l 1
 1182 -492 l 2
807 113 m 0
 1063 113 1155 342 1155 733 c 0
 1155 1124 1063 1352 809 1352 c 0
 553 1352 457 1124 457 733 c 0
 457 342 553 113 807 113 c 0
EndSplineSet
Substitution2: "'c2sc' Capitals to Small Capitals lookup 37 subtable" q.sc
Substitution2: "'aalt' Access All Alternates lookup 0 subtable" q.sc
EndChar

StartChar: R
Encoding: 82 82 53
Width: 1447
GlyphClass: 2
Flags: HW
AnchorPoint: "Anchor-3" 756 731 basechar 0
AnchorPoint: "Anchor-2" 1407 1462 basechar 0
AnchorPoint: "Anchor-1" 807 0 basechar 0
AnchorPoint: "Anchor-0" 725 1462 basechar 0
LayerCount: 2
Fore
SplineSet
57 0 m 1
 57 109 l 1
 143 109 l 2
 198 109 248 122 248 231 c 2
 248 1229 l 2
 248 1338 198 1354 143 1354 c 2
 57 1354 l 1
 57 1462 l 1
 717 1462 l 2
 1104 1462 1278 1329 1278 1083 c 0
 1278 866 1136 751 999 696 c 1
 1243 276 l 2
 1313 157 1370 109 1448 109 c 2
 1456 109 l 1
 1456 0 l 1
 1389 0 l 2
 1143 0 1034 30 950 184 c 2
 707 635 l 1
 571 635 l 1
 571 231 l 2
 571 122 621 109 676 109 c 2
 764 109 l 1
 764 0 l 1
 57 0 l 1
686 754 m 2
 874 754 934 854 934 1055 c 0
 934 1262 864 1341 682 1341 c 2
 571 1341 l 1
 571 754 l 1
 686 754 l 2
EndSplineSet
Substitution2: "'c2sc' Capitals to Small Capitals lookup 37 subtable" r.sc
Substitution2: "'aalt' Access All Alternates lookup 0 subtable" r.sc
EndChar

StartChar: S
Encoding: 83 83 54
Width: 1200
GlyphClass: 2
Flags: HW
AnchorPoint: "Anchor-3" 580 731 basechar 0
AnchorPoint: "Anchor-2" 1159 1462 basechar 0
AnchorPoint: "Anchor-1" 600 0 basechar 0
AnchorPoint: "Anchor-0" 600 1462 basechar 0
LayerCount: 2
Fore
SplineSet
541 -20 m 0
 174 -20 61 133 61 266 c 0
 61 405 174 457 293 457 c 1
 293 224 409 102 573 102 c 0
 733 102 827 199 827 324 c 0
 827 463 714 531 485 625 c 0
 198 742 102 870 102 1071 c 0
 102 1321 315 1483 604 1483 c 0
 905 1483 1040 1378 1040 1245 c 0
 1040 1149 956 1075 788 1075 c 1
 788 1190 729 1358 571 1358 c 0
 460 1358 369 1292 369 1169 c 0
 369 1052 431 973 707 862 c 0
 988 747 1098 629 1098 428 c 0
 1098 164 881 -20 541 -20 c 0
EndSplineSet
Substitution2: "'c2sc' Capitals to Small Capitals lookup 37 subtable" s.sc
Substitution2: "'aalt' Access All Alternates lookup 0 subtable" s.sc
EndChar

StartChar: T
Encoding: 84 84 55
Width: 1337
GlyphClass: 2
Flags: HW
AnchorPoint: "Anchor-3" 670 731 basechar 0
AnchorPoint: "Anchor-2" 1296 1462 basechar 0
AnchorPoint: "Anchor-1" 670 0 basechar 0
AnchorPoint: "Anchor-0" 670 1462 basechar 0
LayerCount: 2
Fore
SplineSet
315 0 m 1
 315 109 l 1
 401 109 l 2
 460 109 506 125 506 242 c 2
 506 1337 l 1
 342 1337 l 2
 219 1337 182 1282 172 1192 c 2
 158 1065 l 1
 20 1065 l 1
 31 1462 l 1
 1307 1462 l 1
 1317 1065 l 1
 1180 1065 l 1
 1165 1192 l 2
 1155 1282 1118 1337 995 1337 c 2
 831 1337 l 1
 831 242 l 2
 831 125 877 109 936 109 c 2
 1022 109 l 1
 1022 0 l 1
 315 0 l 1
EndSplineSet
Substitution2: "'c2sc' Capitals to Small Capitals lookup 37 subtable" t.sc
Substitution2: "'aalt' Access All Alternates lookup 0 subtable" t.sc
EndChar

StartChar: U
Encoding: 85 85 56
Width: 1529
GlyphClass: 2
Flags: HW
AnchorPoint: "Anchor-3" 764 721 basechar 0
AnchorPoint: "Anchor-2" 1530 1462 basechar 0
AnchorPoint: "Anchor-1" 766 0 basechar 0
AnchorPoint: "Anchor-0" 838 1462 basechar 0
LayerCount: 2
Fore
SplineSet
793 -20 m 0
 437 -20 225 110 225 446 c 2
 225 1229 l 2
 225 1338 176 1354 121 1354 c 2
 33 1354 l 1
 33 1462 l 1
 739 1462 l 1
 739 1354 l 1
 653 1354 l 2
 596 1354 549 1338 549 1221 c 2
 549 430 l 2
 549 201 668 125 854 125 c 0
 1036 125 1151 217 1151 426 c 2
 1151 1229 l 2
 1151 1338 1104 1354 1047 1354 c 2
 961 1354 l 1
 961 1462 l 1
 1497 1462 l 1
 1497 1354 l 1
 1409 1354 l 2
 1352 1354 1305 1338 1305 1221 c 2
 1305 422 l 2
 1305 148 1151 -20 793 -20 c 0
EndSplineSet
Substitution2: "'c2sc' Capitals to Small Capitals lookup 37 subtable" u.sc
Substitution2: "'aalt' Access All Alternates lookup 0 subtable" u.sc
EndChar

StartChar: V
Encoding: 86 86 57
Width: 1429
GlyphClass: 2
Flags: HW
AnchorPoint: "Anchor-3" 715 731 basechar 0
AnchorPoint: "Anchor-2" 1389 1462 basechar 0
AnchorPoint: "Anchor-1" 715 0 basechar 0
AnchorPoint: "Anchor-0" 776 1462 basechar 0
LayerCount: 2
Fore
SplineSet
174 1255 m 2
 147 1333 88 1354 47 1354 c 2
 0 1354 l 1
 0 1462 l 1
 676 1462 l 1
 676 1354 l 1
 582 1354 l 2
 543 1354 502 1337 502 1286 c 0
 502 1259 512 1221 520 1198 c 2
 729 567 l 2
 749 506 780 387 788 313 c 1
 798 381 829 487 854 561 c 2
 1065 1184 l 2
 1075 1213 1090 1261 1090 1284 c 0
 1090 1329 1057 1354 1008 1354 c 2
 901 1354 l 1
 901 1462 l 1
 1430 1462 l 1
 1430 1354 l 1
 1331 1354 l 2
 1294 1354 1276 1329 1233 1204 c 2
 815 0 l 1
 610 0 l 1
 174 1255 l 2
EndSplineSet
Substitution2: "'c2sc' Capitals to Small Capitals lookup 37 subtable" v.sc
Substitution2: "'aalt' Access All Alternates lookup 0 subtable" v.sc
EndChar

StartChar: W
Encoding: 87 87 58
Width: 2185
GlyphClass: 2
Flags: HW
AnchorPoint: "Anchor-3" 1092 731 basechar 0
AnchorPoint: "Anchor-2" 2144 1462 basechar 0
AnchorPoint: "Anchor-1" 1094 0 basechar 0
AnchorPoint: "Anchor-0" 1157 1462 basechar 0
LayerCount: 2
Fore
SplineSet
172 1245 m 2
 147 1331 107 1354 27 1354 c 2
 0 1354 l 1
 0 1462 l 1
 684 1462 l 1
 684 1354 l 1
 637 1354 l 2
 555 1354 514 1323 514 1255 c 0
 514 1232 525 1182 535 1145 c 2
 672 672 l 2
 703 570 742 418 752 330 c 1
 770 418 792 491 817 571 c 2
 1087 1448 l 1
 1237 1448 l 1
 1520 666 l 2
 1567 537 1606 398 1620 326 c 1
 1640 424 1669 574 1702 705 c 2
 1810 1147 l 2
 1818 1180 1829 1234 1829 1257 c 0
 1829 1327 1788 1354 1698 1354 c 2
 1651 1354 l 1
 1651 1462 l 1
 2185 1462 l 1
 2185 1354 l 1
 2146 1354 l 2
 2066 1354 2028 1329 1991 1194 c 2
 1673 0 l 1
 1440 0 l 1
 1096 961 l 1
 801 0 l 1
 547 0 l 1
 172 1245 l 2
EndSplineSet
Substitution2: "'c2sc' Capitals to Small Capitals lookup 37 subtable" w.sc
Substitution2: "'aalt' Access All Alternates lookup 0 subtable" w.sc
EndChar

StartChar: X
Encoding: 88 88 59
Width: 1499
GlyphClass: 2
Flags: HW
AnchorPoint: "Anchor-3" 750 731 basechar 0
AnchorPoint: "Anchor-2" 1458 1462 basechar 0
AnchorPoint: "Anchor-1" 750 0 basechar 0
AnchorPoint: "Anchor-0" 750 1462 basechar 0
LayerCount: 2
Fore
SplineSet
20 0 m 1
 20 109 l 1
 33 109 l 2
 131 109 178 164 246 252 c 2
 604 719 l 1
 266 1245 l 2
 221 1317 182 1354 90 1354 c 2
 63 1354 l 1
 63 1462 l 1
 741 1462 l 1
 741 1354 l 1
 735 1354 l 2
 641 1354 614 1327 614 1294 c 0
 614 1265 637 1221 668 1174 c 2
 838 920 l 1
 1016 1169 l 2
 1041 1206 1071 1257 1071 1294 c 0
 1071 1343 1019 1354 956 1354 c 2
 950 1354 l 1
 950 1462 l 1
 1430 1462 l 1
 1430 1354 l 1
 1411 1354 l 2
 1331 1354 1288 1317 1208 1206 c 2
 911 801 l 1
 1288 217 l 2
 1341 133 1401 109 1452 109 c 2
 1479 109 l 1
 1479 0 l 1
 803 0 l 1
 803 109 l 1
 813 109 l 2
 895 109 936 131 936 176 c 0
 936 207 927 229 868 317 c 2
 680 602 l 1
 459 303 l 2
 434 268 406 221 406 178 c 0
 406 133 440 109 530 109 c 2
 537 109 l 1
 537 0 l 1
 20 0 l 1
EndSplineSet
Substitution2: "'c2sc' Capitals to Small Capitals lookup 37 subtable" x.sc
Substitution2: "'aalt' Access All Alternates lookup 0 subtable" x.sc
EndChar

StartChar: Y
Encoding: 89 89 60
Width: 1419
GlyphClass: 2
Flags: HW
AnchorPoint: "Anchor-3" 709 731 basechar 0
AnchorPoint: "Anchor-2" 1378 1462 basechar 0
AnchorPoint: "Anchor-1" 711 0 basechar 0
AnchorPoint: "Anchor-0" 711 1462 basechar 0
LayerCount: 2
Fore
SplineSet
336 0 m 1
 336 109 l 1
 432 109 l 2
 498 109 551 116 551 233 c 2
 551 518 l 1
 172 1245 l 2
 131 1325 107 1354 27 1354 c 2
 0 1354 l 1
 0 1462 l 1
 686 1462 l 1
 686 1354 l 1
 651 1354 l 2
 569 1354 528 1317 528 1262 c 0
 528 1227 543 1184 559 1149 c 2
 711 848 l 2
 754 762 778 698 801 635 c 1
 830 707 866 793 911 885 c 2
 1030 1130 l 2
 1059 1189 1065 1230 1065 1253 c 0
 1065 1323 1020 1354 930 1354 c 2
 883 1354 l 1
 883 1462 l 1
 1419 1462 l 1
 1419 1354 l 1
 1380 1354 l 2
 1310 1354 1288 1321 1225 1194 c 2
 877 516 l 1
 877 236 l 2
 877 117 928 109 991 109 c 2
 1092 109 l 1
 1092 0 l 1
 336 0 l 1
EndSplineSet
Substitution2: "'c2sc' Capitals to Small Capitals lookup 37 subtable" y.sc
Substitution2: "'aalt' Access All Alternates lookup 0 subtable" y.sc
EndChar

StartChar: Z
Encoding: 90 90 61
Width: 1363
GlyphClass: 2
Flags: HW
AnchorPoint: "Anchor-3" 680 731 basechar 0
AnchorPoint: "Anchor-2" 1323 1462 basechar 0
AnchorPoint: "Anchor-1" 682 0 basechar 0
AnchorPoint: "Anchor-0" 682 1462 basechar 0
LayerCount: 2
Fore
SplineSet
86 0 m 1
 86 102 l 1
 854 1337 l 1
 451 1337 l 2
 322 1337 293 1264 283 1151 c 2
 272 1040 l 1
 125 1040 l 1
 135 1462 l 1
 1229 1462 l 1
 1229 1358 l 1
 459 125 l 1
 901 125 l 2
 1069 125 1106 228 1116 330 c 2
 1126 422 l 1
 1274 422 l 1
 1264 0 l 1
 86 0 l 1
EndSplineSet
Substitution2: "'c2sc' Capitals to Small Capitals lookup 37 subtable" z.sc
Substitution2: "'aalt' Access All Alternates lookup 0 subtable" z.sc
EndChar

StartChar: bracketleft
Encoding: 91 91 62
Width: 847
GlyphClass: 1
Flags: HW
LayerCount: 2
Fore
SplineSet
205 -262 m 1
 205 1556 l 1
 772 1556 l 1
 772 1448 l 1
 684 1448 l 2
 592 1448 516 1429 516 1300 c 2
 516 -6 l 2
 516 -135 592 -154 684 -154 c 2
 772 -154 l 1
 772 -262 l 1
 205 -262 l 1
EndSplineSet
Substitution2: "'smcp' Lowercase to Small Capitals lookup 38 subtable" bracketleft.sc
Substitution2: "'c2sc' Capitals to Small Capitals lookup 37 subtable" bracketleft.sc
Substitution2: "'aalt' Access All Alternates lookup 0 subtable" bracketleft.sc
EndChar

StartChar: backslash
Encoding: 92 92 63
Width: 589
GlyphClass: 1
Flags: HW
LayerCount: 2
Fore
SplineSet
442 -248 m 1
 0 1556 l 1
 145 1556 l 1
 590 -248 l 1
 442 -248 l 1
EndSplineSet
EndChar

StartChar: bracketright
Encoding: 93 93 64
Width: 847
GlyphClass: 1
Flags: HW
LayerCount: 2
Fore
SplineSet
76 -262 m 1
 76 -154 l 1
 164 -154 l 2
 256 -154 332 -135 332 -6 c 2
 332 1300 l 2
 332 1429 256 1448 164 1448 c 2
 76 1448 l 1
 76 1556 l 1
 643 1556 l 1
 643 -262 l 1
 76 -262 l 1
EndSplineSet
Substitution2: "'smcp' Lowercase to Small Capitals lookup 38 subtable" bracketright.sc
Substitution2: "'c2sc' Capitals to Small Capitals lookup 37 subtable" bracketright.sc
Substitution2: "'aalt' Access All Alternates lookup 0 subtable" bracketright.sc
EndChar

StartChar: asciicircum
Encoding: 94 94 65
Width: 1144
GlyphClass: 1
Flags: HW
LayerCount: 2
Fore
SplineSet
94 537 m 1
 526 1462 l 1
 614 1462 l 1
 1049 537 l 1
 889 537 l 1
 569 1239 l 1
 254 537 l 1
 94 537 l 1
EndSplineSet
EndChar

StartChar: underscore
Encoding: 95 95 66
Width: 940
GlyphClass: 1
Flags: HW
LayerCount: 2
Fore
SplineSet
-10 -291 m 1
 -10 -170 l 1
 950 -170 l 1
 950 -291 l 1
 -10 -291 l 1
EndSplineSet
EndChar

StartChar: grave
Encoding: 96 96 67
Width: 684
GlyphClass: 1
Flags: HW
LayerCount: 2
Fore
SplineSet
463 1241 m 1
 334 1315 133 1476 82 1548 c 1
 82 1569 l 1
 403 1569 l 1
 446 1477 543 1346 602 1268 c 1
 602 1241 l 1
 463 1241 l 1
EndSplineSet
EndChar

StartChar: a
Encoding: 97 97 68
Width: 1226
GlyphClass: 2
Flags: HW
AnchorPoint: "Anchor-3" 627 551 basechar 0
AnchorPoint: "Anchor-2" 1186 1098 basechar 0
AnchorPoint: "Anchor-1" 958 0 basechar 0
AnchorPoint: "Anchor-0" 614 1098 basechar 0
LayerCount: 2
Fore
SplineSet
414 -20 m 0
 234 -20 92 86 92 313 c 0
 92 534 244 637 551 647 c 2
 719 653 l 1
 719 766 l 2
 719 903 705 999 592 999 c 0
 488 999 455 905 455 778 c 1
 273 778 178 815 178 915 c 0
 178 1065 369 1124 600 1124 c 0
 887 1124 1030 1032 1030 776 c 2
 1030 254 l 2
 1030 141 1061 109 1153 109 c 2
 1161 109 l 1
 1161 0 l 1
 780 0 l 1
 737 141 l 1
 719 141 l 1
 629 30 570 -20 414 -20 c 0
526 129 m 0
 643 129 719 231 719 391 c 2
 719 545 l 1
 627 539 l 2
 463 531 410 452 410 305 c 0
 410 188 446 129 526 129 c 0
EndSplineSet
Substitution2: "'smcp' Lowercase to Small Capitals lookup 38 subtable" a.sc
Substitution2: "Single Substitution lookup 32 subtable" ordfeminine
Substitution2: "'sinf' Scientific Inferiors lookup 23 subtable" uni2090
Substitution2: "'subs' Subscript lookup 22 subtable" uni2090
AlternateSubs2: "'aalt' Access All Alternates lookup 1 subtable" ordfeminine uni2090 a.sc
EndChar

StartChar: b
Encoding: 98 98 69
Width: 1329
GlyphClass: 2
Flags: HW
AnchorPoint: "Anchor-3" 633 768 basechar 0
AnchorPoint: "Anchor-2" 1288 1556 basechar 0
AnchorPoint: "Anchor-1" 666 0 basechar 0
AnchorPoint: "Anchor-0" 332 1556 basechar 0
LayerCount: 2
Fore
SplineSet
813 -20 m 0
 655 -20 559 54 500 160 c 1
 481 160 l 1
 424 0 l 1
 35 0 l 1
 35 109 l 1
 49 109 l 2
 127 109 205 127 205 252 c 2
 205 1311 l 2
 205 1428 131 1448 43 1448 c 2
 35 1448 l 1
 35 1556 l 1
 516 1556 l 1
 516 1206 l 2
 516 1145 508 1019 500 958 c 1
 514 958 l 1
 573 1058 665 1122 821 1122 c 0
 1087 1122 1233 948 1233 553 c 0
 1233 156 1085 -20 813 -20 c 0
727 133 m 0
 862 133 918 283 918 555 c 0
 918 834 862 971 725 971 c 0
 563 971 516 836 516 553 c 0
 516 283 563 133 727 133 c 0
EndSplineSet
Substitution2: "'smcp' Lowercase to Small Capitals lookup 38 subtable" b.sc
Substitution2: "'aalt' Access All Alternates lookup 0 subtable" b.sc
EndChar

StartChar: c
Encoding: 99 99 70
Width: 1079
GlyphClass: 2
Flags: HW
AnchorPoint: "Anchor-3" 549 551 basechar 0
AnchorPoint: "Anchor-2" 1038 1098 basechar 0
AnchorPoint: "Anchor-1" 582 0 basechar 0
AnchorPoint: "Anchor-0" 596 1098 basechar 0
LayerCount: 2
Fore
SplineSet
604 -20 m 0
 303 -20 96 125 96 545 c 0
 96 987 315 1124 598 1124 c 0
 862 1124 1004 1030 1004 909 c 0
 1004 821 952 735 739 735 c 1
 739 876 708 999 606 999 c 0
 487 999 412 897 412 547 c 0
 412 271 483 133 655 133 c 0
 796 133 905 205 952 299 c 1
 985 279 1001 242 1001 205 c 0
 1001 103 880 -20 604 -20 c 0
EndSplineSet
Substitution2: "'smcp' Lowercase to Small Capitals lookup 38 subtable" c.sc
Substitution2: "'aalt' Access All Alternates lookup 0 subtable" c.sc
EndChar

StartChar: d
Encoding: 100 100 71
Width: 1329
GlyphClass: 2
Flags: HW
AnchorPoint: "Anchor-3" 666 549 basechar 0
AnchorPoint: "Anchor-2" 1268 1556 basechar 0
AnchorPoint: "Anchor-1" 666 0 basechar 0
AnchorPoint: "Anchor-0" 971 1556 basechar 0
LayerCount: 2
Fore
SplineSet
512 -20 m 0
 244 -20 94 154 94 547 c 0
 94 942 244 1122 508 1122 c 0
 662 1122 756 1052 813 958 c 1
 827 958 l 1
 817 1034 811 1142 811 1208 c 2
 811 1321 l 2
 811 1434 735 1448 645 1448 c 2
 629 1448 l 1
 629 1556 l 1
 1122 1556 l 1
 1122 252 l 2
 1122 127 1202 109 1292 109 c 2
 1300 109 l 1
 1300 0 l 1
 903 0 l 1
 846 160 l 1
 827 160 l 1
 766 49 672 -20 512 -20 c 0
600 133 m 0
 762 133 811 268 811 551 c 0
 811 821 762 971 600 971 c 0
 463 971 410 821 410 549 c 0
 410 270 463 133 600 133 c 0
EndSplineSet
Substitution2: "'smcp' Lowercase to Small Capitals lookup 38 subtable" d.sc
Substitution2: "'aalt' Access All Alternates lookup 0 subtable" d.sc
EndChar

StartChar: e
Encoding: 101 101 72
Width: 1169
GlyphClass: 2
Flags: HW
AnchorPoint: "Anchor-3" 590 551 basechar 0
AnchorPoint: "Anchor-2" 1128 1098 basechar 0
AnchorPoint: "Anchor-1" 606 0 basechar 0
AnchorPoint: "Anchor-0" 606 1098 basechar 0
LayerCount: 2
Fore
SplineSet
627 -20 m 0
 279 -20 96 187 96 543 c 0
 96 928 280 1124 604 1124 c 0
 901 1124 1083 957 1083 631 c 2
 1083 526 l 1
 412 526 l 1
 420 252 516 133 686 133 c 0
 827 133 928 205 975 299 c 1
 1012 279 1030 244 1030 199 c 0
 1030 82 903 -20 627 -20 c 0
770 657 m 1
 770 866 725 991 608 991 c 0
 493 991 422 874 416 657 c 1
 770 657 l 1
EndSplineSet
Substitution2: "'smcp' Lowercase to Small Capitals lookup 38 subtable" e.sc
Substitution2: "'sinf' Scientific Inferiors lookup 23 subtable" uni2091
Substitution2: "'subs' Subscript lookup 22 subtable" uni2091
AlternateSubs2: "'aalt' Access All Alternates lookup 1 subtable" uni2091 e.sc
EndChar

StartChar: f
Encoding: 102 102 73
Width: 833
GlyphClass: 2
Flags: HW
AnchorPoint: "Anchor-3" 514 786 basechar 0
AnchorPoint: "Anchor-2" 997 1575 basechar 0
AnchorPoint: "Anchor-1" 418 0 basechar 0
AnchorPoint: "Anchor-0" 602 1575 basechar 0
LayerCount: 2
Fore
SplineSet
39 0 m 1
 39 109 l 1
 84 109 l 2
 143 109 229 125 229 242 c 2
 229 958 l 1
 47 958 l 1
 47 1098 l 1
 229 1098 l 1
 229 1174 l 2
 229 1428 358 1575 647 1575 c 0
 911 1575 989 1509 989 1425 c 0
 989 1333 905 1292 737 1292 c 1
 737 1358 711 1458 635 1458 c 0
 567 1458 541 1390 541 1210 c 2
 541 1098 l 1
 823 1098 l 1
 823 958 l 1
 541 958 l 1
 541 242 l 2
 541 125 627 109 686 109 c 2
 782 109 l 1
 782 0 l 1
 39 0 l 1
EndSplineSet
Substitution2: "'smcp' Lowercase to Small Capitals lookup 38 subtable" f.sc
Substitution2: "'aalt' Access All Alternates lookup 0 subtable" f.sc
EndChar

StartChar: g
Encoding: 103 103 74
Width: 1146
GlyphClass: 2
Flags: HW
AnchorPoint: "Anchor-3" 569 342 basechar 0
AnchorPoint: "Anchor-2" 1126 1098 basechar 0
AnchorPoint: "Anchor-1" 537 -492 basechar 0
AnchorPoint: "Anchor-0" 537 1098 basechar 0
LayerCount: 2
Fore
SplineSet
483 -492 m 0
 161 -492 4 -393 4 -207 c 0
 4 -62 103 17 281 31 c 1
 207 60 131 117 131 213 c 0
 131 303 207 367 313 428 c 1
 192 471 104 579 104 745 c 0
 104 985 239 1124 532 1124 c 0
 628 1124 715 1096 776 1061 c 1
 848 1139 907 1176 989 1176 c 0
 1087 1176 1137 1122 1137 1059 c 0
 1137 998 1104 942 991 942 c 1
 991 997 952 1028 913 1028 c 0
 890 1028 860 1018 846 1006 c 1
 901 945 946 845 946 745 c 0
 946 538 817 387 532 387 c 0
 501 387 439 391 414 393 c 1
 375 377 340 338 340 289 c 0
 340 244 379 223 436 223 c 2
 684 223 l 2
 956 223 1077 107 1077 -90 c 0
 1077 -342 886 -492 483 -492 c 0
526 508 m 0
 635 508 666 601 666 748 c 0
 666 900 633 1001 524 1001 c 0
 418 1001 383 895 383 745 c 0
 383 602 420 508 526 508 c 0
487 -369 m 0
 727 -369 831 -299 831 -164 c 0
 831 -78 777 -47 666 -47 c 2
 428 -47 l 2
 346 -47 246 -70 246 -203 c 0
 246 -316 329 -369 487 -369 c 0
EndSplineSet
Substitution2: "'smcp' Lowercase to Small Capitals lookup 38 subtable" g.sc
Substitution2: "'aalt' Access All Alternates lookup 0 subtable" g.sc
EndChar

StartChar: h
Encoding: 104 104 75
Width: 1366
GlyphClass: 2
Flags: HW
AnchorPoint: "Anchor-3" 684 549 basechar 0
AnchorPoint: "Anchor-2" 1223 1556 basechar 0
AnchorPoint: "Anchor-1" 684 0 basechar 0
AnchorPoint: "Anchor-0" 358 1556 basechar 0
LayerCount: 2
Fore
SplineSet
41 0 m 1
 41 109 l 1
 45 109 l 2
 137 109 207 127 207 250 c 2
 205 1323 l 2
 205 1432 116 1448 59 1448 c 2
 35 1448 l 1
 35 1556 l 1
 516 1556 l 1
 516 1219 l 2
 516 1113 500 958 500 958 c 1
 518 958 l 1
 600 1112 702 1124 831 1124 c 0
 1042 1124 1169 1005 1169 729 c 2
 1169 254 l 2
 1169 127 1215 109 1307 109 c 2
 1313 109 l 1
 1313 0 l 1
 858 0 l 1
 858 674 l 2
 858 850 815 950 694 950 c 0
 559 950 516 801 516 633 c 2
 518 242 l 2
 518 127 574 109 664 109 c 2
 670 109 l 1
 670 0 l 1
 41 0 l 1
EndSplineSet
Substitution2: "'smcp' Lowercase to Small Capitals lookup 38 subtable" h.sc
Substitution2: "'sinf' Scientific Inferiors lookup 23 subtable" uni2095
Substitution2: "'subs' Subscript lookup 22 subtable" uni2095
AlternateSubs2: "'aalt' Access All Alternates lookup 1 subtable" h.sc uni2095
EndChar

StartChar: i
Encoding: 105 105 76
Width: 720
GlyphClass: 2
Flags: HW
AnchorPoint: "Anchor-3" 360 788 basechar 0
AnchorPoint: "Anchor-2" 598 1577 basechar 0
AnchorPoint: "Anchor-1" 360 0 basechar 0
AnchorPoint: "Anchor-0" 354 1577 basechar 0
LayerCount: 2
Fore
SplineSet
350 1282 m 0
 252 1282 176 1330 176 1430 c 0
 176 1534 252 1577 350 1577 c 0
 444 1577 526 1534 526 1430 c 0
 526 1330 444 1282 350 1282 c 0
35 0 m 1
 35 109 l 1
 59 109 l 2
 118 109 205 125 205 242 c 2
 205 864 l 2
 205 973 116 989 59 989 c 2
 35 989 l 1
 35 1098 l 1
 516 1098 l 1
 516 242 l 2
 516 125 603 109 662 109 c 2
 686 109 l 1
 686 0 l 1
 35 0 l 1
EndSplineSet
Substitution2: "'smcp' Lowercase to Small Capitals lookup 38 subtable" i.sc
Substitution2: "Single Substitution lookup 4 subtable" dotlessi
AlternateSubs2: "'aalt' Access All Alternates lookup 1 subtable" dotlessi i.sc
EndChar

StartChar: j
Encoding: 106 106 77
Width: 706
GlyphClass: 2
Flags: HW
AnchorPoint: "Anchor-3" 244 543 basechar 0
AnchorPoint: "Anchor-2" 604 1577 basechar 0
AnchorPoint: "Anchor-1" 231 -492 basechar 0
AnchorPoint: "Anchor-0" 354 1577 basechar 0
LayerCount: 2
Fore
SplineSet
352 1282 m 0
 254 1282 178 1330 178 1430 c 0
 178 1534 254 1577 352 1577 c 0
 446 1577 528 1534 528 1430 c 0
 528 1330 446 1282 352 1282 c 0
-41 -492 m 1
 -41 -365 l 1
 -27 -365 l 2
 123 -365 205 -279 205 0 c 2
 205 854 l 2
 205 971 129 989 41 989 c 2
 35 989 l 1
 35 1098 l 1
 516 1098 l 1
 516 -16 l 2
 516 -383 301 -492 0 -492 c 2
 -41 -492 l 1
EndSplineSet
Substitution2: "'smcp' Lowercase to Small Capitals lookup 38 subtable" j.sc
Substitution2: "Single Substitution lookup 4 subtable" uni0237
AlternateSubs2: "'aalt' Access All Alternates lookup 1 subtable" uni0237 j.sc
EndChar

StartChar: k
Encoding: 107 107 78
Width: 1302
GlyphClass: 2
Flags: HW
AnchorPoint: "Anchor-3" 668 778 basechar 0
AnchorPoint: "Anchor-2" 995 1843 basechar 0
AnchorPoint: "Anchor-1" 651 0 basechar 0
AnchorPoint: "Anchor-0" 346 1556 basechar 0
LayerCount: 2
Fore
SplineSet
35 0 m 1
 35 109 l 1
 59 109 l 2
 118 109 205 125 205 242 c 2
 205 1323 l 2
 205 1432 116 1448 59 1448 c 2
 35 1448 l 1
 35 1556 l 1
 516 1556 l 1
 516 766 l 2
 516 692 506 553 506 553 c 1
 764 842 l 2
 809 893 819 920 819 940 c 0
 819 975 781 995 713 995 c 1
 713 1098 l 1
 1229 1098 l 1
 1229 995 l 1
 1135 995 1046 942 940 821 c 2
 811 674 l 1
 1083 268 l 2
 1155 159 1230 109 1296 109 c 2
 1303 109 l 1
 1303 0 l 1
 1274 0 l 2
 975 0 886 14 780 182 c 2
 598 469 l 1
 516 408 l 1
 516 242 l 2
 516 125 603 109 662 109 c 2
 686 109 l 1
 686 0 l 1
 35 0 l 1
EndSplineSet
Substitution2: "'smcp' Lowercase to Small Capitals lookup 38 subtable" k.sc
Substitution2: "'sinf' Scientific Inferiors lookup 23 subtable" uni2096
Substitution2: "'subs' Subscript lookup 22 subtable" uni2096
AlternateSubs2: "'aalt' Access All Alternates lookup 1 subtable" k.sc uni2096
EndChar

StartChar: l
Encoding: 108 108 79
Width: 720
GlyphClass: 2
Flags: HW
AnchorPoint: "Anchor-3" 360 549 basechar 0
AnchorPoint: "Anchor-2" 618 1556 basechar 0
AnchorPoint: "Anchor-1" 360 0 basechar 0
AnchorPoint: "Anchor-0" 360 1556 basechar 0
LayerCount: 2
Fore
SplineSet
35 0 m 1
 35 109 l 1
 59 109 l 2
 118 109 205 125 205 242 c 2
 205 1323 l 2
 205 1432 116 1448 59 1448 c 2
 35 1448 l 1
 35 1556 l 1
 516 1556 l 1
 516 242 l 2
 516 125 603 109 662 109 c 2
 686 109 l 1
 686 0 l 1
 35 0 l 1
EndSplineSet
Substitution2: "'smcp' Lowercase to Small Capitals lookup 38 subtable" l.sc
Substitution2: "'sinf' Scientific Inferiors lookup 23 subtable" uni2097
Substitution2: "'subs' Subscript lookup 22 subtable" uni2097
AlternateSubs2: "'aalt' Access All Alternates lookup 1 subtable" l.sc uni2097
EndChar

StartChar: m
Encoding: 109 109 80
Width: 2019
GlyphClass: 2
Flags: HW
AnchorPoint: "Anchor-3" 1004 561 basechar 0
AnchorPoint: "Anchor-2" 1958 1098 basechar 0
AnchorPoint: "Anchor-1" 1071 0 basechar 0
AnchorPoint: "Anchor-0" 1065 1098 basechar 0
LayerCount: 2
Fore
SplineSet
41 0 m 1
 41 109 l 1
 45 109 l 2
 137 109 205 127 205 250 c 2
 205 862 l 2
 205 977 147 995 57 995 c 2
 51 995 l 1
 51 1098 l 1
 481 1098 l 1
 508 952 l 1
 518 952 l 1
 600 1106 702 1124 831 1124 c 0
 981 1124 1092 1073 1141 952 c 1
 1159 952 l 1
 1241 1106 1356 1124 1485 1124 c 0
 1696 1124 1823 1005 1823 729 c 2
 1823 254 l 2
 1823 127 1868 109 1960 109 c 2
 1966 109 l 1
 1966 0 l 1
 1511 0 l 1
 1511 674 l 2
 1511 850 1469 950 1348 950 c 0
 1219 950 1169 815 1169 657 c 2
 1169 254 l 2
 1169 127 1215 109 1307 109 c 2
 1313 109 l 1
 1313 0 l 1
 858 0 l 1
 858 674 l 2
 858 850 815 950 694 950 c 0
 559 950 516 801 516 633 c 2
 516 242 l 2
 516 127 574 109 664 109 c 2
 670 109 l 1
 670 0 l 1
 41 0 l 1
EndSplineSet
Substitution2: "'smcp' Lowercase to Small Capitals lookup 38 subtable" m.sc
Substitution2: "'sinf' Scientific Inferiors lookup 23 subtable" uni2098
Substitution2: "'subs' Subscript lookup 22 subtable" uni2098
AlternateSubs2: "'aalt' Access All Alternates lookup 1 subtable" m.sc uni2098
EndChar

StartChar: n
Encoding: 110 110 81
Width: 1366
GlyphClass: 2
Flags: HW
AnchorPoint: "Anchor-3" 676 561 basechar 0
AnchorPoint: "Anchor-2" 1305 1098 basechar 0
AnchorPoint: "Anchor-1" 688 0 basechar 0
AnchorPoint: "Anchor-0" 743 1098 basechar 0
LayerCount: 2
Fore
SplineSet
41 0 m 1
 41 109 l 1
 45 109 l 2
 137 109 205 127 205 250 c 2
 205 856 l 2
 205 971 147 989 57 989 c 2
 51 989 l 1
 51 1098 l 1
 481 1098 l 1
 508 952 l 1
 518 952 l 1
 600 1106 702 1124 831 1124 c 0
 1042 1124 1169 1005 1169 729 c 2
 1169 254 l 2
 1169 127 1215 109 1307 109 c 2
 1313 109 l 1
 1313 0 l 1
 858 0 l 1
 858 674 l 2
 858 850 815 950 694 950 c 0
 559 950 516 801 516 633 c 2
 516 242 l 2
 516 127 574 109 664 109 c 2
 670 109 l 1
 670 0 l 1
 41 0 l 1
EndSplineSet
Substitution2: "'smcp' Lowercase to Small Capitals lookup 38 subtable" n.sc
Substitution2: "'sups' Superscript lookup 24 subtable" uni207F
Substitution2: "'sinf' Scientific Inferiors lookup 23 subtable" uni2099
Substitution2: "'subs' Subscript lookup 22 subtable" uni2099
AlternateSubs2: "'aalt' Access All Alternates lookup 1 subtable" uni207F n.sc uni2099
EndChar

StartChar: o
Encoding: 111 111 82
Width: 1255
GlyphClass: 2
Flags: HW
AnchorPoint: "Anchor-3" 629 549 basechar 0
AnchorPoint: "Anchor-2" 1214 1098 basechar 0
AnchorPoint: "Anchor-1" 629 0 basechar 0
AnchorPoint: "Anchor-0" 629 1098 basechar 0
LayerCount: 2
Fore
SplineSet
625 -20 m 0
 297 -20 96 168 96 553 c 0
 96 938 279 1124 631 1124 c 0
 959 1124 1159 938 1159 553 c 0
 1159 168 975 -20 625 -20 c 0
629 109 m 0
 787 109 842 262 842 553 c 0
 842 846 785 993 627 993 c 0
 469 993 414 846 414 553 c 0
 414 262 471 109 629 109 c 0
EndSplineSet
Substitution2: "'smcp' Lowercase to Small Capitals lookup 38 subtable" o.sc
Substitution2: "Single Substitution lookup 32 subtable" ordmasculine
Substitution2: "'sinf' Scientific Inferiors lookup 23 subtable" uni2092
Substitution2: "'subs' Subscript lookup 22 subtable" uni2092
AlternateSubs2: "'aalt' Access All Alternates lookup 1 subtable" ordmasculine uni2092 o.sc
EndChar

StartChar: p
Encoding: 112 112 83
Width: 1320
GlyphClass: 2
Flags: HW
AnchorPoint: "Anchor-3" 625 313 basechar 0
AnchorPoint: "Anchor-2" 1280 1098 basechar 0
AnchorPoint: "Anchor-1" 352 -492 basechar 0
AnchorPoint: "Anchor-0" 662 1098 basechar 0
LayerCount: 2
Fore
SplineSet
27 -492 m 1
 27 -383 l 1
 51 -383 l 2
 110 -383 197 -367 197 -250 c 2
 197 846 l 2
 197 971 137 989 59 989 c 2
 45 989 l 1
 45 1098 l 1
 446 1098 l 1
 483 938 l 1
 492 938 l 1
 551 1044 647 1118 805 1118 c 0
 1077 1118 1225 942 1225 545 c 0
 1225 150 1079 -25 813 -25 c 0
 657 -25 565 39 506 139 c 1
 492 139 l 1
 500 80 508 -50 508 -109 c 2
 508 -250 l 2
 508 -367 594 -383 653 -383 c 2
 698 -383 l 1
 698 -492 l 1
 27 -492 l 1
717 127 m 0
 854 127 909 264 909 543 c 0
 909 815 854 965 719 965 c 0
 555 965 508 815 508 545 c 0
 508 262 555 127 717 127 c 0
EndSplineSet
Substitution2: "'smcp' Lowercase to Small Capitals lookup 38 subtable" p.sc
Substitution2: "'sinf' Scientific Inferiors lookup 23 subtable" uni209A
Substitution2: "'subs' Subscript lookup 22 subtable" uni209A
AlternateSubs2: "'aalt' Access All Alternates lookup 1 subtable" p.sc uni209A
EndChar

StartChar: q
Encoding: 113 113 84
Width: 1327
GlyphClass: 2
Flags: HW
AnchorPoint: "Anchor-3" 709 313 basechar 0
AnchorPoint: "Anchor-2" 1307 1098 basechar 0
AnchorPoint: "Anchor-1" 973 -492 basechar 0
AnchorPoint: "Anchor-0" 664 1098 basechar 0
LayerCount: 2
Fore
SplineSet
608 -492 m 1
 608 -383 l 1
 645 -383 l 2
 735 -383 811 -369 811 -256 c 2
 811 -106 l 2
 811 -20 819 77 827 143 c 1
 813 143 l 1
 756 49 662 -20 508 -20 c 0
 244 -20 94 156 94 551 c 0
 94 944 244 1118 512 1118 c 0
 672 1118 766 1049 827 938 c 1
 846 938 l 1
 887 1098 l 1
 1300 1098 l 1
 1300 989 l 1
 1292 989 l 2
 1202 989 1122 971 1122 846 c 2
 1122 -256 l 2
 1122 -369 1198 -383 1288 -383 c 2
 1325 -383 l 1
 1325 -492 l 1
 608 -492 l 1
600 131 m 0
 762 131 811 277 811 547 c 0
 811 830 762 965 600 965 c 0
 463 965 410 828 410 549 c 0
 410 277 463 131 600 131 c 0
EndSplineSet
Substitution2: "'smcp' Lowercase to Small Capitals lookup 38 subtable" q.sc
Substitution2: "'aalt' Access All Alternates lookup 0 subtable" q.sc
EndChar

StartChar: r
Encoding: 114 114 85
Width: 1071
GlyphClass: 2
Flags: HW
AnchorPoint: "Anchor-3" 541 561 basechar 0
AnchorPoint: "Anchor-2" 1030 1098 basechar 0
AnchorPoint: "Anchor-1" 393 0 basechar 0
AnchorPoint: "Anchor-0" 557 1098 basechar 0
LayerCount: 2
Fore
SplineSet
41 0 m 1
 41 109 l 1
 47 109 l 2
 139 109 205 127 205 256 c 2
 205 850 l 2
 205 971 147 989 57 989 c 2
 51 989 l 1
 51 1098 l 1
 465 1098 l 1
 506 938 l 1
 516 938 l 1
 569 1061 637 1122 805 1122 c 0
 965 1122 1040 1062 1040 956 c 0
 1040 831 944 758 780 758 c 1
 780 871 758 928 680 928 c 0
 537 928 516 694 516 600 c 2
 516 246 l 2
 516 125 577 109 659 109 c 2
 725 109 l 1
 725 0 l 1
 41 0 l 1
EndSplineSet
Substitution2: "'smcp' Lowercase to Small Capitals lookup 38 subtable" r.sc
Substitution2: "'aalt' Access All Alternates lookup 0 subtable" r.sc
EndChar

StartChar: s
Encoding: 115 115 86
Width: 999
GlyphClass: 2
Flags: HW
AnchorPoint: "Anchor-3" 489 551 basechar 0
AnchorPoint: "Anchor-2" 958 1098 basechar 0
AnchorPoint: "Anchor-1" 500 0 basechar 0
AnchorPoint: "Anchor-0" 500 1098 basechar 0
LayerCount: 2
Fore
SplineSet
473 -20 m 0
 176 -20 61 82 61 219 c 0
 61 352 180 375 252 375 c 1
 252 205 340 100 473 100 c 0
 614 100 676 164 676 240 c 0
 676 330 617 376 424 444 c 0
 203 520 82 613 82 797 c 0
 82 1016 258 1122 522 1122 c 0
 780 1122 881 1026 881 932 c 0
 881 840 822 791 672 791 c 1
 672 926 611 1006 492 1006 c 0
 404 1006 326 963 326 879 c 0
 326 791 383 748 606 670 c 0
 788 607 918 512 918 340 c 0
 918 113 756 -20 473 -20 c 0
EndSplineSet
Substitution2: "'smcp' Lowercase to Small Capitals lookup 38 subtable" s.sc
Substitution2: "'sinf' Scientific Inferiors lookup 23 subtable" uni209B
Substitution2: "'subs' Subscript lookup 22 subtable" uni209B
AlternateSubs2: "'aalt' Access All Alternates lookup 1 subtable" s.sc uni209B
EndChar

StartChar: t
Encoding: 116 116 87
Width: 829
GlyphClass: 2
Flags: HW
AnchorPoint: "Anchor-3" 375 549 basechar 0
AnchorPoint: "Anchor-2" 512 2048 basechar 0
AnchorPoint: "Anchor-1" 498 0 basechar 0
AnchorPoint: "Anchor-0" 416 1352 basechar 0
LayerCount: 2
Fore
SplineSet
498 -20 m 0
 314 -20 197 63 197 303 c 2
 197 958 l 1
 43 958 l 1
 43 1063 l 1
 131 1063 203 1104 244 1149 c 0
 285 1192 318 1260 338 1352 c 1
 508 1352 l 1
 508 1098 l 1
 770 1098 l 1
 770 958 l 1
 508 958 l 1
 508 324 l 2
 508 201 547 145 643 145 c 0
 696 145 745 154 788 164 c 1
 788 31 l 1
 745 11 641 -20 498 -20 c 0
EndSplineSet
Substitution2: "'smcp' Lowercase to Small Capitals lookup 38 subtable" t.sc
Substitution2: "'sinf' Scientific Inferiors lookup 23 subtable" uni209C
Substitution2: "'subs' Subscript lookup 22 subtable" uni209C
AlternateSubs2: "'aalt' Access All Alternates lookup 1 subtable" t.sc uni209C
EndChar

StartChar: u
Encoding: 117 117 88
Width: 1366
GlyphClass: 2
Flags: HW
AnchorPoint: "Anchor-3" 684 539 basechar 0
AnchorPoint: "Anchor-2" 1305 1098 basechar 0
AnchorPoint: "Anchor-1" 1153 0 basechar 0
AnchorPoint: "Anchor-0" 684 1098 basechar 0
LayerCount: 2
Fore
SplineSet
528 -20 m 0
 315 -20 197 109 197 385 c 2
 197 844 l 2
 197 963 155 989 57 989 c 2
 53 989 l 1
 53 1098 l 1
 508 1098 l 1
 508 442 l 2
 508 266 543 154 664 154 c 0
 795 154 850 275 850 465 c 2
 850 858 l 2
 850 977 782 989 702 989 c 2
 696 989 l 1
 696 1098 l 1
 1161 1098 l 1
 1161 238 l 2
 1161 119 1218 109 1298 109 c 2
 1315 109 l 1
 1315 0 l 1
 907 0 l 1
 862 145 l 1
 852 145 l 1
 770 4 657 -20 528 -20 c 0
EndSplineSet
Substitution2: "'smcp' Lowercase to Small Capitals lookup 38 subtable" u.sc
Substitution2: "'aalt' Access All Alternates lookup 0 subtable" u.sc
EndChar

StartChar: v
Encoding: 118 118 89
Width: 1241
GlyphClass: 2
Flags: HW
AnchorPoint: "Anchor-3" 621 549 basechar 0
AnchorPoint: "Anchor-2" 1241 1098 basechar 0
AnchorPoint: "Anchor-1" 641 0 basechar 0
AnchorPoint: "Anchor-0" 641 1098 basechar 0
LayerCount: 2
Fore
SplineSet
164 891 m 2
 135 969 90 989 0 989 c 1
 0 1098 l 1
 635 1098 l 1
 635 989 l 1
 549 989 l 2
 508 989 481 967 481 924 c 0
 481 891 492 857 500 834 c 2
 637 446 l 2
 668 360 699 260 711 190 c 1
 723 256 750 351 768 406 c 2
 907 817 l 2
 919 854 930 893 930 930 c 0
 930 975 897 989 850 989 c 2
 791 989 l 1
 791 1098 l 1
 1241 1098 l 1
 1241 989 l 1
 1200 989 l 2
 1145 989 1114 971 1067 840 c 2
 770 0 l 1
 500 0 l 1
 164 891 l 2
EndSplineSet
Substitution2: "'smcp' Lowercase to Small Capitals lookup 38 subtable" v.sc
Substitution2: "'aalt' Access All Alternates lookup 0 subtable" v.sc
EndChar

StartChar: w
Encoding: 119 119 90
Width: 1753
GlyphClass: 2
Flags: HW
AnchorPoint: "Anchor-3" 874 549 basechar 0
AnchorPoint: "Anchor-2" 1753 1098 basechar 0
AnchorPoint: "Anchor-1" 877 0 basechar 0
AnchorPoint: "Anchor-0" 934 1098 basechar 0
LayerCount: 2
Fore
SplineSet
145 881 m 2
 114 967 80 989 0 989 c 2
 -6 989 l 1
 -6 1098 l 1
 594 1098 l 1
 594 989 l 1
 567 989 l 2
 485 989 444 971 444 903 c 0
 444 880 453 846 461 815 c 2
 537 549 l 2
 564 451 586 336 598 268 c 1
 604 268 l 1
 616 336 635 404 670 504 c 2
 879 1087 l 1
 1012 1087 l 1
 1212 483 l 2
 1245 385 1258 319 1266 268 c 1
 1272 268 l 1
 1284 336 1296 385 1327 487 c 2
 1417 786 l 2
 1427 821 1436 866 1436 889 c 0
 1436 959 1390 989 1300 989 c 2
 1286 989 l 1
 1286 1098 l 1
 1755 1098 l 1
 1755 989 l 1
 1729 989 l 2
 1649 989 1618 962 1575 829 c 2
 1311 0 l 1
 1090 0 l 1
 866 680 l 1
 631 0 l 1
 408 0 l 1
 145 881 l 2
EndSplineSet
Substitution2: "'smcp' Lowercase to Small Capitals lookup 38 subtable" w.sc
Substitution2: "'aalt' Access All Alternates lookup 0 subtable" w.sc
EndChar

StartChar: x
Encoding: 120 120 91
Width: 1323
GlyphClass: 2
Flags: HW
AnchorPoint: "Anchor-3" 666 549 basechar 0
AnchorPoint: "Anchor-2" 1282 1098 basechar 0
AnchorPoint: "Anchor-1" 662 0 basechar 0
AnchorPoint: "Anchor-0" 662 1098 basechar 0
LayerCount: 2
Fore
SplineSet
23 0 m 1
 23 109 l 1
 41 109 l 2
 139 109 182 140 264 240 c 2
 522 551 l 1
 264 881 l 2
 207 953 149 989 88 989 c 2
 61 989 l 1
 61 1098 l 1
 705 1098 l 1
 705 989 l 1
 698 989 l 2
 604 989 582 963 582 930 c 0
 582 901 596 877 629 836 c 2
 743 696 l 1
 840 813 l 2
 873 854 891 891 891 928 c 0
 891 977 849 989 786 989 c 2
 780 989 l 1
 780 1098 l 1
 1253 1098 l 1
 1253 989 l 1
 1235 989 l 2
 1155 989 1116 964 1028 858 c 2
 817 600 l 1
 1118 217 l 2
 1179 139 1231 109 1282 109 c 2
 1309 109 l 1
 1309 0 l 1
 657 0 l 1
 657 109 l 1
 668 109 l 2
 750 109 791 131 791 176 c 0
 791 207 781 235 713 317 c 2
 596 459 l 1
 453 281 l 2
 428 248 410 213 410 178 c 0
 410 133 447 109 537 109 c 2
 543 109 l 1
 543 0 l 1
 23 0 l 1
EndSplineSet
Substitution2: "'smcp' Lowercase to Small Capitals lookup 38 subtable" x.sc
Substitution2: "'sinf' Scientific Inferiors lookup 23 subtable" uni2093
Substitution2: "'subs' Subscript lookup 22 subtable" uni2093
AlternateSubs2: "'aalt' Access All Alternates lookup 1 subtable" uni2093 x.sc
EndChar

StartChar: y
Encoding: 121 121 92
Width: 1185
GlyphClass: 2
Flags: HW
AnchorPoint: "Anchor-3" 592 303 basechar 0
AnchorPoint: "Anchor-2" 1186 1098 basechar 0
AnchorPoint: "Anchor-1" 307 -492 basechar 0
AnchorPoint: "Anchor-0" 655 1098 basechar 0
LayerCount: 2
Fore
SplineSet
55 -373 m 1
 340 -373 442 -227 508 -10 c 1
 139 891 l 2
 108 963 65 975 8 977 c 2
 0 977 l 1
 0 1098 l 1
 584 1098 l 1
 584 989 l 1
 578 989 l 2
 502 989 455 970 455 913 c 0
 455 890 467 854 475 834 c 2
 616 459 l 2
 655 355 668 297 674 242 c 1
 678 299 711 386 719 406 c 2
 854 807 l 2
 864 834 874 882 874 907 c 0
 874 966 823 987 733 989 c 2
 725 989 l 1
 725 1098 l 1
 1186 1098 l 1
 1186 989 l 1
 1178 989 l 2
 1102 987 1063 951 1022 840 c 2
 713 0 l 2
 570 -397 493 -492 90 -492 c 2
 55 -492 l 1
 55 -373 l 1
EndSplineSet
Substitution2: "'smcp' Lowercase to Small Capitals lookup 38 subtable" y.sc
Substitution2: "'aalt' Access All Alternates lookup 0 subtable" y.sc
EndChar

StartChar: z
Encoding: 122 122 93
Width: 1083
GlyphClass: 2
Flags: HW
AnchorPoint: "Anchor-3" 528 549 basechar 0
AnchorPoint: "Anchor-2" 1042 1098 basechar 0
AnchorPoint: "Anchor-1" 543 0 basechar 0
AnchorPoint: "Anchor-0" 543 1098 basechar 0
LayerCount: 2
Fore
SplineSet
37 0 m 1
 37 84 l 1
 641 958 l 1
 342 958 l 2
 281 958 254 926 225 815 c 2
 213 766 l 1
 90 766 l 1
 115 1098 l 1
 999 1098 l 1
 999 1010 l 1
 393 139 l 1
 754 139 l 2
 836 139 866 186 889 305 c 2
 901 371 l 1
 1022 371 l 1
 1012 0 l 1
 37 0 l 1
EndSplineSet
Substitution2: "'smcp' Lowercase to Small Capitals lookup 38 subtable" z.sc
Substitution2: "'aalt' Access All Alternates lookup 0 subtable" z.sc
EndChar

StartChar: braceleft
Encoding: 123 123 94
Width: 905
GlyphClass: 1
Flags: HW
LayerCount: 2
Fore
SplineSet
649 -256 m 2
 420 -256 299 -139 299 47 c 2
 299 397 l 2
 299 553 194 584 61 590 c 1
 61 715 l 1
 194 719 299 751 299 905 c 2
 299 1257 l 2
 299 1447 420 1556 649 1556 c 2
 844 1556 l 1
 844 1448 l 1
 764 1448 l 2
 647 1448 618 1378 618 1249 c 2
 618 901 l 2
 618 778 551 699 393 662 c 1
 393 645 l 1
 549 606 618 526 618 403 c 2
 618 53 l 2
 618 -76 647 -147 764 -147 c 2
 844 -147 l 1
 844 -256 l 1
 649 -256 l 2
EndSplineSet
Substitution2: "'smcp' Lowercase to Small Capitals lookup 38 subtable" braceleft.sc
Substitution2: "'c2sc' Capitals to Small Capitals lookup 37 subtable" braceleft.sc
Substitution2: "'aalt' Access All Alternates lookup 0 subtable" braceleft.sc
EndChar

StartChar: bar
Encoding: 124 124 95
Width: 1144
GlyphClass: 1
Flags: HW
LayerCount: 2
Fore
SplineSet
498 -492 m 1
 498 1556 l 1
 645 1556 l 1
 645 -492 l 1
 498 -492 l 1
EndSplineSet
EndChar

StartChar: braceright
Encoding: 125 125 96
Width: 905
GlyphClass: 1
Flags: HW
LayerCount: 2
Fore
SplineSet
61 -256 m 1
 61 -147 l 1
 141 -147 l 2
 258 -147 287 -76 287 53 c 2
 287 403 l 2
 287 526 356 606 512 645 c 1
 512 662 l 1
 354 699 287 778 287 901 c 2
 287 1249 l 2
 287 1378 258 1448 141 1448 c 2
 61 1448 l 1
 61 1556 l 1
 256 1556 l 2
 485 1556 606 1447 606 1257 c 2
 606 905 l 2
 606 751 711 719 844 715 c 1
 844 590 l 1
 711 584 606 553 606 397 c 2
 606 47 l 2
 606 -139 485 -256 256 -256 c 2
 61 -256 l 1
EndSplineSet
Substitution2: "'smcp' Lowercase to Small Capitals lookup 38 subtable" braceright.sc
Substitution2: "'c2sc' Capitals to Small Capitals lookup 37 subtable" braceright.sc
Substitution2: "'aalt' Access All Alternates lookup 0 subtable" braceright.sc
EndChar

StartChar: asciitilde
Encoding: 126 126 97
Width: 1144
GlyphClass: 1
Flags: HW
LayerCount: 2
Fore
SplineSet
94 537 m 1
 94 736 156 924 365 924 c 0
 463 924 514 882 627 786 c 0
 711 714 739 686 780 686 c 0
 852 686 891 764 897 924 c 1
 1049 924 l 1
 1041 707 977 537 784 537 c 0
 696 537 630 572 524 670 c 0
 430 756 410 774 369 774 c 0
 287 774 246 703 244 537 c 1
 94 537 l 1
EndSplineSet
EndChar

StartChar: exclamdown
Encoding: 161 161 99
Width: 782
GlyphClass: 1
Flags: HW
LayerCount: 2
Fore
SplineSet
389 1110 m 0
 483 1110 557 1069 557 946 c 0
 557 821 483 782 389 782 c 0
 299 782 221 821 221 946 c 0
 221 1069 299 1110 389 1110 c 0
461 627 m 1
 569 -369 l 1
 213 -369 l 1
 319 627 l 1
 461 627 l 1
EndSplineSet
Substitution2: "'smcp' Lowercase to Small Capitals lookup 38 subtable" exclamdown.sc
Substitution2: "'c2sc' Capitals to Small Capitals lookup 37 subtable" exclamdown.sc
Substitution2: "'aalt' Access All Alternates lookup 0 subtable" exclamdown.sc
EndChar

StartChar: cent
Encoding: 162 162 100
Width: 1144
GlyphClass: 1
Flags: HW
LayerCount: 2
Fore
SplineSet
571 170 m 1
 297 190 117 344 117 733 c 0
 117 1141 309 1291 571 1311 c 1
 571 1462 l 1
 698 1462 l 1
 698 1311 l 1
 934 1299 1061 1209 1061 1098 c 0
 1061 1010 1010 924 797 924 c 1
 797 1041 772 1147 698 1178 c 1
 698 322 l 1
 835 326 944 395 991 487 c 1
 1026 467 1042 430 1042 393 c 0
 1042 299 936 186 698 170 c 1
 698 0 l 1
 571 0 l 1
 571 170 l 1
571 1174 m 1
 483 1135 430 1011 430 735 c 0
 430 526 473 395 571 346 c 1
 571 1174 l 1
EndSplineSet
EndChar

StartChar: sterling
Encoding: 163 163 101
Width: 1144
GlyphClass: 1
Flags: HW
LayerCount: 2
Fore
SplineSet
848 -20 m 0
 764 -20 665 2 604 25 c 0
 536 48 456 70 401 70 c 0
 307 70 242 45 168 8 c 2
 78 -39 l 1
 78 145 l 1
 143 186 l 2
 227 237 330 334 330 500 c 0
 330 578 312 639 285 709 c 1
 49 709 l 1
 49 834 l 1
 240 834 l 1
 211 902 174 1008 174 1112 c 0
 174 1350 336 1483 629 1483 c 0
 922 1483 1034 1378 1034 1245 c 0
 1034 1149 946 1079 778 1079 c 1
 778 1204 747 1358 614 1358 c 0
 512 1358 446 1280 446 1120 c 0
 446 1007 483 902 514 834 c 1
 877 834 l 1
 877 709 l 1
 553 711 l 1
 571 650 584 613 584 543 c 0
 584 434 522 342 399 262 c 1
 406 252 l 1
 422 258 477 270 526 270 c 0
 581 270 621 256 707 229 c 0
 766 211 811 199 870 199 c 0
 962 199 1032 260 1085 350 c 1
 1085 121 l 1
 1032 27 957 -20 848 -20 c 0
EndSplineSet
EndChar

StartChar: currency
Encoding: 164 164 102
Width: 1144
GlyphClass: 1
Flags: HW
LayerCount: 2
Fore
SplineSet
240 299 m 1
 135 403 l 1
 254 522 l 1
 215 581 195 651 195 729 c 0
 195 807 217 883 260 942 c 1
 137 1065 l 1
 240 1167 l 1
 362 1044 l 1
 421 1083 491 1106 569 1106 c 0
 645 1106 717 1083 776 1042 c 1
 903 1169 l 1
 1006 1065 l 1
 881 938 l 1
 922 879 946 807 946 729 c 0
 946 651 924 581 885 522 c 1
 1006 401 l 1
 903 299 l 1
 782 420 l 1
 721 379 647 354 569 354 c 0
 491 354 417 377 358 418 c 1
 240 299 l 1
569 492 m 0
 704 492 805 598 805 729 c 0
 805 864 704 969 569 969 c 0
 438 969 334 864 334 729 c 0
 334 598 438 492 569 492 c 0
EndSplineSet
EndChar

StartChar: yen
Encoding: 165 165 103
Width: 1144
GlyphClass: 1
Flags: HW
LayerCount: 2
Fore
SplineSet
215 0 m 1
 215 109 l 1
 262 109 l 2
 352 109 426 104 430 225 c 2
 430 338 l 1
 143 338 l 1
 143 459 l 1
 430 459 l 1
 430 578 l 1
 143 578 l 1
 143 698 l 1
 395 698 l 1
 154 1245 l 2
 117 1327 90 1354 20 1354 c 2
 14 1354 l 1
 14 1462 l 1
 600 1462 l 1
 600 1354 l 1
 586 1354 l 2
 504 1354 469 1329 469 1274 c 0
 469 1241 482 1202 502 1153 c 2
 580 958 l 2
 615 872 641 786 651 731 c 1
 659 768 682 824 705 881 c 2
 791 1106 l 2
 826 1198 831 1237 831 1272 c 0
 831 1327 797 1354 707 1354 c 2
 700 1354 l 1
 700 1462 l 1
 1126 1462 l 1
 1126 1354 l 1
 1120 1354 l 2
 1050 1354 1020 1323 965 1194 c 2
 754 698 l 1
 1022 698 l 1
 1022 578 l 1
 735 578 l 1
 735 459 l 1
 1022 459 l 1
 1022 338 l 1
 735 338 l 1
 735 236 l 2
 735 107 811 109 903 109 c 2
 950 109 l 1
 950 0 l 1
 215 0 l 1
EndSplineSet
EndChar

StartChar: brokenbar
Encoding: 166 166 104
Width: 1144
GlyphClass: 1
Flags: HW
LayerCount: 2
Fore
SplineSet
498 737 m 1
 498 1556 l 1
 645 1556 l 1
 645 737 l 1
 498 737 l 1
498 -492 m 1
 498 328 l 1
 645 328 l 1
 645 -492 l 1
 498 -492 l 1
EndSplineSet
EndChar

StartChar: section
Encoding: 167 167 105
Width: 1114
GlyphClass: 1
Flags: HW
LayerCount: 2
Fore
SplineSet
565 -231 m 0
 258 -231 168 -94 168 31 c 0
 168 137 244 193 350 193 c 1
 350 13 432 -121 592 -121 c 0
 723 -121 801 -43 801 78 c 0
 801 191 752 237 449 387 c 0
 222 500 133 610 133 772 c 0
 133 864 188 942 266 983 c 1
 219 1032 178 1116 178 1227 c 0
 178 1436 349 1556 582 1556 c 0
 824 1556 948 1458 948 1323 c 0
 948 1239 879 1176 754 1176 c 1
 754 1297 716 1444 573 1444 c 0
 458 1444 383 1374 383 1251 c 0
 383 1120 473 1084 627 1010 c 0
 916 873 1036 774 1036 598 c 0
 1036 500 977 401 905 356 c 1
 950 299 977 217 977 137 c 0
 977 -80 837 -231 565 -231 c 0
809 438 m 1
 823 458 836 489 836 526 c 0
 836 618 787 690 586 788 c 0
 496 831 414 870 348 915 c 1
 328 892 315 860 315 825 c 0
 315 712 385 659 604 553 c 0
 692 508 756 475 809 438 c 1
EndSplineSet
EndChar

StartChar: dieresis
Encoding: 168 168 106
Width: 1181
GlyphClass: 1
Flags: HW
LayerCount: 2
Fore
SplineSet
801 1282 m 0
 735 1282 678 1317 678 1409 c 0
 678 1503 735 1536 801 1536 c 0
 862 1536 922 1503 922 1409 c 0
 922 1317 862 1282 801 1282 c 0
379 1282 m 0
 316 1282 258 1317 258 1409 c 0
 258 1503 316 1536 379 1536 c 0
 442 1536 502 1503 502 1409 c 0
 502 1317 442 1282 379 1282 c 0
EndSplineSet
EndChar

StartChar: copyright
Encoding: 169 169 107
Width: 1730
GlyphClass: 1
Flags: HW
LayerCount: 2
Fore
SplineSet
864 -20 m 0
 428 -20 113 274 113 733 c 0
 113 1188 426 1485 864 1485 c 0
 1302 1485 1618 1190 1618 731 c 0
 1618 274 1302 -20 864 -20 c 0
866 102 m 0
 1237 102 1481 350 1481 733 c 0
 1481 1118 1231 1362 866 1362 c 0
 501 1362 250 1120 250 731 c 0
 250 336 508 102 866 102 c 0
877 254 m 0
 590 254 444 444 444 733 c 0
 444 1014 604 1208 905 1208 c 0
 1100 1208 1194 1134 1194 1040 c 0
 1194 979 1131 942 1051 942 c 1
 1051 1018 1012 1104 901 1104 c 0
 706 1104 633 971 633 733 c 0
 633 495 729 360 903 360 c 0
 1032 360 1124 430 1161 498 c 1
 1184 486 1198 461 1198 432 c 0
 1198 350 1090 254 877 254 c 0
EndSplineSet
EndChar

StartChar: ordfeminine
Encoding: 170 170 108
Width: 860
GlyphClass: 2
Flags: HW
AnchorPoint: "Anchor-3" 438 1124 basechar 0
AnchorPoint: "Anchor-1" 393 791 basechar 0
AnchorPoint: "Anchor-0" 406 1473 basechar 0
LayerCount: 2
Fore
SplineSet
283 778 m 0
 146 778 59 850 59 987 c 0
 59 1122 175 1184 406 1194 c 2
 498 1198 l 1
 498 1253 l 2
 498 1331 488 1384 416 1384 c 0
 350 1384 338 1329 338 1257 c 1
 197 1257 115 1283 115 1346 c 0
 115 1438 252 1473 420 1473 c 0
 627 1473 729 1416 729 1260 c 2
 729 958 l 2
 729 899 751 881 817 881 c 1
 817 791 l 1
 578 791 l 1
 528 891 l 1
 514 891 l 1
 465 832 394 778 283 778 c 0
373 893 m 0
 457 893 498 952 498 1034 c 2
 498 1118 l 1
 451 1116 l 2
 338 1112 295 1069 295 991 c 0
 295 919 330 893 373 893 c 0
EndSplineSet
EndChar

StartChar: guillemotleft
Encoding: 171 171 109
Width: 1134
GlyphClass: 1
Flags: HW
LayerCount: 2
Fore
SplineSet
858 143 m 1
 545 500 l 1
 545 606 l 1
 858 963 l 1
 1001 963 l 1
 795 553 l 1
 1001 143 l 1
 858 143 l 1
446 143 m 1
 133 500 l 1
 133 606 l 1
 446 963 l 1
 590 963 l 1
 383 553 l 1
 590 143 l 1
 446 143 l 1
EndSplineSet
EndChar

StartChar: logicalnot
Encoding: 172 172 110
Width: 1144
GlyphClass: 1
Flags: HW
LayerCount: 2
Fore
SplineSet
864 293 m 1
 864 659 l 1
 133 659 l 1
 133 805 l 1
 1012 805 l 1
 1012 293 l 1
 864 293 l 1
EndSplineSet
EndChar

StartChar: uni00AD
Encoding: 173 173 111
Width: 634
GlyphClass: 1
Flags: HW
LayerCount: 2
Fore
SplineSet
51 451 m 1
 51 666 l 1
 584 666 l 1
 584 451 l 1
 51 451 l 1
EndSplineSet
EndChar

StartChar: registered
Encoding: 174 174 112
Width: 1730
GlyphClass: 1
Flags: HW
LayerCount: 2
Fore
SplineSet
864 -20 m 0
 428 -20 113 274 113 733 c 0
 113 1188 426 1485 864 1485 c 0
 1302 1485 1618 1190 1618 731 c 0
 1618 274 1302 -20 864 -20 c 0
866 102 m 0
 1237 102 1481 350 1481 733 c 0
 1481 1118 1231 1362 866 1362 c 0
 501 1362 250 1120 250 731 c 0
 250 336 508 102 866 102 c 0
475 289 m 1
 475 358 l 1
 502 358 l 2
 555 358 602 367 602 430 c 2
 602 1030 l 2
 602 1093 555 1102 502 1102 c 2
 475 1102 l 1
 475 1186 l 1
 850 1186 l 2
 1092 1186 1210 1100 1210 930 c 0
 1210 795 1114 729 1016 696 c 1
 1198 412 l 2
 1223 367 1242 358 1303 358 c 1
 1303 289 l 1
 1087 289 l 1
 862 664 l 1
 762 664 l 1
 762 430 l 2
 762 367 809 358 862 358 c 2
 891 358 l 1
 891 289 l 1
 475 289 l 1
848 754 m 2
 995 754 1040 809 1040 928 c 0
 1040 1045 985 1090 842 1090 c 2
 762 1090 l 1
 762 754 l 1
 848 754 l 2
EndSplineSet
EndChar

StartChar: overscore
Encoding: 175 175 113
Width: 940
GlyphClass: 1
Flags: HW
LayerCount: 2
Fore
SplineSet
-10 1556 m 1
 -10 1677 l 1
 950 1677 l 1
 950 1556 l 1
 -10 1556 l 1
EndSplineSet
Substitution2: "'smcp' Lowercase to Small Capitals lookup 38 subtable" macron.sc
Substitution2: "'c2sc' Capitals to Small Capitals lookup 37 subtable" macron.sc
Substitution2: "'aalt' Access All Alternates lookup 0 subtable" macron.sc
EndChar

StartChar: degree
Encoding: 176 176 114
Width: 819
GlyphClass: 1
Flags: HW
LayerCount: 2
Fore
SplineSet
408 866 m 0
 220 866 88 994 88 1176 c 0
 88 1358 220 1487 408 1487 c 0
 596 1487 729 1358 729 1176 c 0
 729 994 596 866 408 866 c 0
410 1006 m 0
 512 1006 573 1074 573 1178 c 0
 573 1282 510 1348 410 1348 c 0
 308 1348 244 1282 244 1178 c 0
 244 1074 306 1006 410 1006 c 0
EndSplineSet
EndChar

StartChar: plusminus
Encoding: 177 177 115
Width: 1144
GlyphClass: 1
Flags: HW
LayerCount: 2
Fore
SplineSet
498 293 m 1
 498 659 l 1
 133 659 l 1
 133 805 l 1
 498 805 l 1
 498 1171 l 1
 645 1171 l 1
 645 805 l 1
 1012 805 l 1
 1012 659 l 1
 645 659 l 1
 645 293 l 1
 498 293 l 1
133 0 m 1
 133 145 l 1
 1012 145 l 1
 1012 0 l 1
 133 0 l 1
EndSplineSet
EndChar

StartChar: uni00B2
Encoding: 178 178 116
Width: 819
GlyphClass: 1
Flags: HW
LayerCount: 2
Fore
SplineSet
76 793 m 1
 76 940 l 1
 301 1128 l 2
 442 1247 479 1345 479 1458 c 0
 479 1546 453 1597 383 1597 c 0
 289 1597 276 1489 276 1395 c 1
 186 1395 92 1430 92 1518 c 0
 92 1616 195 1690 383 1690 c 0
 604 1690 698 1603 698 1470 c 0
 698 1349 641 1269 403 1083 c 2
 236 952 l 1
 563 952 l 2
 620 952 641 981 649 1020 c 2
 659 1075 l 1
 735 1075 l 1
 727 793 l 1
 76 793 l 1
EndSplineSet
EndChar

StartChar: uni00B3
Encoding: 179 179 117
Width: 819
GlyphClass: 1
Flags: HW
LayerCount: 2
Fore
SplineSet
338 778 m 0
 160 778 63 846 63 946 c 0
 63 999 96 1047 178 1047 c 1
 178 955 240 883 340 883 c 0
 444 883 520 932 520 1051 c 0
 520 1143 467 1200 317 1200 c 2
 250 1200 l 1
 250 1296 l 1
 317 1296 l 2
 419 1296 479 1360 479 1464 c 0
 479 1548 453 1595 383 1595 c 0
 297 1595 272 1511 272 1417 c 1
 161 1417 94 1433 94 1505 c 0
 94 1605 197 1688 387 1688 c 0
 575 1688 698 1612 698 1485 c 0
 698 1366 639 1297 510 1264 c 1
 510 1253 l 1
 651 1233 733 1164 733 1047 c 0
 733 846 506 778 338 778 c 0
EndSplineSet
EndChar

StartChar: acute
Encoding: 180 180 118
Width: 684
GlyphClass: 1
Flags: HW
LayerCount: 2
Fore
SplineSet
82 1268 m 1
 141 1346 238 1477 281 1569 c 1
 602 1569 l 1
 602 1548 l 1
 551 1476 350 1315 221 1241 c 1
 82 1241 l 1
 82 1268 l 1
EndSplineSet
EndChar

StartChar: uni00B5
Encoding: 181 181 119
Width: 1361
GlyphClass: 1
Flags: HW
LayerCount: 2
Fore
SplineSet
358 -492 m 0
 256 -492 166 -424 166 -223 c 0
 166 -59 186 119 190 461 c 2
 190 1098 l 1
 502 1098 l 1
 502 422 l 2
 502 275 536 154 657 154 c 0
 772 154 844 281 844 471 c 2
 844 1098 l 1
 1155 1098 l 1
 1155 283 l 2
 1155 158 1200 109 1294 109 c 2
 1309 109 l 1
 1309 0 l 1
 1130 0 l 2
 991 0 899 72 864 178 c 1
 854 178 l 1
 791 57 716 -20 573 -20 c 0
 460 -20 381 24 328 100 c 1
 328 -127 354 -288 547 -313 c 1
 547 -415 475 -492 358 -492 c 0
EndSplineSet
EndChar

StartChar: paragraph
Encoding: 182 182 120
Width: 1284
GlyphClass: 1
Flags: HW
LayerCount: 2
Fore
SplineSet
346 -227 m 1
 346 -119 l 1
 373 -119 l 2
 465 -119 541 -102 541 27 c 2
 541 791 l 1
 395 791 l 2
 155 791 82 979 82 1192 c 0
 82 1411 168 1556 399 1556 c 2
 1202 1556 l 1
 1202 1448 l 1
 1176 1448 l 2
 1084 1448 1008 1429 1008 1300 c 2
 1008 27 l 2
 1008 -102 1084 -119 1176 -119 c 2
 1202 -119 l 1
 1202 -227 l 1
 860 -227 l 1
 860 1430 l 1
 688 1430 l 1
 688 -227 l 1
 346 -227 l 1
EndSplineSet
EndChar

StartChar: periodcentered
Encoding: 183 183 121
Width: 602
GlyphClass: 1
Flags: HW
LayerCount: 2
Fore
SplineSet
301 563 m 0
 207 563 133 604 133 727 c 0
 133 852 207 891 301 891 c 0
 391 891 469 852 469 727 c 0
 469 604 391 563 301 563 c 0
EndSplineSet
EndChar

StartChar: cedilla
Encoding: 184 184 122
Width: 681
GlyphClass: 1
Flags: HW
LayerCount: 2
Fore
SplineSet
281 -492 m 0
 238 -492 151 -483 102 -469 c 1
 102 -344 l 1
 151 -354 205 -360 242 -360 c 0
 320 -360 367 -336 367 -266 c 0
 367 -186 301 -168 213 -162 c 1
 256 18 l 1
 373 18 l 1
 352 -70 l 1
 485 -80 571 -149 571 -258 c 0
 571 -403 455 -492 281 -492 c 0
EndSplineSet
EndChar

StartChar: uni00B9
Encoding: 185 185 123
Width: 819
GlyphClass: 1
Flags: HW
LayerCount: 2
Fore
SplineSet
129 793 m 1
 129 883 l 1
 233 883 l 2
 284 883 326 891 326 961 c 2
 326 1542 l 1
 263 1466 215 1415 166 1415 c 0
 127 1415 96 1461 96 1516 c 1
 145 1528 203 1551 285 1610 c 2
 377 1677 l 1
 528 1677 l 1
 528 961 l 2
 528 891 572 883 623 883 c 2
 707 883 l 1
 707 793 l 1
 129 793 l 1
EndSplineSet
EndChar

StartChar: ordmasculine
Encoding: 186 186 124
Width: 894
GlyphClass: 2
Flags: HW
AnchorPoint: "Anchor-3" 446 1124 basechar 0
AnchorPoint: "Anchor-1" 440 784 basechar 0
AnchorPoint: "Anchor-0" 444 1473 basechar 0
LayerCount: 2
Fore
SplineSet
446 778 m 0
 208 778 72 893 72 1126 c 0
 72 1359 201 1473 451 1473 c 0
 680 1473 823 1359 823 1126 c 0
 823 893 692 778 446 778 c 0
449 881 m 0
 549 881 586 964 586 1126 c 0
 586 1286 546 1366 446 1366 c 0
 346 1366 311 1286 311 1126 c 0
 311 964 347 881 449 881 c 0
EndSplineSet
EndChar

StartChar: guillemotright
Encoding: 187 187 125
Width: 1134
GlyphClass: 1
Flags: HW
LayerCount: 2
Fore
SplineSet
545 143 m 1
 752 553 l 1
 545 963 l 1
 688 963 l 1
 1001 606 l 1
 1001 500 l 1
 688 143 l 1
 545 143 l 1
133 143 m 1
 340 553 l 1
 133 963 l 1
 276 963 l 1
 590 606 l 1
 590 500 l 1
 276 143 l 1
 133 143 l 1
EndSplineSet
EndChar

StartChar: onequarter
Encoding: 188 188 126
Width: 1720
GlyphClass: 1
Flags: HW
LayerCount: 2
Fore
SplineSet
43 588 m 1
 43 678 l 1
 147 678 l 2
 198 678 240 686 240 756 c 2
 240 1337 l 1
 177 1261 129 1210 80 1210 c 0
 41 1210 10 1256 10 1311 c 1
 59 1323 117 1346 199 1405 c 2
 291 1473 l 1
 442 1473 l 1
 442 756 l 2
 442 686 486 678 537 678 c 2
 621 678 l 1
 621 588 l 1
 43 588 l 1
418 0 m 1
 1149 1462 l 1
 1307 1462 l 1
 578 0 l 1
 418 0 l 1
1178 0 m 1
 1178 90 l 1
 1235 90 l 2
 1280 90 1319 98 1319 168 c 2
 1319 240 l 1
 930 240 l 1
 930 322 l 1
 1337 885 l 1
 1522 885 l 1
 1522 348 l 1
 1681 348 l 1
 1681 240 l 1
 1522 240 l 1
 1522 168 l 2
 1522 98 1563 90 1608 90 c 2
 1649 90 l 1
 1649 0 l 1
 1178 0 l 1
1065 348 m 1
 1319 348 l 1
 1319 594 l 2
 1319 637 1323 676 1329 727 c 1
 1319 704 1304 680 1298 670 c 2
 1065 348 l 1
EndSplineSet
EndChar

StartChar: onehalf
Encoding: 189 189 127
Width: 1720
GlyphClass: 1
Flags: HW
LayerCount: 2
Fore
SplineSet
43 588 m 1
 43 678 l 1
 147 678 l 2
 198 678 240 686 240 756 c 2
 240 1337 l 1
 177 1261 129 1210 80 1210 c 0
 41 1210 10 1256 10 1311 c 1
 59 1323 117 1346 199 1405 c 2
 291 1473 l 1
 442 1473 l 1
 442 756 l 2
 442 686 486 678 537 678 c 2
 621 678 l 1
 621 588 l 1
 43 588 l 1
377 0 m 1
 1108 1462 l 1
 1266 1462 l 1
 537 0 l 1
 377 0 l 1
1006 0 m 1
 1006 147 l 1
 1231 336 l 2
 1372 455 1409 553 1409 666 c 0
 1409 754 1383 805 1313 805 c 0
 1219 805 1206 696 1206 602 c 1
 1116 602 1022 637 1022 725 c 0
 1022 823 1125 897 1313 897 c 0
 1534 897 1628 811 1628 678 c 0
 1628 557 1571 477 1333 291 c 2
 1165 160 l 1
 1493 160 l 2
 1550 160 1571 188 1579 227 c 2
 1589 283 l 1
 1665 283 l 1
 1657 0 l 1
 1006 0 l 1
EndSplineSet
EndChar

StartChar: threequarters
Encoding: 190 190 128
Width: 1720
GlyphClass: 1
Flags: HW
LayerCount: 2
Fore
SplineSet
338 573 m 0
 160 573 63 641 63 741 c 0
 63 794 96 842 178 842 c 1
 178 750 240 678 340 678 c 0
 444 678 520 727 520 846 c 0
 520 938 467 995 317 995 c 2
 250 995 l 1
 250 1092 l 1
 317 1092 l 2
 419 1092 479 1156 479 1260 c 0
 479 1344 453 1391 383 1391 c 0
 297 1391 272 1306 272 1212 c 1
 161 1212 94 1228 94 1300 c 0
 94 1400 197 1483 387 1483 c 0
 575 1483 698 1407 698 1280 c 0
 698 1161 639 1092 510 1059 c 1
 510 1049 l 1
 651 1029 733 959 733 842 c 0
 733 641 506 573 338 573 c 0
459 0 m 1
 1190 1462 l 1
 1348 1462 l 1
 618 0 l 1
 459 0 l 1
1178 0 m 1
 1178 90 l 1
 1235 90 l 2
 1280 90 1319 98 1319 168 c 2
 1319 240 l 1
 930 240 l 1
 930 322 l 1
 1337 885 l 1
 1522 885 l 1
 1522 348 l 1
 1681 348 l 1
 1681 240 l 1
 1522 240 l 1
 1522 168 l 2
 1522 98 1563 90 1608 90 c 2
 1649 90 l 1
 1649 0 l 1
 1178 0 l 1
1065 348 m 1
 1319 348 l 1
 1319 594 l 2
 1319 637 1323 676 1329 727 c 1
 1319 704 1304 680 1298 670 c 2
 1065 348 l 1
EndSplineSet
EndChar

StartChar: questiondown
Encoding: 191 191 129
Width: 1126
GlyphClass: 1
Flags: HW
LayerCount: 2
Fore
SplineSet
627 1106 m 0
 721 1106 795 1065 795 942 c 0
 795 817 721 778 627 778 c 0
 537 778 459 817 459 942 c 0
 459 1065 537 1106 627 1106 c 0
727 371 m 1
 494 277 438 113 438 -49 c 0
 438 -180 485 -270 598 -270 c 0
 721 -270 762 -151 762 -12 c 1
 930 -12 1051 -60 1051 -156 c 0
 1051 -289 915 -393 614 -393 c 0
 325 -393 113 -254 113 -16 c 0
 113 203 248 323 520 436 c 1
 547 623 l 1
 700 623 l 1
 727 371 l 1
EndSplineSet
Substitution2: "'smcp' Lowercase to Small Capitals lookup 38 subtable" questiondown.sc
Substitution2: "'c2sc' Capitals to Small Capitals lookup 37 subtable" questiondown.sc
Substitution2: "'aalt' Access All Alternates lookup 0 subtable" questiondown.sc
EndChar

StartChar: Agrave
Encoding: 192 192 130
Width: 1542
GlyphClass: 2
Flags: HW
AnchorPoint: "Anchor-3" 774 731 basechar 0
AnchorPoint: "Anchor-2" 1235 1462 basechar 0
AnchorPoint: "Anchor-1" 772 0 basechar 0
AnchorPoint: "Anchor-0" 772 1907 basechar 0
LayerCount: 2
Fore
SplineSet
758 1579 m 1
 629 1653 428 1814 377 1886 c 1
 377 1907 l 1
 698 1907 l 1
 741 1815 838 1684 897 1606 c 1
 897 1579 l 1
 758 1579 l 1
8 0 m 1
 8 109 l 1
 33 109 l 2
 107 109 152 135 197 258 c 2
 641 1462 l 1
 922 1462 l 1
 1350 256 l 2
 1391 141 1439 109 1505 109 c 2
 1542 109 l 1
 1542 0 l 1
 866 0 l 1
 866 109 l 1
 946 109 l 2
 987 109 1034 131 1034 188 c 0
 1034 221 1024 253 1016 276 c 2
 944 481 l 1
 446 481 l 1
 387 305 l 2
 377 272 362 221 362 188 c 0
 362 135 408 109 455 109 c 2
 541 109 l 1
 541 0 l 1
 8 0 l 1
489 606 m 1
 903 606 l 1
 795 942 l 2
 766 1034 730 1159 707 1255 c 1
 682 1167 643 1046 610 952 c 2
 489 606 l 1
EndSplineSet
Substitution2: "'c2sc' Capitals to Small Capitals lookup 37 subtable" agrave.sc
Substitution2: "'aalt' Access All Alternates lookup 0 subtable" agrave.sc
EndChar

StartChar: Aacute
Encoding: 193 193 131
Width: 1542
GlyphClass: 2
Flags: HW
AnchorPoint: "Anchor-3" 774 731 basechar 0
AnchorPoint: "Anchor-2" 1235 1462 basechar 0
AnchorPoint: "Anchor-1" 772 0 basechar 0
AnchorPoint: "Anchor-0" 772 1907 basechar 0
LayerCount: 2
Fore
SplineSet
641 1606 m 1
 700 1684 797 1815 840 1907 c 1
 1161 1907 l 1
 1161 1886 l 1
 1110 1814 909 1653 780 1579 c 1
 641 1579 l 1
 641 1606 l 1
8 0 m 1
 8 109 l 1
 33 109 l 2
 107 109 152 135 197 258 c 2
 641 1462 l 1
 922 1462 l 1
 1350 256 l 2
 1391 141 1439 109 1505 109 c 2
 1542 109 l 1
 1542 0 l 1
 866 0 l 1
 866 109 l 1
 946 109 l 2
 987 109 1034 131 1034 188 c 0
 1034 221 1024 253 1016 276 c 2
 944 481 l 1
 446 481 l 1
 387 305 l 2
 377 272 362 221 362 188 c 0
 362 135 408 109 455 109 c 2
 541 109 l 1
 541 0 l 1
 8 0 l 1
489 606 m 1
 903 606 l 1
 795 942 l 2
 766 1034 730 1159 707 1255 c 1
 682 1167 643 1046 610 952 c 2
 489 606 l 1
EndSplineSet
Substitution2: "'c2sc' Capitals to Small Capitals lookup 37 subtable" aacute.sc
Substitution2: "'aalt' Access All Alternates lookup 0 subtable" aacute.sc
EndChar

StartChar: Acircumflex
Encoding: 194 194 132
Width: 1542
GlyphClass: 2
Flags: HW
AnchorPoint: "Anchor-3" 774 731 basechar 0
AnchorPoint: "Anchor-2" 1235 1462 basechar 0
AnchorPoint: "Anchor-1" 772 0 basechar 0
AnchorPoint: "Anchor-0" 772 1907 basechar 0
LayerCount: 2
Fore
SplineSet
416 1606 m 1
 479 1684 598 1815 641 1907 c 1
 918 1907 l 1
 961 1815 1080 1684 1143 1606 c 1
 1143 1579 l 1
 1001 1579 l 1
 944 1624 839 1708 778 1763 c 1
 717 1708 614 1624 557 1579 c 1
 416 1579 l 1
 416 1606 l 1
8 0 m 1
 8 109 l 1
 33 109 l 2
 107 109 152 135 197 258 c 2
 641 1462 l 1
 922 1462 l 1
 1350 256 l 2
 1391 141 1439 109 1505 109 c 2
 1542 109 l 1
 1542 0 l 1
 866 0 l 1
 866 109 l 1
 946 109 l 2
 987 109 1034 131 1034 188 c 0
 1034 221 1024 253 1016 276 c 2
 944 481 l 1
 446 481 l 1
 387 305 l 2
 377 272 362 221 362 188 c 0
 362 135 408 109 455 109 c 2
 541 109 l 1
 541 0 l 1
 8 0 l 1
489 606 m 1
 903 606 l 1
 795 942 l 2
 766 1034 730 1159 707 1255 c 1
 682 1167 643 1046 610 952 c 2
 489 606 l 1
EndSplineSet
Substitution2: "'c2sc' Capitals to Small Capitals lookup 37 subtable" acircumflex.sc
Substitution2: "'aalt' Access All Alternates lookup 0 subtable" acircumflex.sc
EndChar

StartChar: Atilde
Encoding: 195 195 133
Width: 1542
GlyphClass: 2
Flags: HW
AnchorPoint: "Anchor-3" 774 731 basechar 0
AnchorPoint: "Anchor-2" 1235 1462 basechar 0
AnchorPoint: "Anchor-1" 772 0 basechar 0
AnchorPoint: "Anchor-0" 772 1903 basechar 0
LayerCount: 2
Fore
SplineSet
920 1579 m 0
 773 1579 686 1708 598 1708 c 0
 537 1708 506 1654 498 1599 c 1
 365 1599 l 1
 373 1765 476 1903 623 1903 c 0
 768 1903 856 1774 942 1774 c 0
 1001 1774 1034 1827 1042 1882 c 1
 1176 1882 l 1
 1168 1716 1065 1579 920 1579 c 0
8 0 m 1
 8 109 l 1
 33 109 l 2
 107 109 152 135 197 258 c 2
 641 1462 l 1
 922 1462 l 1
 1350 256 l 2
 1391 141 1439 109 1505 109 c 2
 1542 109 l 1
 1542 0 l 1
 866 0 l 1
 866 109 l 1
 946 109 l 2
 987 109 1034 131 1034 188 c 0
 1034 221 1024 253 1016 276 c 2
 944 481 l 1
 446 481 l 1
 387 305 l 2
 377 272 362 221 362 188 c 0
 362 135 408 109 455 109 c 2
 541 109 l 1
 541 0 l 1
 8 0 l 1
489 606 m 1
 903 606 l 1
 795 942 l 2
 766 1034 730 1159 707 1255 c 1
 682 1167 643 1046 610 952 c 2
 489 606 l 1
EndSplineSet
Substitution2: "'c2sc' Capitals to Small Capitals lookup 37 subtable" atilde.sc
Substitution2: "'aalt' Access All Alternates lookup 0 subtable" atilde.sc
EndChar

StartChar: Adieresis
Encoding: 196 196 134
Width: 1542
GlyphClass: 2
Flags: HW
AnchorPoint: "Anchor-3" 774 731 basechar 0
AnchorPoint: "Anchor-2" 1235 1462 basechar 0
AnchorPoint: "Anchor-1" 772 0 basechar 0
AnchorPoint: "Anchor-0" 772 1874 basechar 0
LayerCount: 2
Fore
SplineSet
979 1620 m 0
 913 1620 856 1655 856 1747 c 0
 856 1841 913 1874 979 1874 c 0
 1040 1874 1100 1841 1100 1747 c 0
 1100 1655 1040 1620 979 1620 c 0
557 1620 m 0
 494 1620 436 1655 436 1747 c 0
 436 1841 494 1874 557 1874 c 0
 620 1874 680 1841 680 1747 c 0
 680 1655 620 1620 557 1620 c 0
8 0 m 1
 8 109 l 1
 33 109 l 2
 107 109 152 135 197 258 c 2
 641 1462 l 1
 922 1462 l 1
 1350 256 l 2
 1391 141 1439 109 1505 109 c 2
 1542 109 l 1
 1542 0 l 1
 866 0 l 1
 866 109 l 1
 946 109 l 2
 987 109 1034 131 1034 188 c 0
 1034 221 1024 253 1016 276 c 2
 944 481 l 1
 446 481 l 1
 387 305 l 2
 377 272 362 221 362 188 c 0
 362 135 408 109 455 109 c 2
 541 109 l 1
 541 0 l 1
 8 0 l 1
489 606 m 1
 903 606 l 1
 795 942 l 2
 766 1034 730 1159 707 1255 c 1
 682 1167 643 1046 610 952 c 2
 489 606 l 1
EndSplineSet
Substitution2: "'c2sc' Capitals to Small Capitals lookup 37 subtable" adieresis.sc
Substitution2: "'aalt' Access All Alternates lookup 0 subtable" adieresis.sc
EndChar

StartChar: Aring
Encoding: 197 197 135
Width: 1542
GlyphClass: 2
Flags: HW
AnchorPoint: "Anchor-3" 774 897 basechar 0
AnchorPoint: "Anchor-1" 772 0 basechar 0
AnchorPoint: "Anchor-0" 772 1796 basechar 0
LayerCount: 2
Fore
SplineSet
8 0 m 1
 8 109 l 1
 33 109 l 2
 107 109 152 135 197 258 c 2
 616 1397 l 1
 565 1434 532 1493 532 1573 c 0
 532 1718 641 1796 778 1796 c 0
 915 1796 1024 1718 1024 1573 c 0
 1024 1495 993 1436 944 1399 c 1
 1350 256 l 2
 1391 141 1439 109 1505 109 c 2
 1542 109 l 1
 1542 0 l 1
 866 0 l 1
 866 109 l 1
 946 109 l 2
 987 109 1034 131 1034 188 c 0
 1034 221 1024 253 1016 276 c 2
 944 481 l 1
 446 481 l 1
 387 305 l 2
 377 272 362 221 362 188 c 0
 362 135 408 109 455 109 c 2
 541 109 l 1
 541 0 l 1
 8 0 l 1
778 1462 m 0
 844 1462 899 1493 899 1573 c 0
 899 1653 844 1683 778 1683 c 0
 712 1683 657 1653 657 1573 c 0
 657 1497 706 1464 778 1462 c 0
489 606 m 1
 903 606 l 1
 795 942 l 2
 766 1034 730 1159 707 1255 c 1
 684 1169 643 1046 610 952 c 2
 489 606 l 1
EndSplineSet
Substitution2: "'c2sc' Capitals to Small Capitals lookup 37 subtable" aring.sc
Substitution2: "'aalt' Access All Alternates lookup 0 subtable" aring.sc
EndChar

StartChar: AE
Encoding: 198 198 136
Width: 2033
GlyphClass: 2
Flags: HW
AnchorPoint: "Anchor-3" 983 731 basechar 0
AnchorPoint: "Anchor-1" 1018 0 basechar 0
AnchorPoint: "Anchor-0" 1018 1462 basechar 0
LayerCount: 2
Fore
SplineSet
0 0 m 1
 0 109 l 1
 25 109 l 2
 97 109 148 157 207 268 c 2
 782 1343 l 1
 647 1354 l 1
 647 1462 l 1
 1890 1462 l 1
 1898 1085 l 1
 1755 1085 l 1
 1745 1182 l 2
 1735 1282 1698 1337 1614 1337 c 2
 1270 1337 l 1
 1270 825 l 1
 1755 825 l 1
 1755 702 l 1
 1270 702 l 1
 1270 125 l 1
 1679 125 l 2
 1761 125 1796 191 1810 281 c 2
 1827 377 l 1
 1968 377 l 1
 1954 0 l 1
 754 0 l 1
 754 109 l 1
 840 109 l 2
 916 109 944 159 944 231 c 2
 944 469 l 1
 473 469 l 1
 387 297 l 2
 364 254 354 213 354 188 c 0
 354 133 397 109 477 109 c 2
 512 109 l 1
 512 0 l 1
 0 0 l 1
539 592 m 1
 944 592 l 1
 944 1337 l 1
 924 1337 l 1
 539 592 l 1
EndSplineSet
Substitution2: "'c2sc' Capitals to Small Capitals lookup 37 subtable" ae.sc
Substitution2: "'aalt' Access All Alternates lookup 0 subtable" ae.sc
EndChar

StartChar: Ccedilla
Encoding: 199 199 137
Width: 1368
GlyphClass: 2
Flags: HW
AnchorPoint: "Anchor-3" 698 731 basechar 0
AnchorPoint: "Anchor-2" 1327 1462 basechar 0
AnchorPoint: "Anchor-1" 786 -492 basechar 0
AnchorPoint: "Anchor-0" 786 1462 basechar 0
LayerCount: 2
Fore
SplineSet
739 -492 m 0
 696 -492 610 -483 561 -469 c 1
 561 -344 l 1
 610 -354 663 -360 700 -360 c 0
 778 -360 825 -336 825 -266 c 0
 825 -186 760 -168 672 -162 c 1
 707 -14 l 1
 310 31 113 319 113 733 c 0
 113 1175 354 1483 819 1483 c 0
 1132 1483 1286 1378 1286 1245 c 0
 1286 1143 1196 1067 1030 1067 c 1
 1030 1202 975 1352 805 1352 c 0
 545 1352 457 1128 457 733 c 0
 457 338 567 143 870 143 c 0
 1069 143 1179 246 1249 338 c 1
 1269 322 1284 285 1284 250 c 0
 1284 135 1171 -20 823 -20 c 1
 811 -70 l 1
 944 -80 1030 -149 1030 -258 c 0
 1030 -403 913 -492 739 -492 c 0
EndSplineSet
Substitution2: "'c2sc' Capitals to Small Capitals lookup 37 subtable" ccedilla.sc
Substitution2: "'aalt' Access All Alternates lookup 0 subtable" ccedilla.sc
EndChar

StartChar: Egrave
Encoding: 200 200 138
Width: 1337
GlyphClass: 2
Flags: HW
AnchorPoint: "Anchor-3" 664 731 basechar 0
AnchorPoint: "Anchor-2" 1296 1462 basechar 0
AnchorPoint: "Anchor-1" 670 0 basechar 0
AnchorPoint: "Anchor-0" 670 1907 basechar 0
LayerCount: 2
Fore
SplineSet
688 1579 m 1
 559 1653 358 1814 307 1886 c 1
 307 1907 l 1
 629 1907 l 1
 672 1815 768 1684 827 1606 c 1
 827 1579 l 1
 688 1579 l 1
57 0 m 1
 57 109 l 1
 143 109 l 2
 200 109 248 122 248 231 c 2
 248 1221 l 2
 248 1338 202 1354 143 1354 c 2
 57 1354 l 1
 57 1462 l 1
 1194 1462 l 1
 1202 1085 l 1
 1059 1085 l 1
 1049 1182 l 2
 1039 1282 1002 1337 918 1337 c 2
 573 1337 l 1
 573 825 l 1
 1059 825 l 1
 1059 702 l 1
 573 702 l 1
 573 125 l 1
 983 125 l 2
 1065 125 1100 191 1114 281 c 2
 1130 377 l 1
 1272 377 l 1
 1257 0 l 1
 57 0 l 1
EndSplineSet
Substitution2: "'c2sc' Capitals to Small Capitals lookup 37 subtable" egrave.sc
Substitution2: "'aalt' Access All Alternates lookup 0 subtable" egrave.sc
EndChar

StartChar: Eacute
Encoding: 201 201 139
Width: 1337
GlyphClass: 2
Flags: HW
AnchorPoint: "Anchor-3" 664 731 basechar 0
AnchorPoint: "Anchor-2" 1296 1462 basechar 0
AnchorPoint: "Anchor-1" 670 0 basechar 0
AnchorPoint: "Anchor-0" 670 1907 basechar 0
LayerCount: 2
Fore
SplineSet
522 1606 m 1
 581 1684 678 1815 721 1907 c 1
 1042 1907 l 1
 1042 1886 l 1
 991 1814 791 1653 662 1579 c 1
 522 1579 l 1
 522 1606 l 1
57 0 m 1
 57 109 l 1
 143 109 l 2
 200 109 248 122 248 231 c 2
 248 1221 l 2
 248 1338 202 1354 143 1354 c 2
 57 1354 l 1
 57 1462 l 1
 1194 1462 l 1
 1202 1085 l 1
 1059 1085 l 1
 1049 1182 l 2
 1039 1282 1002 1337 918 1337 c 2
 573 1337 l 1
 573 825 l 1
 1059 825 l 1
 1059 702 l 1
 573 702 l 1
 573 125 l 1
 983 125 l 2
 1065 125 1100 191 1114 281 c 2
 1130 377 l 1
 1272 377 l 1
 1257 0 l 1
 57 0 l 1
EndSplineSet
Substitution2: "'c2sc' Capitals to Small Capitals lookup 37 subtable" eacute.sc
Substitution2: "'aalt' Access All Alternates lookup 0 subtable" eacute.sc
EndChar

StartChar: Ecircumflex
Encoding: 202 202 140
Width: 1337
GlyphClass: 2
Flags: HW
AnchorPoint: "Anchor-3" 664 731 basechar 0
AnchorPoint: "Anchor-2" 1296 1462 basechar 0
AnchorPoint: "Anchor-1" 670 0 basechar 0
AnchorPoint: "Anchor-0" 670 1907 basechar 0
LayerCount: 2
Fore
SplineSet
289 1606 m 1
 352 1684 471 1815 514 1907 c 1
 791 1907 l 1
 834 1815 953 1684 1016 1606 c 1
 1016 1579 l 1
 874 1579 l 1
 817 1624 712 1708 651 1763 c 1
 590 1708 487 1624 430 1579 c 1
 289 1579 l 1
 289 1606 l 1
57 0 m 1
 57 109 l 1
 143 109 l 2
 200 109 248 122 248 231 c 2
 248 1221 l 2
 248 1338 202 1354 143 1354 c 2
 57 1354 l 1
 57 1462 l 1
 1194 1462 l 1
 1202 1085 l 1
 1059 1085 l 1
 1049 1182 l 2
 1039 1282 1002 1337 918 1337 c 2
 573 1337 l 1
 573 825 l 1
 1059 825 l 1
 1059 702 l 1
 573 702 l 1
 573 125 l 1
 983 125 l 2
 1065 125 1100 191 1114 281 c 2
 1130 377 l 1
 1272 377 l 1
 1257 0 l 1
 57 0 l 1
EndSplineSet
Substitution2: "'c2sc' Capitals to Small Capitals lookup 37 subtable" ecircumflex.sc
Substitution2: "'aalt' Access All Alternates lookup 0 subtable" ecircumflex.sc
EndChar

StartChar: Edieresis
Encoding: 203 203 141
Width: 1337
GlyphClass: 2
Flags: HW
AnchorPoint: "Anchor-3" 664 731 basechar 0
AnchorPoint: "Anchor-2" 1296 1462 basechar 0
AnchorPoint: "Anchor-1" 670 0 basechar 0
AnchorPoint: "Anchor-0" 670 1874 basechar 0
LayerCount: 2
Fore
SplineSet
899 1620 m 0
 833 1620 776 1655 776 1747 c 0
 776 1841 833 1874 899 1874 c 0
 960 1874 1020 1841 1020 1747 c 0
 1020 1655 960 1620 899 1620 c 0
477 1620 m 0
 414 1620 356 1655 356 1747 c 0
 356 1841 414 1874 477 1874 c 0
 540 1874 600 1841 600 1747 c 0
 600 1655 540 1620 477 1620 c 0
57 0 m 1
 57 109 l 1
 143 109 l 2
 200 109 248 122 248 231 c 2
 248 1221 l 2
 248 1338 202 1354 143 1354 c 2
 57 1354 l 1
 57 1462 l 1
 1194 1462 l 1
 1202 1085 l 1
 1059 1085 l 1
 1049 1182 l 2
 1039 1282 1002 1337 918 1337 c 2
 573 1337 l 1
 573 825 l 1
 1059 825 l 1
 1059 702 l 1
 573 702 l 1
 573 125 l 1
 983 125 l 2
 1065 125 1100 191 1114 281 c 2
 1130 377 l 1
 1272 377 l 1
 1257 0 l 1
 57 0 l 1
EndSplineSet
Substitution2: "'c2sc' Capitals to Small Capitals lookup 37 subtable" edieresis.sc
Substitution2: "'aalt' Access All Alternates lookup 0 subtable" edieresis.sc
EndChar

StartChar: Igrave
Encoding: 204 204 142
Width: 821
GlyphClass: 2
Flags: HW
AnchorPoint: "Anchor-3" 410 731 basechar 0
AnchorPoint: "Anchor-2" 780 1462 basechar 0
AnchorPoint: "Anchor-1" 412 0 basechar 0
AnchorPoint: "Anchor-0" 412 1907 basechar 0
LayerCount: 2
Fore
SplineSet
428 1579 m 1
 299 1653 98 1814 47 1886 c 1
 47 1907 l 1
 369 1907 l 1
 412 1815 508 1684 567 1606 c 1
 567 1579 l 1
 428 1579 l 1
57 0 m 1
 57 109 l 1
 143 109 l 2
 202 109 248 125 248 242 c 2
 248 1221 l 2
 248 1338 202 1354 143 1354 c 2
 57 1354 l 1
 57 1462 l 1
 764 1462 l 1
 764 1354 l 1
 678 1354 l 2
 619 1354 573 1338 573 1221 c 2
 573 242 l 2
 573 125 619 109 678 109 c 2
 764 109 l 1
 764 0 l 1
 57 0 l 1
EndSplineSet
Substitution2: "'c2sc' Capitals to Small Capitals lookup 37 subtable" igrave.sc
Substitution2: "'aalt' Access All Alternates lookup 0 subtable" igrave.sc
EndChar

StartChar: Iacute
Encoding: 205 205 143
Width: 821
GlyphClass: 2
Flags: HW
AnchorPoint: "Anchor-3" 410 731 basechar 0
AnchorPoint: "Anchor-2" 780 1462 basechar 0
AnchorPoint: "Anchor-1" 412 0 basechar 0
AnchorPoint: "Anchor-0" 412 1907 basechar 0
LayerCount: 2
Fore
SplineSet
252 1606 m 1
 311 1684 408 1815 451 1907 c 1
 772 1907 l 1
 772 1886 l 1
 721 1814 520 1653 391 1579 c 1
 252 1579 l 1
 252 1606 l 1
57 0 m 1
 57 109 l 1
 143 109 l 2
 202 109 248 125 248 242 c 2
 248 1221 l 2
 248 1338 202 1354 143 1354 c 2
 57 1354 l 1
 57 1462 l 1
 764 1462 l 1
 764 1354 l 1
 678 1354 l 2
 619 1354 573 1338 573 1221 c 2
 573 242 l 2
 573 125 619 109 678 109 c 2
 764 109 l 1
 764 0 l 1
 57 0 l 1
EndSplineSet
Substitution2: "'c2sc' Capitals to Small Capitals lookup 37 subtable" iacute.sc
Substitution2: "'aalt' Access All Alternates lookup 0 subtable" iacute.sc
EndChar

StartChar: Icircumflex
Encoding: 206 206 144
Width: 821
GlyphClass: 2
Flags: HW
AnchorPoint: "Anchor-3" 410 731 basechar 0
AnchorPoint: "Anchor-2" 780 1462 basechar 0
AnchorPoint: "Anchor-1" 412 0 basechar 0
AnchorPoint: "Anchor-0" 412 1907 basechar 0
LayerCount: 2
Fore
SplineSet
47 1606 m 1
 110 1684 229 1815 272 1907 c 1
 549 1907 l 1
 592 1815 711 1684 774 1606 c 1
 774 1579 l 1
 633 1579 l 1
 576 1624 471 1708 410 1763 c 1
 349 1708 245 1624 188 1579 c 1
 47 1579 l 1
 47 1606 l 1
57 0 m 1
 57 109 l 1
 143 109 l 2
 202 109 248 125 248 242 c 2
 248 1221 l 2
 248 1338 202 1354 143 1354 c 2
 57 1354 l 1
 57 1462 l 1
 764 1462 l 1
 764 1354 l 1
 678 1354 l 2
 619 1354 573 1338 573 1221 c 2
 573 242 l 2
 573 125 619 109 678 109 c 2
 764 109 l 1
 764 0 l 1
 57 0 l 1
EndSplineSet
Substitution2: "'c2sc' Capitals to Small Capitals lookup 37 subtable" icircumflex.sc
Substitution2: "'aalt' Access All Alternates lookup 0 subtable" icircumflex.sc
EndChar

StartChar: Idieresis
Encoding: 207 207 145
Width: 821
GlyphClass: 2
Flags: HW
AnchorPoint: "Anchor-3" 410 731 basechar 0
AnchorPoint: "Anchor-2" 780 1462 basechar 0
AnchorPoint: "Anchor-1" 412 0 basechar 0
AnchorPoint: "Anchor-0" 412 1874 basechar 0
LayerCount: 2
Fore
SplineSet
621 1620 m 0
 555 1620 498 1655 498 1747 c 0
 498 1841 555 1874 621 1874 c 0
 682 1874 741 1841 741 1747 c 0
 741 1655 682 1620 621 1620 c 0
199 1620 m 0
 136 1620 78 1655 78 1747 c 0
 78 1841 136 1874 199 1874 c 0
 262 1874 322 1841 322 1747 c 0
 322 1655 262 1620 199 1620 c 0
57 0 m 1
 57 109 l 1
 143 109 l 2
 202 109 248 125 248 242 c 2
 248 1221 l 2
 248 1338 202 1354 143 1354 c 2
 57 1354 l 1
 57 1462 l 1
 764 1462 l 1
 764 1354 l 1
 678 1354 l 2
 619 1354 573 1338 573 1221 c 2
 573 242 l 2
 573 125 619 109 678 109 c 2
 764 109 l 1
 764 0 l 1
 57 0 l 1
EndSplineSet
Substitution2: "'c2sc' Capitals to Small Capitals lookup 37 subtable" idieresis.sc
Substitution2: "'aalt' Access All Alternates lookup 0 subtable" idieresis.sc
EndChar

StartChar: Eth
Encoding: 208 208 146
Width: 1570
GlyphClass: 2
Flags: HW
AnchorPoint: "Anchor-3" 758 731 basechar 0
AnchorPoint: "Anchor-1" 786 0 basechar 0
AnchorPoint: "Anchor-0" 786 1462 basechar 0
LayerCount: 2
Fore
SplineSet
57 0 m 1
 57 109 l 1
 143 109 l 2
 202 109 248 125 248 242 c 2
 248 702 l 1
 78 702 l 1
 78 827 l 1
 248 827 l 1
 248 1229 l 2
 248 1338 200 1354 143 1354 c 2
 57 1354 l 1
 57 1462 l 1
 733 1462 l 2
 1186 1462 1458 1223 1458 758 c 0
 1458 309 1210 0 733 0 c 2
 57 0 l 1
686 127 m 2
 967 127 1112 367 1112 758 c 0
 1112 1149 967 1337 688 1337 c 2
 571 1337 l 1
 571 827 l 1
 827 827 l 1
 827 702 l 1
 571 702 l 1
 571 127 l 1
 686 127 l 2
EndSplineSet
Substitution2: "'c2sc' Capitals to Small Capitals lookup 37 subtable" eth.sc
Substitution2: "'aalt' Access All Alternates lookup 0 subtable" eth.sc
EndChar

StartChar: Ntilde
Encoding: 209 209 147
Width: 1613
GlyphClass: 2
Flags: HW
AnchorPoint: "Anchor-3" 817 731 basechar 0
AnchorPoint: "Anchor-2" 1573 1462 basechar 0
AnchorPoint: "Anchor-1" 807 0 basechar 0
AnchorPoint: "Anchor-0" 807 1903 basechar 0
LayerCount: 2
Fore
SplineSet
975 1579 m 0
 828 1579 741 1708 653 1708 c 0
 592 1708 561 1654 553 1599 c 1
 420 1599 l 1
 428 1765 531 1903 678 1903 c 0
 823 1903 911 1774 997 1774 c 0
 1056 1774 1090 1827 1098 1882 c 1
 1231 1882 l 1
 1223 1716 1120 1579 975 1579 c 0
57 0 m 1
 57 109 l 1
 143 109 l 2
 200 109 248 125 248 242 c 2
 248 1229 l 2
 248 1338 198 1354 143 1354 c 2
 57 1354 l 1
 57 1462 l 1
 512 1462 l 1
 1235 440 l 1
 1235 1229 l 2
 1235 1338 1185 1354 1130 1354 c 2
 1044 1354 l 1
 1044 1462 l 1
 1579 1462 l 1
 1579 1354 l 1
 1493 1354 l 2
 1436 1354 1389 1338 1389 1221 c 2
 1389 0 l 1
 1200 0 l 1
 401 1128 l 1
 401 242 l 2
 401 125 449 109 506 109 c 2
 592 109 l 1
 592 0 l 1
 57 0 l 1
EndSplineSet
Substitution2: "'c2sc' Capitals to Small Capitals lookup 37 subtable" ntilde.sc
Substitution2: "'aalt' Access All Alternates lookup 0 subtable" ntilde.sc
EndChar

StartChar: Ograve
Encoding: 210 210 148
Width: 1611
GlyphClass: 2
Flags: HW
AnchorPoint: "Anchor-3" 807 731 basechar 0
AnchorPoint: "Anchor-2" 1571 1462 basechar 0
AnchorPoint: "Anchor-1" 807 0 basechar 0
AnchorPoint: "Anchor-0" 807 1907 basechar 0
LayerCount: 2
Fore
SplineSet
813 1579 m 1
 684 1653 483 1814 432 1886 c 1
 432 1907 l 1
 754 1907 l 1
 797 1815 893 1684 952 1606 c 1
 952 1579 l 1
 813 1579 l 1
807 -20 m 0
 340 -20 113 280 113 735 c 0
 113 1188 340 1485 809 1485 c 0
 1251 1485 1499 1188 1499 733 c 0
 1499 280 1251 -20 807 -20 c 0
807 113 m 0
 1063 113 1155 342 1155 733 c 0
 1155 1124 1063 1352 809 1352 c 0
 553 1352 457 1124 457 733 c 0
 457 342 553 113 807 113 c 0
EndSplineSet
Substitution2: "'c2sc' Capitals to Small Capitals lookup 37 subtable" ograve.sc
Substitution2: "'aalt' Access All Alternates lookup 0 subtable" ograve.sc
EndChar

StartChar: Oacute
Encoding: 211 211 149
Width: 1611
GlyphClass: 2
Flags: HW
AnchorPoint: "Anchor-3" 807 731 basechar 0
AnchorPoint: "Anchor-2" 1571 1462 basechar 0
AnchorPoint: "Anchor-1" 807 0 basechar 0
AnchorPoint: "Anchor-0" 807 1907 basechar 0
LayerCount: 2
Fore
SplineSet
666 1606 m 1
 725 1684 821 1815 864 1907 c 1
 1186 1907 l 1
 1186 1886 l 1
 1135 1814 934 1653 805 1579 c 1
 666 1579 l 1
 666 1606 l 1
807 -20 m 0
 340 -20 113 280 113 735 c 0
 113 1188 340 1485 809 1485 c 0
 1251 1485 1499 1188 1499 733 c 0
 1499 280 1251 -20 807 -20 c 0
807 113 m 0
 1063 113 1155 342 1155 733 c 0
 1155 1124 1063 1352 809 1352 c 0
 553 1352 457 1124 457 733 c 0
 457 342 553 113 807 113 c 0
EndSplineSet
Substitution2: "'c2sc' Capitals to Small Capitals lookup 37 subtable" oacute.sc
Substitution2: "'aalt' Access All Alternates lookup 0 subtable" oacute.sc
EndChar

StartChar: Ocircumflex
Encoding: 212 212 150
Width: 1611
GlyphClass: 2
Flags: HW
AnchorPoint: "Anchor-3" 807 731 basechar 0
AnchorPoint: "Anchor-2" 1571 1462 basechar 0
AnchorPoint: "Anchor-1" 807 0 basechar 0
AnchorPoint: "Anchor-0" 807 1907 basechar 0
LayerCount: 2
Fore
SplineSet
440 1606 m 1
 503 1684 623 1815 666 1907 c 1
 942 1907 l 1
 985 1815 1104 1684 1167 1606 c 1
 1167 1579 l 1
 1026 1579 l 1
 969 1624 864 1708 803 1763 c 1
 742 1708 639 1624 582 1579 c 1
 440 1579 l 1
 440 1606 l 1
807 -20 m 0
 340 -20 113 280 113 735 c 0
 113 1188 340 1485 809 1485 c 0
 1251 1485 1499 1188 1499 733 c 0
 1499 280 1251 -20 807 -20 c 0
807 113 m 0
 1063 113 1155 342 1155 733 c 0
 1155 1124 1063 1352 809 1352 c 0
 553 1352 457 1124 457 733 c 0
 457 342 553 113 807 113 c 0
EndSplineSet
Substitution2: "'c2sc' Capitals to Small Capitals lookup 37 subtable" ocircumflex.sc
Substitution2: "'aalt' Access All Alternates lookup 0 subtable" ocircumflex.sc
EndChar

StartChar: Otilde
Encoding: 213 213 151
Width: 1611
GlyphClass: 2
Flags: HW
AnchorPoint: "Anchor-3" 807 731 basechar 0
AnchorPoint: "Anchor-2" 1571 1462 basechar 0
AnchorPoint: "Anchor-1" 807 0 basechar 0
AnchorPoint: "Anchor-0" 807 1903 basechar 0
LayerCount: 2
Fore
SplineSet
952 1579 m 0
 805 1579 719 1708 631 1708 c 0
 570 1708 538 1654 530 1599 c 1
 397 1599 l 1
 405 1765 508 1903 655 1903 c 0
 800 1903 889 1774 975 1774 c 0
 1034 1774 1067 1827 1075 1882 c 1
 1208 1882 l 1
 1200 1716 1097 1579 952 1579 c 0
807 -20 m 0
 340 -20 113 280 113 735 c 0
 113 1188 340 1485 809 1485 c 0
 1251 1485 1499 1188 1499 733 c 0
 1499 280 1251 -20 807 -20 c 0
807 113 m 0
 1063 113 1155 342 1155 733 c 0
 1155 1124 1063 1352 809 1352 c 0
 553 1352 457 1124 457 733 c 0
 457 342 553 113 807 113 c 0
EndSplineSet
Substitution2: "'c2sc' Capitals to Small Capitals lookup 37 subtable" otilde.sc
Substitution2: "'aalt' Access All Alternates lookup 0 subtable" otilde.sc
EndChar

StartChar: Odieresis
Encoding: 214 214 152
Width: 1611
GlyphClass: 2
Flags: HW
AnchorPoint: "Anchor-3" 807 731 basechar 0
AnchorPoint: "Anchor-2" 1571 1462 basechar 0
AnchorPoint: "Anchor-1" 807 0 basechar 0
AnchorPoint: "Anchor-0" 807 1874 basechar 0
LayerCount: 2
Fore
SplineSet
1006 1620 m 0
 940 1620 883 1655 883 1747 c 0
 883 1841 940 1874 1006 1874 c 0
 1067 1874 1126 1841 1126 1747 c 0
 1126 1655 1067 1620 1006 1620 c 0
584 1620 m 0
 521 1620 463 1655 463 1747 c 0
 463 1841 521 1874 584 1874 c 0
 647 1874 707 1841 707 1747 c 0
 707 1655 647 1620 584 1620 c 0
807 -20 m 0
 340 -20 113 280 113 735 c 0
 113 1188 340 1485 809 1485 c 0
 1251 1485 1499 1188 1499 733 c 0
 1499 280 1251 -20 807 -20 c 0
807 113 m 0
 1063 113 1155 342 1155 733 c 0
 1155 1124 1063 1352 809 1352 c 0
 553 1352 457 1124 457 733 c 0
 457 342 553 113 807 113 c 0
EndSplineSet
Substitution2: "'c2sc' Capitals to Small Capitals lookup 37 subtable" odieresis.sc
Substitution2: "'aalt' Access All Alternates lookup 0 subtable" odieresis.sc
EndChar

StartChar: multiply
Encoding: 215 215 153
Width: 1144
GlyphClass: 1
Flags: HW
LayerCount: 2
Fore
SplineSet
270 328 m 1
 166 432 l 1
 467 735 l 1
 166 1036 l 1
 270 1139 l 1
 571 838 l 1
 872 1141 l 1
 977 1036 l 1
 674 733 l 1
 977 430 l 1
 874 328 l 1
 571 631 l 1
 270 328 l 1
EndSplineSet
EndChar

StartChar: Oslash
Encoding: 216 216 154
Width: 1611
GlyphClass: 2
Flags: HW
AnchorPoint: "Anchor-3" 805 731 basechar 0
AnchorPoint: "Anchor-1" 807 0 basechar 0
AnchorPoint: "Anchor-0" 807 1462 basechar 0
LayerCount: 2
Fore
SplineSet
391 92 m 1
 205 219 113 446 113 735 c 0
 113 1188 340 1485 809 1485 c 0
 922 1485 1022 1464 1110 1427 c 1
 1174 1546 l 1
 1317 1546 l 1
 1221 1368 l 1
 1401 1241 1499 1018 1499 733 c 0
 1499 280 1251 -20 807 -20 c 0
 690 -20 590 -2 504 33 c 1
 442 -82 l 1
 297 -82 l 1
 391 92 l 1
1022 1266 m 1
 971 1321 899 1352 809 1352 c 0
 553 1352 457 1124 457 733 c 0
 457 563 475 426 516 324 c 1
 1022 1266 l 1
807 113 m 0
 1063 113 1155 342 1155 733 c 0
 1155 901 1137 1039 1098 1141 c 1
 592 197 l 1
 645 142 715 113 807 113 c 0
EndSplineSet
Substitution2: "'c2sc' Capitals to Small Capitals lookup 37 subtable" oslash.sc
Substitution2: "'aalt' Access All Alternates lookup 0 subtable" oslash.sc
EndChar

StartChar: Ugrave
Encoding: 217 217 155
Width: 1529
GlyphClass: 2
Flags: HW
AnchorPoint: "Anchor-3" 764 721 basechar 0
AnchorPoint: "Anchor-2" 1530 1462 basechar 0
AnchorPoint: "Anchor-1" 766 0 basechar 0
AnchorPoint: "Anchor-0" 766 1907 basechar 0
LayerCount: 2
Fore
SplineSet
813 1579 m 1
 684 1653 483 1814 432 1886 c 1
 432 1907 l 1
 754 1907 l 1
 797 1815 893 1684 952 1606 c 1
 952 1579 l 1
 813 1579 l 1
793 -20 m 0
 437 -20 225 110 225 446 c 2
 225 1229 l 2
 225 1338 176 1354 121 1354 c 2
 33 1354 l 1
 33 1462 l 1
 739 1462 l 1
 739 1354 l 1
 653 1354 l 2
 596 1354 549 1338 549 1221 c 2
 549 430 l 2
 549 201 668 125 854 125 c 0
 1036 125 1151 217 1151 426 c 2
 1151 1229 l 2
 1151 1338 1104 1354 1047 1354 c 2
 961 1354 l 1
 961 1462 l 1
 1497 1462 l 1
 1497 1354 l 1
 1409 1354 l 2
 1352 1354 1305 1338 1305 1221 c 2
 1305 422 l 2
 1305 148 1151 -20 793 -20 c 0
EndSplineSet
Substitution2: "'c2sc' Capitals to Small Capitals lookup 37 subtable" ugrave.sc
Substitution2: "'aalt' Access All Alternates lookup 0 subtable" ugrave.sc
EndChar

StartChar: Uacute
Encoding: 218 218 156
Width: 1529
GlyphClass: 2
Flags: HW
AnchorPoint: "Anchor-3" 764 721 basechar 0
AnchorPoint: "Anchor-2" 1530 1462 basechar 0
AnchorPoint: "Anchor-1" 766 0 basechar 0
AnchorPoint: "Anchor-0" 766 1907 basechar 0
LayerCount: 2
Fore
SplineSet
643 1606 m 1
 702 1684 799 1815 842 1907 c 1
 1163 1907 l 1
 1163 1886 l 1
 1112 1814 911 1653 782 1579 c 1
 643 1579 l 1
 643 1606 l 1
793 -20 m 0
 437 -20 225 110 225 446 c 2
 225 1229 l 2
 225 1338 176 1354 121 1354 c 2
 33 1354 l 1
 33 1462 l 1
 739 1462 l 1
 739 1354 l 1
 653 1354 l 2
 596 1354 549 1338 549 1221 c 2
 549 430 l 2
 549 201 668 125 854 125 c 0
 1036 125 1151 217 1151 426 c 2
 1151 1229 l 2
 1151 1338 1104 1354 1047 1354 c 2
 961 1354 l 1
 961 1462 l 1
 1497 1462 l 1
 1497 1354 l 1
 1409 1354 l 2
 1352 1354 1305 1338 1305 1221 c 2
 1305 422 l 2
 1305 148 1151 -20 793 -20 c 0
EndSplineSet
Substitution2: "'c2sc' Capitals to Small Capitals lookup 37 subtable" uacute.sc
Substitution2: "'aalt' Access All Alternates lookup 0 subtable" uacute.sc
EndChar

StartChar: Ucircumflex
Encoding: 219 219 157
Width: 1529
GlyphClass: 2
Flags: HW
AnchorPoint: "Anchor-3" 764 721 basechar 0
AnchorPoint: "Anchor-2" 1530 1462 basechar 0
AnchorPoint: "Anchor-1" 766 0 basechar 0
AnchorPoint: "Anchor-0" 766 1907 basechar 0
LayerCount: 2
Fore
SplineSet
455 1606 m 1
 518 1684 637 1815 680 1907 c 1
 956 1907 l 1
 999 1815 1119 1684 1182 1606 c 1
 1182 1579 l 1
 1040 1579 l 1
 983 1624 878 1708 817 1763 c 1
 756 1708 653 1624 596 1579 c 1
 455 1579 l 1
 455 1606 l 1
793 -20 m 0
 437 -20 225 110 225 446 c 2
 225 1229 l 2
 225 1338 176 1354 121 1354 c 2
 33 1354 l 1
 33 1462 l 1
 739 1462 l 1
 739 1354 l 1
 653 1354 l 2
 596 1354 549 1338 549 1221 c 2
 549 430 l 2
 549 201 668 125 854 125 c 0
 1036 125 1151 217 1151 426 c 2
 1151 1229 l 2
 1151 1338 1104 1354 1047 1354 c 2
 961 1354 l 1
 961 1462 l 1
 1497 1462 l 1
 1497 1354 l 1
 1409 1354 l 2
 1352 1354 1305 1338 1305 1221 c 2
 1305 422 l 2
 1305 148 1151 -20 793 -20 c 0
EndSplineSet
Substitution2: "'c2sc' Capitals to Small Capitals lookup 37 subtable" ucircumflex.sc
Substitution2: "'aalt' Access All Alternates lookup 0 subtable" ucircumflex.sc
EndChar

StartChar: Udieresis
Encoding: 220 220 158
Width: 1529
GlyphClass: 2
Flags: HW
AnchorPoint: "Anchor-3" 764 721 basechar 0
AnchorPoint: "Anchor-2" 1530 1462 basechar 0
AnchorPoint: "Anchor-1" 766 0 basechar 0
AnchorPoint: "Anchor-0" 766 1874 basechar 0
LayerCount: 2
Fore
SplineSet
1036 1620 m 0
 970 1620 913 1655 913 1747 c 0
 913 1841 970 1874 1036 1874 c 0
 1097 1874 1157 1841 1157 1747 c 0
 1157 1655 1097 1620 1036 1620 c 0
614 1620 m 0
 551 1620 494 1655 494 1747 c 0
 494 1841 551 1874 614 1874 c 0
 677 1874 737 1841 737 1747 c 0
 737 1655 677 1620 614 1620 c 0
793 -20 m 0
 437 -20 225 110 225 446 c 2
 225 1229 l 2
 225 1338 176 1354 121 1354 c 2
 33 1354 l 1
 33 1462 l 1
 739 1462 l 1
 739 1354 l 1
 653 1354 l 2
 596 1354 549 1338 549 1221 c 2
 549 430 l 2
 549 201 668 125 854 125 c 0
 1036 125 1151 217 1151 426 c 2
 1151 1229 l 2
 1151 1338 1104 1354 1047 1354 c 2
 961 1354 l 1
 961 1462 l 1
 1497 1462 l 1
 1497 1354 l 1
 1409 1354 l 2
 1352 1354 1305 1338 1305 1221 c 2
 1305 422 l 2
 1305 148 1151 -20 793 -20 c 0
EndSplineSet
Substitution2: "'c2sc' Capitals to Small Capitals lookup 37 subtable" udieresis.sc
Substitution2: "'aalt' Access All Alternates lookup 0 subtable" udieresis.sc
EndChar

StartChar: Yacute
Encoding: 221 221 159
Width: 1419
GlyphClass: 2
Flags: HW
AnchorPoint: "Anchor-3" 709 731 basechar 0
AnchorPoint: "Anchor-2" 1378 1462 basechar 0
AnchorPoint: "Anchor-1" 711 0 basechar 0
AnchorPoint: "Anchor-0" 711 1907 basechar 0
LayerCount: 2
Fore
SplineSet
602 1606 m 1
 661 1684 758 1815 801 1907 c 1
 1122 1907 l 1
 1122 1886 l 1
 1071 1814 870 1653 741 1579 c 1
 602 1579 l 1
 602 1606 l 1
336 0 m 1
 336 109 l 1
 432 109 l 2
 498 109 551 116 551 233 c 2
 551 518 l 1
 172 1245 l 2
 131 1325 107 1354 27 1354 c 2
 0 1354 l 1
 0 1462 l 1
 686 1462 l 1
 686 1354 l 1
 651 1354 l 2
 569 1354 528 1317 528 1262 c 0
 528 1227 543 1184 559 1149 c 2
 711 848 l 2
 754 762 778 698 801 635 c 1
 830 707 866 793 911 885 c 2
 1030 1130 l 2
 1059 1189 1065 1230 1065 1253 c 0
 1065 1323 1020 1354 930 1354 c 2
 883 1354 l 1
 883 1462 l 1
 1419 1462 l 1
 1419 1354 l 1
 1380 1354 l 2
 1310 1354 1288 1321 1225 1194 c 2
 877 516 l 1
 877 236 l 2
 877 117 928 109 991 109 c 2
 1092 109 l 1
 1092 0 l 1
 336 0 l 1
EndSplineSet
Substitution2: "'c2sc' Capitals to Small Capitals lookup 37 subtable" yacute.sc
Substitution2: "'aalt' Access All Alternates lookup 0 subtable" yacute.sc
EndChar

StartChar: Thorn
Encoding: 222 222 160
Width: 1306
GlyphClass: 2
Flags: HW
AnchorPoint: "Anchor-3" 651 731 basechar 0
AnchorPoint: "Anchor-1" 653 0 basechar 0
AnchorPoint: "Anchor-0" 653 1462 basechar 0
LayerCount: 2
Fore
SplineSet
57 0 m 1
 57 109 l 1
 143 109 l 2
 202 109 248 125 248 242 c 2
 248 1221 l 2
 248 1338 202 1354 143 1354 c 2
 57 1354 l 1
 57 1462 l 1
 764 1462 l 1
 764 1354 l 1
 680 1354 l 2
 623 1354 571 1340 571 1231 c 2
 571 1194 l 1
 686 1194 l 2
 1065 1188 1245 1028 1245 760 c 0
 1245 514 1083 291 641 291 c 2
 571 291 l 1
 571 231 l 2
 575 122 623 109 680 109 c 2
 764 109 l 1
 764 0 l 1
 57 0 l 1
621 410 m 2
 824 410 901 506 901 752 c 0
 901 971 833 1073 651 1073 c 2
 571 1073 l 1
 571 410 l 1
 621 410 l 2
EndSplineSet
Substitution2: "'c2sc' Capitals to Small Capitals lookup 37 subtable" thorn.sc
Substitution2: "'aalt' Access All Alternates lookup 0 subtable" thorn.sc
EndChar

StartChar: germandbls
Encoding: 223 223 161
Width: 1445
GlyphClass: 2
Flags: HW
AnchorPoint: "Anchor-3" 688 778 basechar 0
AnchorPoint: "Anchor-1" 723 0 basechar 0
AnchorPoint: "Anchor-0" 723 1577 basechar 0
LayerCount: 2
Fore
SplineSet
961 -20 m 0
 705 -20 584 82 584 219 c 0
 584 334 680 354 752 354 c 1
 783 196 856 100 965 100 c 0
 1045 100 1102 150 1102 238 c 0
 1102 334 1057 397 895 473 c 0
 696 565 637 693 637 834 c 0
 637 1022 776 1106 969 1118 c 1
 967 1368 882 1462 743 1462 c 0
 604 1462 514 1373 514 1174 c 2
 514 0 l 1
 12 0 l 1
 12 109 l 1
 100 109 l 2
 157 109 205 125 205 242 c 2
 205 956 l 1
 41 956 l 1
 41 1098 l 1
 205 1098 l 1
 205 1118 l 2
 205 1460 436 1577 737 1577 c 0
 1116 1577 1258 1377 1260 1006 c 1
 1145 1006 l 2
 1012 1006 905 977 905 868 c 0
 905 772 967 733 1133 655 c 0
 1303 575 1364 451 1364 324 c 0
 1364 93 1215 -20 961 -20 c 0
EndSplineSet
Substitution2: "'smcp' Lowercase to Small Capitals lookup 38 subtable" germandbls.sc
Substitution2: "'aalt' Access All Alternates lookup 0 subtable" germandbls.sc
EndChar

StartChar: agrave
Encoding: 224 224 162
Width: 1226
GlyphClass: 2
Flags: HW
AnchorPoint: "Anchor-3" 627 551 basechar 0
AnchorPoint: "Anchor-2" 1186 1098 basechar 0
AnchorPoint: "Anchor-1" 614 0 basechar 0
AnchorPoint: "Anchor-0" 614 1569 basechar 0
LayerCount: 2
Fore
SplineSet
616 1241 m 1
 487 1315 287 1476 236 1548 c 1
 236 1569 l 1
 557 1569 l 1
 600 1477 697 1346 756 1268 c 1
 756 1241 l 1
 616 1241 l 1
414 -20 m 0
 234 -20 92 86 92 313 c 0
 92 534 244 637 551 647 c 2
 719 653 l 1
 719 766 l 2
 719 903 705 999 592 999 c 0
 488 999 455 905 455 778 c 1
 273 778 178 815 178 915 c 0
 178 1065 369 1124 600 1124 c 0
 887 1124 1030 1032 1030 776 c 2
 1030 254 l 2
 1030 141 1061 109 1153 109 c 2
 1161 109 l 1
 1161 0 l 1
 780 0 l 1
 737 141 l 1
 719 141 l 1
 629 30 570 -20 414 -20 c 0
526 129 m 0
 643 129 719 231 719 391 c 2
 719 545 l 1
 627 539 l 2
 463 531 410 452 410 305 c 0
 410 188 446 129 526 129 c 0
EndSplineSet
Substitution2: "'smcp' Lowercase to Small Capitals lookup 38 subtable" agrave.sc
Substitution2: "'aalt' Access All Alternates lookup 0 subtable" agrave.sc
EndChar

StartChar: aacute
Encoding: 225 225 163
Width: 1226
GlyphClass: 2
Flags: HW
AnchorPoint: "Anchor-3" 627 551 basechar 0
AnchorPoint: "Anchor-2" 1186 1098 basechar 0
AnchorPoint: "Anchor-1" 614 0 basechar 0
AnchorPoint: "Anchor-0" 614 1569 basechar 0
LayerCount: 2
Fore
SplineSet
467 1268 m 1
 526 1346 623 1477 666 1569 c 1
 987 1569 l 1
 987 1548 l 1
 936 1476 735 1315 606 1241 c 1
 467 1241 l 1
 467 1268 l 1
414 -20 m 0
 234 -20 92 86 92 313 c 0
 92 534 244 637 551 647 c 2
 719 653 l 1
 719 766 l 2
 719 903 705 999 592 999 c 0
 488 999 455 905 455 778 c 1
 273 778 178 815 178 915 c 0
 178 1065 369 1124 600 1124 c 0
 887 1124 1030 1032 1030 776 c 2
 1030 254 l 2
 1030 141 1061 109 1153 109 c 2
 1161 109 l 1
 1161 0 l 1
 780 0 l 1
 737 141 l 1
 719 141 l 1
 629 30 570 -20 414 -20 c 0
526 129 m 0
 643 129 719 231 719 391 c 2
 719 545 l 1
 627 539 l 2
 463 531 410 452 410 305 c 0
 410 188 446 129 526 129 c 0
EndSplineSet
Substitution2: "'smcp' Lowercase to Small Capitals lookup 38 subtable" aacute.sc
Substitution2: "'aalt' Access All Alternates lookup 0 subtable" aacute.sc
EndChar

StartChar: acircumflex
Encoding: 226 226 164
Width: 1226
GlyphClass: 2
Flags: HW
AnchorPoint: "Anchor-3" 627 551 basechar 0
AnchorPoint: "Anchor-2" 1186 1098 basechar 0
AnchorPoint: "Anchor-1" 614 0 basechar 0
AnchorPoint: "Anchor-0" 614 1569 basechar 0
LayerCount: 2
Fore
SplineSet
256 1268 m 1
 319 1346 438 1477 481 1569 c 1
 758 1569 l 1
 801 1477 920 1346 983 1268 c 1
 983 1241 l 1
 842 1241 l 1
 785 1286 679 1370 618 1425 c 1
 557 1370 454 1286 397 1241 c 1
 256 1241 l 1
 256 1268 l 1
414 -20 m 0
 234 -20 92 86 92 313 c 0
 92 534 244 637 551 647 c 2
 719 653 l 1
 719 766 l 2
 719 903 705 999 592 999 c 0
 488 999 455 905 455 778 c 1
 273 778 178 815 178 915 c 0
 178 1065 369 1124 600 1124 c 0
 887 1124 1030 1032 1030 776 c 2
 1030 254 l 2
 1030 141 1061 109 1153 109 c 2
 1161 109 l 1
 1161 0 l 1
 780 0 l 1
 737 141 l 1
 719 141 l 1
 629 30 570 -20 414 -20 c 0
526 129 m 0
 643 129 719 231 719 391 c 2
 719 545 l 1
 627 539 l 2
 463 531 410 452 410 305 c 0
 410 188 446 129 526 129 c 0
EndSplineSet
Substitution2: "'smcp' Lowercase to Small Capitals lookup 38 subtable" acircumflex.sc
Substitution2: "'aalt' Access All Alternates lookup 0 subtable" acircumflex.sc
EndChar

StartChar: atilde
Encoding: 227 227 165
Width: 1226
GlyphClass: 2
Flags: HW
AnchorPoint: "Anchor-3" 627 551 basechar 0
AnchorPoint: "Anchor-2" 1186 1098 basechar 0
AnchorPoint: "Anchor-1" 614 0 basechar 0
AnchorPoint: "Anchor-0" 614 1565 basechar 0
LayerCount: 2
Fore
SplineSet
766 1241 m 0
 619 1241 532 1370 444 1370 c 0
 383 1370 352 1317 344 1262 c 1
 211 1262 l 1
 219 1428 322 1565 469 1565 c 0
 614 1565 702 1436 788 1436 c 0
 847 1436 881 1489 889 1544 c 1
 1022 1544 l 1
 1014 1378 911 1241 766 1241 c 0
414 -20 m 0
 234 -20 92 86 92 313 c 0
 92 534 244 637 551 647 c 2
 719 653 l 1
 719 766 l 2
 719 903 705 999 592 999 c 0
 488 999 455 905 455 778 c 1
 273 778 178 815 178 915 c 0
 178 1065 369 1124 600 1124 c 0
 887 1124 1030 1032 1030 776 c 2
 1030 254 l 2
 1030 141 1061 109 1153 109 c 2
 1161 109 l 1
 1161 0 l 1
 780 0 l 1
 737 141 l 1
 719 141 l 1
 629 30 570 -20 414 -20 c 0
526 129 m 0
 643 129 719 231 719 391 c 2
 719 545 l 1
 627 539 l 2
 463 531 410 452 410 305 c 0
 410 188 446 129 526 129 c 0
EndSplineSet
Substitution2: "'smcp' Lowercase to Small Capitals lookup 38 subtable" atilde.sc
Substitution2: "'aalt' Access All Alternates lookup 0 subtable" atilde.sc
EndChar

StartChar: adieresis
Encoding: 228 228 166
Width: 1226
GlyphClass: 2
Flags: HW
AnchorPoint: "Anchor-3" 627 551 basechar 0
AnchorPoint: "Anchor-2" 1186 1098 basechar 0
AnchorPoint: "Anchor-1" 614 0 basechar 0
AnchorPoint: "Anchor-0" 614 1536 basechar 0
LayerCount: 2
Fore
SplineSet
821 1282 m 0
 755 1282 698 1317 698 1409 c 0
 698 1503 755 1536 821 1536 c 0
 882 1536 942 1503 942 1409 c 0
 942 1317 882 1282 821 1282 c 0
399 1282 m 0
 336 1282 279 1317 279 1409 c 0
 279 1503 336 1536 399 1536 c 0
 462 1536 522 1503 522 1409 c 0
 522 1317 462 1282 399 1282 c 0
414 -20 m 0
 234 -20 92 86 92 313 c 0
 92 534 244 637 551 647 c 2
 719 653 l 1
 719 766 l 2
 719 903 705 999 592 999 c 0
 488 999 455 905 455 778 c 1
 273 778 178 815 178 915 c 0
 178 1065 369 1124 600 1124 c 0
 887 1124 1030 1032 1030 776 c 2
 1030 254 l 2
 1030 141 1061 109 1153 109 c 2
 1161 109 l 1
 1161 0 l 1
 780 0 l 1
 737 141 l 1
 719 141 l 1
 629 30 570 -20 414 -20 c 0
526 129 m 0
 643 129 719 231 719 391 c 2
 719 545 l 1
 627 539 l 2
 463 531 410 452 410 305 c 0
 410 188 446 129 526 129 c 0
EndSplineSet
Substitution2: "'smcp' Lowercase to Small Capitals lookup 38 subtable" adieresis.sc
Substitution2: "'aalt' Access All Alternates lookup 0 subtable" adieresis.sc
EndChar

StartChar: aring
Encoding: 229 229 167
Width: 1226
GlyphClass: 2
Flags: HW
AnchorPoint: "Anchor-3" 627 551 basechar 0
AnchorPoint: "Anchor-2" 1186 1098 basechar 0
AnchorPoint: "Anchor-1" 614 0 basechar 0
AnchorPoint: "Anchor-0" 614 1667 basechar 0
LayerCount: 2
Fore
SplineSet
618 1221 m 0
 481 1221 373 1299 373 1444 c 0
 373 1589 481 1667 618 1667 c 0
 755 1667 864 1589 864 1444 c 0
 864 1299 755 1221 618 1221 c 0
618 1333 m 0
 684 1333 739 1364 739 1444 c 0
 739 1524 684 1554 618 1554 c 0
 552 1554 498 1524 498 1444 c 0
 498 1364 552 1333 618 1333 c 0
414 -20 m 0
 234 -20 92 86 92 313 c 0
 92 534 244 637 551 647 c 2
 719 653 l 1
 719 766 l 2
 719 903 705 999 592 999 c 0
 488 999 455 905 455 778 c 1
 273 778 178 815 178 915 c 0
 178 1065 369 1124 600 1124 c 0
 887 1124 1030 1032 1030 776 c 2
 1030 254 l 2
 1030 141 1061 109 1153 109 c 2
 1161 109 l 1
 1161 0 l 1
 780 0 l 1
 737 141 l 1
 719 141 l 1
 629 30 570 -20 414 -20 c 0
526 129 m 0
 643 129 719 231 719 391 c 2
 719 545 l 1
 627 539 l 2
 463 531 410 452 410 305 c 0
 410 188 446 129 526 129 c 0
EndSplineSet
Substitution2: "'smcp' Lowercase to Small Capitals lookup 38 subtable" aring.sc
Substitution2: "'aalt' Access All Alternates lookup 0 subtable" aring.sc
EndChar

StartChar: ae
Encoding: 230 230 168
Width: 1792
GlyphClass: 2
Flags: HW
AnchorPoint: "Anchor-3" 899 551 basechar 0
AnchorPoint: "Anchor-1" 897 0 basechar 0
AnchorPoint: "Anchor-0" 897 1098 basechar 0
LayerCount: 2
Fore
SplineSet
414 -20 m 0
 234 -20 92 86 92 313 c 0
 92 534 244 637 551 647 c 2
 719 653 l 1
 719 766 l 2
 719 903 705 999 592 999 c 0
 488 999 455 905 455 778 c 1
 273 778 178 815 178 915 c 0
 178 1065 369 1124 600 1124 c 0
 745 1124 854 1090 926 1008 c 1
 1006 1084 1106 1124 1227 1124 c 0
 1524 1124 1706 957 1706 631 c 2
 1706 526 l 1
 1034 526 l 1
 1042 252 1139 133 1309 133 c 0
 1450 133 1550 205 1597 299 c 1
 1634 279 1653 244 1653 199 c 0
 1653 82 1529 -20 1253 -20 c 0
 1052 -20 905 49 817 176 c 1
 725 39 586 -20 414 -20 c 0
1393 657 m 1
 1393 870 1344 991 1231 991 c 0
 1118 991 1044 874 1038 657 c 1
 1393 657 l 1
526 129 m 0
 643 129 719 231 719 391 c 2
 719 545 l 1
 627 539 l 2
 463 531 410 452 410 305 c 0
 410 188 446 129 526 129 c 0
EndSplineSet
Substitution2: "'smcp' Lowercase to Small Capitals lookup 38 subtable" ae.sc
Substitution2: "'aalt' Access All Alternates lookup 0 subtable" ae.sc
EndChar

StartChar: ccedilla
Encoding: 231 231 169
Width: 1079
GlyphClass: 2
Flags: HW
AnchorPoint: "Anchor-3" 549 551 basechar 0
AnchorPoint: "Anchor-2" 1038 1098 basechar 0
AnchorPoint: "Anchor-1" 541 -492 basechar 0
AnchorPoint: "Anchor-0" 541 1098 basechar 0
LayerCount: 2
Fore
SplineSet
537 -492 m 0
 494 -492 407 -483 358 -469 c 1
 358 -344 l 1
 407 -354 461 -360 498 -360 c 0
 576 -360 623 -336 623 -266 c 0
 623 -186 557 -168 469 -162 c 1
 504 -14 l 1
 258 17 96 174 96 545 c 0
 96 987 315 1124 598 1124 c 0
 862 1124 1004 1030 1004 909 c 0
 1004 821 952 735 739 735 c 1
 739 876 708 999 606 999 c 0
 487 999 412 897 412 547 c 0
 412 271 483 133 655 133 c 0
 796 133 905 205 952 299 c 1
 985 279 1001 242 1001 205 c 0
 1001 103 881 -20 621 -20 c 1
 608 -70 l 1
 741 -80 827 -149 827 -258 c 0
 827 -403 711 -492 537 -492 c 0
EndSplineSet
Substitution2: "'smcp' Lowercase to Small Capitals lookup 38 subtable" ccedilla.sc
Substitution2: "'aalt' Access All Alternates lookup 0 subtable" ccedilla.sc
EndChar

StartChar: egrave
Encoding: 232 232 170
Width: 1169
GlyphClass: 2
Flags: HW
AnchorPoint: "Anchor-3" 590 551 basechar 0
AnchorPoint: "Anchor-2" 1128 1098 basechar 0
AnchorPoint: "Anchor-1" 586 0 basechar 0
AnchorPoint: "Anchor-0" 586 1569 basechar 0
LayerCount: 2
Fore
SplineSet
641 1241 m 1
 512 1315 311 1476 260 1548 c 1
 260 1569 l 1
 582 1569 l 1
 625 1477 721 1346 780 1268 c 1
 780 1241 l 1
 641 1241 l 1
627 -20 m 0
 279 -20 96 187 96 543 c 0
 96 928 280 1124 604 1124 c 0
 901 1124 1083 957 1083 631 c 2
 1083 526 l 1
 412 526 l 1
 420 252 516 133 686 133 c 0
 827 133 928 205 975 299 c 1
 1012 279 1030 244 1030 199 c 0
 1030 82 903 -20 627 -20 c 0
770 657 m 1
 770 866 725 991 608 991 c 0
 493 991 422 874 416 657 c 1
 770 657 l 1
EndSplineSet
Substitution2: "'smcp' Lowercase to Small Capitals lookup 38 subtable" egrave.sc
Substitution2: "'aalt' Access All Alternates lookup 0 subtable" egrave.sc
EndChar

StartChar: eacute
Encoding: 233 233 171
Width: 1169
GlyphClass: 2
Flags: HW
AnchorPoint: "Anchor-3" 590 551 basechar 0
AnchorPoint: "Anchor-2" 1128 1098 basechar 0
AnchorPoint: "Anchor-1" 586 0 basechar 0
AnchorPoint: "Anchor-0" 586 1569 basechar 0
LayerCount: 2
Fore
SplineSet
473 1268 m 1
 532 1346 629 1477 672 1569 c 1
 993 1569 l 1
 993 1548 l 1
 942 1476 741 1315 612 1241 c 1
 473 1241 l 1
 473 1268 l 1
627 -20 m 0
 279 -20 96 187 96 543 c 0
 96 928 280 1124 604 1124 c 0
 901 1124 1083 957 1083 631 c 2
 1083 526 l 1
 412 526 l 1
 420 252 516 133 686 133 c 0
 827 133 928 205 975 299 c 1
 1012 279 1030 244 1030 199 c 0
 1030 82 903 -20 627 -20 c 0
770 657 m 1
 770 866 725 991 608 991 c 0
 493 991 422 874 416 657 c 1
 770 657 l 1
EndSplineSet
Substitution2: "'smcp' Lowercase to Small Capitals lookup 38 subtable" eacute.sc
Substitution2: "'aalt' Access All Alternates lookup 0 subtable" eacute.sc
EndChar

StartChar: ecircumflex
Encoding: 234 234 172
Width: 1169
GlyphClass: 2
Flags: HW
AnchorPoint: "Anchor-3" 590 551 basechar 0
AnchorPoint: "Anchor-2" 1128 1098 basechar 0
AnchorPoint: "Anchor-1" 586 0 basechar 0
AnchorPoint: "Anchor-0" 586 1569 basechar 0
LayerCount: 2
Fore
SplineSet
254 1268 m 1
 317 1346 436 1477 479 1569 c 1
 756 1569 l 1
 799 1477 918 1346 981 1268 c 1
 981 1241 l 1
 840 1241 l 1
 783 1286 677 1370 616 1425 c 1
 555 1370 452 1286 395 1241 c 1
 254 1241 l 1
 254 1268 l 1
627 -20 m 0
 279 -20 96 187 96 543 c 0
 96 928 280 1124 604 1124 c 0
 901 1124 1083 957 1083 631 c 2
 1083 526 l 1
 412 526 l 1
 420 252 516 133 686 133 c 0
 827 133 928 205 975 299 c 1
 1012 279 1030 244 1030 199 c 0
 1030 82 903 -20 627 -20 c 0
770 657 m 1
 770 866 725 991 608 991 c 0
 493 991 422 874 416 657 c 1
 770 657 l 1
EndSplineSet
Substitution2: "'smcp' Lowercase to Small Capitals lookup 38 subtable" ecircumflex.sc
Substitution2: "'aalt' Access All Alternates lookup 0 subtable" ecircumflex.sc
EndChar

StartChar: edieresis
Encoding: 235 235 173
Width: 1169
GlyphClass: 2
Flags: HW
AnchorPoint: "Anchor-3" 590 551 basechar 0
AnchorPoint: "Anchor-2" 1128 1098 basechar 0
AnchorPoint: "Anchor-1" 586 0 basechar 0
AnchorPoint: "Anchor-0" 586 1536 basechar 0
LayerCount: 2
Fore
SplineSet
823 1282 m 0
 757 1282 700 1317 700 1409 c 0
 700 1503 757 1536 823 1536 c 0
 884 1536 944 1503 944 1409 c 0
 944 1317 884 1282 823 1282 c 0
401 1282 m 0
 338 1282 281 1317 281 1409 c 0
 281 1503 338 1536 401 1536 c 0
 464 1536 524 1503 524 1409 c 0
 524 1317 464 1282 401 1282 c 0
627 -20 m 0
 279 -20 96 187 96 543 c 0
 96 928 280 1124 604 1124 c 0
 901 1124 1083 957 1083 631 c 2
 1083 526 l 1
 412 526 l 1
 420 252 516 133 686 133 c 0
 827 133 928 205 975 299 c 1
 1012 279 1030 244 1030 199 c 0
 1030 82 903 -20 627 -20 c 0
770 657 m 1
 770 866 725 991 608 991 c 0
 493 991 422 874 416 657 c 1
 770 657 l 1
EndSplineSet
Substitution2: "'smcp' Lowercase to Small Capitals lookup 38 subtable" edieresis.sc
Substitution2: "'aalt' Access All Alternates lookup 0 subtable" edieresis.sc
EndChar

StartChar: igrave
Encoding: 236 236 174
Width: 720
GlyphClass: 2
Flags: HW
AnchorPoint: "Anchor-3" 360 549 basechar 0
AnchorPoint: "Anchor-1" 360 0 basechar 0
AnchorPoint: "Anchor-0" 360 1569 basechar 0
LayerCount: 2
Fore
SplineSet
369 1241 m 1
 240 1315 39 1476 -12 1548 c 1
 -12 1569 l 1
 309 1569 l 1
 352 1477 449 1346 508 1268 c 1
 508 1241 l 1
 369 1241 l 1
35 0 m 1
 35 109 l 1
 59 109 l 2
 118 109 205 125 205 242 c 2
 205 864 l 2
 205 973 116 989 59 989 c 2
 35 989 l 1
 35 1098 l 1
 516 1098 l 1
 516 242 l 2
 516 125 603 109 662 109 c 2
 686 109 l 1
 686 0 l 1
 35 0 l 1
EndSplineSet
Substitution2: "'smcp' Lowercase to Small Capitals lookup 38 subtable" igrave.sc
Substitution2: "'aalt' Access All Alternates lookup 0 subtable" igrave.sc
EndChar

StartChar: iacute
Encoding: 237 237 175
Width: 720
GlyphClass: 2
Flags: HW
AnchorPoint: "Anchor-3" 360 549 basechar 0
AnchorPoint: "Anchor-1" 360 0 basechar 0
AnchorPoint: "Anchor-0" 360 1569 basechar 0
LayerCount: 2
Fore
SplineSet
201 1268 m 1
 260 1346 356 1477 399 1569 c 1
 721 1569 l 1
 721 1548 l 1
 670 1476 469 1315 340 1241 c 1
 201 1241 l 1
 201 1268 l 1
35 0 m 1
 35 109 l 1
 59 109 l 2
 118 109 205 125 205 242 c 2
 205 864 l 2
 205 973 116 989 59 989 c 2
 35 989 l 1
 35 1098 l 1
 516 1098 l 1
 516 242 l 2
 516 125 603 109 662 109 c 2
 686 109 l 1
 686 0 l 1
 35 0 l 1
EndSplineSet
Substitution2: "'smcp' Lowercase to Small Capitals lookup 38 subtable" iacute.sc
Substitution2: "'aalt' Access All Alternates lookup 0 subtable" iacute.sc
EndChar

StartChar: icircumflex
Encoding: 238 238 176
Width: 720
GlyphClass: 2
Flags: HW
AnchorPoint: "Anchor-3" 360 549 basechar 0
AnchorPoint: "Anchor-1" 360 0 basechar 0
AnchorPoint: "Anchor-0" 360 1569 basechar 0
LayerCount: 2
Fore
SplineSet
-31 1268 m 1
 32 1346 152 1477 195 1569 c 1
 471 1569 l 1
 514 1477 633 1346 696 1268 c 1
 696 1241 l 1
 555 1241 l 1
 498 1286 393 1370 332 1425 c 1
 271 1370 168 1286 111 1241 c 1
 -31 1241 l 1
 -31 1268 l 1
35 0 m 1
 35 109 l 1
 59 109 l 2
 118 109 205 125 205 242 c 2
 205 864 l 2
 205 973 116 989 59 989 c 2
 35 989 l 1
 35 1098 l 1
 516 1098 l 1
 516 242 l 2
 516 125 603 109 662 109 c 2
 686 109 l 1
 686 0 l 1
 35 0 l 1
EndSplineSet
Substitution2: "'smcp' Lowercase to Small Capitals lookup 38 subtable" icircumflex.sc
Substitution2: "'aalt' Access All Alternates lookup 0 subtable" icircumflex.sc
EndChar

StartChar: idieresis
Encoding: 239 239 177
Width: 720
GlyphClass: 2
Flags: HW
AnchorPoint: "Anchor-3" 360 549 basechar 0
AnchorPoint: "Anchor-1" 360 0 basechar 0
AnchorPoint: "Anchor-0" 360 1536 basechar 0
LayerCount: 2
Fore
SplineSet
541 1282 m 0
 475 1282 418 1317 418 1409 c 0
 418 1503 475 1536 541 1536 c 0
 602 1536 662 1503 662 1409 c 0
 662 1317 602 1282 541 1282 c 0
119 1282 m 0
 56 1282 -2 1317 -2 1409 c 0
 -2 1503 56 1536 119 1536 c 0
 182 1536 242 1503 242 1409 c 0
 242 1317 182 1282 119 1282 c 0
35 0 m 1
 35 109 l 1
 59 109 l 2
 118 109 205 125 205 242 c 2
 205 864 l 2
 205 973 116 989 59 989 c 2
 35 989 l 1
 35 1098 l 1
 516 1098 l 1
 516 242 l 2
 516 125 603 109 662 109 c 2
 686 109 l 1
 686 0 l 1
 35 0 l 1
EndSplineSet
Substitution2: "'smcp' Lowercase to Small Capitals lookup 38 subtable" idieresis.sc
Substitution2: "'aalt' Access All Alternates lookup 0 subtable" idieresis.sc
EndChar

StartChar: eth
Encoding: 240 240 178
Width: 1255
GlyphClass: 2
Flags: HW
AnchorPoint: "Anchor-3" 627 770 basechar 0
AnchorPoint: "Anchor-1" 629 0 basechar 0
AnchorPoint: "Anchor-0" 629 1561 basechar 0
LayerCount: 2
Fore
SplineSet
623 -20 m 0
 297 -20 96 155 96 522 c 0
 96 884 273 1063 590 1063 c 0
 680 1063 762 1039 813 1008 c 1
 784 1096 743 1182 639 1268 c 1
 350 1120 l 1
 350 1253 l 1
 532 1348 l 1
 464 1391 391 1414 291 1430 c 1
 291 1559 l 1
 391 1551 588 1496 692 1430 c 1
 950 1561 l 1
 950 1425 l 1
 807 1352 l 1
 1016 1190 1159 924 1159 596 c 0
 1159 180 973 -20 623 -20 c 0
629 109 m 0
 785 109 844 250 844 520 c 0
 844 799 785 932 627 932 c 0
 471 932 414 805 414 520 c 0
 414 250 471 109 629 109 c 0
EndSplineSet
Substitution2: "'smcp' Lowercase to Small Capitals lookup 38 subtable" eth.sc
Substitution2: "'aalt' Access All Alternates lookup 0 subtable" eth.sc
EndChar

StartChar: ntilde
Encoding: 241 241 179
Width: 1366
GlyphClass: 2
Flags: HW
AnchorPoint: "Anchor-3" 676 561 basechar 0
AnchorPoint: "Anchor-2" 1305 1098 basechar 0
AnchorPoint: "Anchor-1" 684 0 basechar 0
AnchorPoint: "Anchor-0" 684 1565 basechar 0
LayerCount: 2
Fore
SplineSet
819 1241 m 0
 672 1241 586 1370 498 1370 c 0
 437 1370 405 1317 397 1262 c 1
 264 1262 l 1
 272 1428 375 1565 522 1565 c 0
 667 1565 756 1436 842 1436 c 0
 901 1436 934 1489 942 1544 c 1
 1075 1544 l 1
 1067 1378 964 1241 819 1241 c 0
41 0 m 1
 41 109 l 1
 45 109 l 2
 137 109 205 127 205 250 c 2
 205 856 l 2
 205 971 147 989 57 989 c 2
 51 989 l 1
 51 1098 l 1
 481 1098 l 1
 508 952 l 1
 518 952 l 1
 600 1106 702 1124 831 1124 c 0
 1042 1124 1169 1005 1169 729 c 2
 1169 254 l 2
 1169 127 1215 109 1307 109 c 2
 1313 109 l 1
 1313 0 l 1
 858 0 l 1
 858 674 l 2
 858 850 815 950 694 950 c 0
 559 950 516 801 516 633 c 2
 516 242 l 2
 516 127 574 109 664 109 c 2
 670 109 l 1
 670 0 l 1
 41 0 l 1
EndSplineSet
Substitution2: "'smcp' Lowercase to Small Capitals lookup 38 subtable" ntilde.sc
Substitution2: "'aalt' Access All Alternates lookup 0 subtable" ntilde.sc
EndChar

StartChar: ograve
Encoding: 242 242 180
Width: 1255
GlyphClass: 2
Flags: HW
AnchorPoint: "Anchor-3" 629 549 basechar 0
AnchorPoint: "Anchor-2" 1214 1098 basechar 0
AnchorPoint: "Anchor-1" 629 0 basechar 0
AnchorPoint: "Anchor-0" 629 1569 basechar 0
LayerCount: 2
Fore
SplineSet
616 1241 m 1
 487 1315 287 1476 236 1548 c 1
 236 1569 l 1
 557 1569 l 1
 600 1477 697 1346 756 1268 c 1
 756 1241 l 1
 616 1241 l 1
625 -20 m 0
 297 -20 96 168 96 553 c 0
 96 938 279 1124 631 1124 c 0
 959 1124 1159 938 1159 553 c 0
 1159 168 975 -20 625 -20 c 0
629 109 m 0
 787 109 842 262 842 553 c 0
 842 846 785 993 627 993 c 0
 469 993 414 846 414 553 c 0
 414 262 471 109 629 109 c 0
EndSplineSet
Substitution2: "'smcp' Lowercase to Small Capitals lookup 38 subtable" ograve.sc
Substitution2: "'aalt' Access All Alternates lookup 0 subtable" ograve.sc
EndChar

StartChar: oacute
Encoding: 243 243 181
Width: 1255
GlyphClass: 2
Flags: HW
AnchorPoint: "Anchor-3" 629 549 basechar 0
AnchorPoint: "Anchor-2" 1214 1098 basechar 0
AnchorPoint: "Anchor-1" 629 0 basechar 0
AnchorPoint: "Anchor-0" 629 1569 basechar 0
LayerCount: 2
Fore
SplineSet
504 1268 m 1
 563 1346 659 1477 702 1569 c 1
 1024 1569 l 1
 1024 1548 l 1
 973 1476 772 1315 643 1241 c 1
 504 1241 l 1
 504 1268 l 1
625 -20 m 0
 297 -20 96 168 96 553 c 0
 96 938 279 1124 631 1124 c 0
 959 1124 1159 938 1159 553 c 0
 1159 168 975 -20 625 -20 c 0
629 109 m 0
 787 109 842 262 842 553 c 0
 842 846 785 993 627 993 c 0
 469 993 414 846 414 553 c 0
 414 262 471 109 629 109 c 0
EndSplineSet
Substitution2: "'smcp' Lowercase to Small Capitals lookup 38 subtable" oacute.sc
Substitution2: "'aalt' Access All Alternates lookup 0 subtable" oacute.sc
EndChar

StartChar: ocircumflex
Encoding: 244 244 182
Width: 1255
GlyphClass: 2
Flags: HW
AnchorPoint: "Anchor-3" 629 549 basechar 0
AnchorPoint: "Anchor-2" 1214 1098 basechar 0
AnchorPoint: "Anchor-1" 629 0 basechar 0
AnchorPoint: "Anchor-0" 629 1569 basechar 0
LayerCount: 2
Fore
SplineSet
262 1268 m 1
 325 1346 444 1477 487 1569 c 1
 764 1569 l 1
 807 1477 926 1346 989 1268 c 1
 989 1241 l 1
 848 1241 l 1
 791 1286 686 1370 625 1425 c 1
 564 1370 460 1286 403 1241 c 1
 262 1241 l 1
 262 1268 l 1
625 -20 m 0
 297 -20 96 168 96 553 c 0
 96 938 279 1124 631 1124 c 0
 959 1124 1159 938 1159 553 c 0
 1159 168 975 -20 625 -20 c 0
629 109 m 0
 787 109 842 262 842 553 c 0
 842 846 785 993 627 993 c 0
 469 993 414 846 414 553 c 0
 414 262 471 109 629 109 c 0
EndSplineSet
Substitution2: "'smcp' Lowercase to Small Capitals lookup 38 subtable" ocircumflex.sc
Substitution2: "'aalt' Access All Alternates lookup 0 subtable" ocircumflex.sc
EndChar

StartChar: otilde
Encoding: 245 245 183
Width: 1255
GlyphClass: 2
Flags: HW
AnchorPoint: "Anchor-3" 629 549 basechar 0
AnchorPoint: "Anchor-2" 1214 1098 basechar 0
AnchorPoint: "Anchor-1" 629 0 basechar 0
AnchorPoint: "Anchor-0" 629 1565 basechar 0
LayerCount: 2
Fore
SplineSet
772 1241 m 0
 625 1241 539 1370 451 1370 c 0
 390 1370 358 1317 350 1262 c 1
 217 1262 l 1
 225 1428 328 1565 475 1565 c 0
 620 1565 709 1436 795 1436 c 0
 854 1436 887 1489 895 1544 c 1
 1028 1544 l 1
 1020 1378 917 1241 772 1241 c 0
625 -20 m 0
 297 -20 96 168 96 553 c 0
 96 938 279 1124 631 1124 c 0
 959 1124 1159 938 1159 553 c 0
 1159 168 975 -20 625 -20 c 0
629 109 m 0
 787 109 842 262 842 553 c 0
 842 846 785 993 627 993 c 0
 469 993 414 846 414 553 c 0
 414 262 471 109 629 109 c 0
EndSplineSet
Substitution2: "'smcp' Lowercase to Small Capitals lookup 38 subtable" otilde.sc
Substitution2: "'aalt' Access All Alternates lookup 0 subtable" otilde.sc
EndChar

StartChar: odieresis
Encoding: 246 246 184
Width: 1255
GlyphClass: 2
Flags: HW
AnchorPoint: "Anchor-3" 629 549 basechar 0
AnchorPoint: "Anchor-2" 1214 1098 basechar 0
AnchorPoint: "Anchor-1" 629 0 basechar 0
AnchorPoint: "Anchor-0" 629 1536 basechar 0
LayerCount: 2
Fore
SplineSet
836 1282 m 0
 770 1282 713 1317 713 1409 c 0
 713 1503 770 1536 836 1536 c 0
 897 1536 956 1503 956 1409 c 0
 956 1317 897 1282 836 1282 c 0
414 1282 m 0
 351 1282 293 1317 293 1409 c 0
 293 1503 351 1536 414 1536 c 0
 477 1536 537 1503 537 1409 c 0
 537 1317 477 1282 414 1282 c 0
625 -20 m 0
 297 -20 96 168 96 553 c 0
 96 938 279 1124 631 1124 c 0
 959 1124 1159 938 1159 553 c 0
 1159 168 975 -20 625 -20 c 0
629 109 m 0
 787 109 842 262 842 553 c 0
 842 846 785 993 627 993 c 0
 469 993 414 846 414 553 c 0
 414 262 471 109 629 109 c 0
EndSplineSet
Substitution2: "'smcp' Lowercase to Small Capitals lookup 38 subtable" odieresis.sc
Substitution2: "'aalt' Access All Alternates lookup 0 subtable" odieresis.sc
EndChar

StartChar: divide
Encoding: 247 247 185
Width: 1144
GlyphClass: 1
Flags: HW
LayerCount: 2
Fore
SplineSet
573 995 m 0
 507 995 459 1028 459 1120 c 0
 459 1214 507 1245 573 1245 c 0
 636 1245 688 1214 688 1120 c 0
 688 1028 636 995 573 995 c 0
133 659 m 1
 133 805 l 1
 1012 805 l 1
 1012 659 l 1
 133 659 l 1
573 219 m 0
 507 219 459 252 459 344 c 0
 459 438 507 469 573 469 c 0
 636 469 688 438 688 344 c 0
 688 252 636 219 573 219 c 0
EndSplineSet
EndChar

StartChar: oslash
Encoding: 248 248 186
Width: 1255
GlyphClass: 2
Flags: HW
AnchorPoint: "Anchor-3" 627 549 basechar 0
AnchorPoint: "Anchor-1" 629 0 basechar 0
AnchorPoint: "Anchor-0" 629 1098 basechar 0
LayerCount: 2
Fore
SplineSet
274 86 m 1
 159 180 96 336 96 553 c 0
 96 938 279 1124 631 1124 c 0
 727 1124 813 1108 885 1075 c 1
 950 1180 l 1
 1094 1180 l 1
 989 1008 l 1
 1098 914 1159 764 1159 553 c 0
 1159 168 975 -20 625 -20 c 0
 533 -20 453 -6 383 23 c 1
 317 -82 l 1
 172 -82 l 1
 274 86 l 1
780 907 m 1
 745 964 697 993 627 993 c 0
 469 993 414 846 414 553 c 0
 414 469 418 395 428 336 c 1
 780 907 l 1
629 109 m 0
 787 109 842 262 842 553 c 0
 842 627 837 693 829 750 c 1
 481 184 l 1
 516 133 563 109 629 109 c 0
EndSplineSet
Substitution2: "'smcp' Lowercase to Small Capitals lookup 38 subtable" oslash.sc
Substitution2: "'aalt' Access All Alternates lookup 0 subtable" oslash.sc
EndChar

StartChar: ugrave
Encoding: 249 249 187
Width: 1366
GlyphClass: 2
Flags: HW
AnchorPoint: "Anchor-3" 684 539 basechar 0
AnchorPoint: "Anchor-2" 1305 1098 basechar 0
AnchorPoint: "Anchor-1" 684 0 basechar 0
AnchorPoint: "Anchor-0" 684 1569 basechar 0
LayerCount: 2
Fore
SplineSet
633 1241 m 1
 504 1315 303 1476 252 1548 c 1
 252 1569 l 1
 573 1569 l 1
 616 1477 713 1346 772 1268 c 1
 772 1241 l 1
 633 1241 l 1
528 -20 m 0
 315 -20 197 109 197 385 c 2
 197 844 l 2
 197 963 155 989 57 989 c 2
 53 989 l 1
 53 1098 l 1
 508 1098 l 1
 508 442 l 2
 508 266 543 154 664 154 c 0
 795 154 850 275 850 465 c 2
 850 858 l 2
 850 977 782 989 702 989 c 2
 696 989 l 1
 696 1098 l 1
 1161 1098 l 1
 1161 238 l 2
 1161 119 1218 109 1298 109 c 2
 1315 109 l 1
 1315 0 l 1
 907 0 l 1
 862 145 l 1
 852 145 l 1
 770 4 657 -20 528 -20 c 0
EndSplineSet
Substitution2: "'smcp' Lowercase to Small Capitals lookup 38 subtable" ugrave.sc
Substitution2: "'aalt' Access All Alternates lookup 0 subtable" ugrave.sc
EndChar

StartChar: uacute
Encoding: 250 250 188
Width: 1366
GlyphClass: 2
Flags: HW
AnchorPoint: "Anchor-3" 684 539 basechar 0
AnchorPoint: "Anchor-2" 1305 1098 basechar 0
AnchorPoint: "Anchor-1" 684 0 basechar 0
AnchorPoint: "Anchor-0" 684 1569 basechar 0
LayerCount: 2
Fore
SplineSet
526 1268 m 1
 585 1346 682 1477 725 1569 c 1
 1047 1569 l 1
 1047 1548 l 1
 996 1476 795 1315 666 1241 c 1
 526 1241 l 1
 526 1268 l 1
528 -20 m 0
 315 -20 197 109 197 385 c 2
 197 844 l 2
 197 963 155 989 57 989 c 2
 53 989 l 1
 53 1098 l 1
 508 1098 l 1
 508 442 l 2
 508 266 543 154 664 154 c 0
 795 154 850 275 850 465 c 2
 850 858 l 2
 850 977 782 989 702 989 c 2
 696 989 l 1
 696 1098 l 1
 1161 1098 l 1
 1161 238 l 2
 1161 119 1218 109 1298 109 c 2
 1315 109 l 1
 1315 0 l 1
 907 0 l 1
 862 145 l 1
 852 145 l 1
 770 4 657 -20 528 -20 c 0
EndSplineSet
Substitution2: "'smcp' Lowercase to Small Capitals lookup 38 subtable" uacute.sc
Substitution2: "'aalt' Access All Alternates lookup 0 subtable" uacute.sc
EndChar

StartChar: ucircumflex
Encoding: 251 251 189
Width: 1366
GlyphClass: 2
Flags: HW
AnchorPoint: "Anchor-3" 684 539 basechar 0
AnchorPoint: "Anchor-2" 1305 1098 basechar 0
AnchorPoint: "Anchor-1" 684 0 basechar 0
AnchorPoint: "Anchor-0" 684 1569 basechar 0
LayerCount: 2
Fore
SplineSet
295 1268 m 1
 358 1346 477 1477 520 1569 c 1
 797 1569 l 1
 840 1477 959 1346 1022 1268 c 1
 1022 1241 l 1
 881 1241 l 1
 824 1286 718 1370 657 1425 c 1
 596 1370 493 1286 436 1241 c 1
 295 1241 l 1
 295 1268 l 1
528 -20 m 0
 315 -20 197 109 197 385 c 2
 197 844 l 2
 197 963 155 989 57 989 c 2
 53 989 l 1
 53 1098 l 1
 508 1098 l 1
 508 442 l 2
 508 266 543 154 664 154 c 0
 795 154 850 275 850 465 c 2
 850 858 l 2
 850 977 782 989 702 989 c 2
 696 989 l 1
 696 1098 l 1
 1161 1098 l 1
 1161 238 l 2
 1161 119 1218 109 1298 109 c 2
 1315 109 l 1
 1315 0 l 1
 907 0 l 1
 862 145 l 1
 852 145 l 1
 770 4 657 -20 528 -20 c 0
EndSplineSet
Substitution2: "'smcp' Lowercase to Small Capitals lookup 38 subtable" ucircumflex.sc
Substitution2: "'aalt' Access All Alternates lookup 0 subtable" ucircumflex.sc
EndChar

StartChar: udieresis
Encoding: 252 252 190
Width: 1366
GlyphClass: 2
Flags: HW
AnchorPoint: "Anchor-3" 684 539 basechar 0
AnchorPoint: "Anchor-2" 1305 1098 basechar 0
AnchorPoint: "Anchor-1" 684 0 basechar 0
AnchorPoint: "Anchor-0" 684 1536 basechar 0
LayerCount: 2
Fore
SplineSet
874 1282 m 0
 808 1282 752 1317 752 1409 c 0
 752 1503 808 1536 874 1536 c 0
 935 1536 995 1503 995 1409 c 0
 995 1317 935 1282 874 1282 c 0
453 1282 m 0
 390 1282 332 1317 332 1409 c 0
 332 1503 390 1536 453 1536 c 0
 516 1536 575 1503 575 1409 c 0
 575 1317 516 1282 453 1282 c 0
528 -20 m 0
 315 -20 197 109 197 385 c 2
 197 844 l 2
 197 963 155 989 57 989 c 2
 53 989 l 1
 53 1098 l 1
 508 1098 l 1
 508 442 l 2
 508 266 543 154 664 154 c 0
 795 154 850 275 850 465 c 2
 850 858 l 2
 850 977 782 989 702 989 c 2
 696 989 l 1
 696 1098 l 1
 1161 1098 l 1
 1161 238 l 2
 1161 119 1218 109 1298 109 c 2
 1315 109 l 1
 1315 0 l 1
 907 0 l 1
 862 145 l 1
 852 145 l 1
 770 4 657 -20 528 -20 c 0
EndSplineSet
Substitution2: "'smcp' Lowercase to Small Capitals lookup 38 subtable" udieresis.sc
Substitution2: "'aalt' Access All Alternates lookup 0 subtable" udieresis.sc
EndChar

StartChar: yacute
Encoding: 253 253 191
Width: 1185
GlyphClass: 2
Flags: HW
AnchorPoint: "Anchor-3" 592 303 basechar 0
AnchorPoint: "Anchor-2" 1186 1098 basechar 0
AnchorPoint: "Anchor-1" 594 -492 basechar 0
AnchorPoint: "Anchor-0" 594 1569 basechar 0
LayerCount: 2
Fore
SplineSet
463 1268 m 1
 522 1346 619 1477 662 1569 c 1
 983 1569 l 1
 983 1548 l 1
 932 1476 731 1315 602 1241 c 1
 463 1241 l 1
 463 1268 l 1
55 -373 m 1
 340 -373 442 -227 508 -10 c 1
 139 891 l 2
 108 963 65 975 8 977 c 2
 0 977 l 1
 0 1098 l 1
 584 1098 l 1
 584 989 l 1
 578 989 l 2
 502 989 455 970 455 913 c 0
 455 890 467 854 475 834 c 2
 616 459 l 2
 655 355 668 297 674 242 c 1
 678 299 711 386 719 406 c 2
 854 807 l 2
 864 834 874 882 874 907 c 0
 874 966 823 987 733 989 c 2
 725 989 l 1
 725 1098 l 1
 1186 1098 l 1
 1186 989 l 1
 1178 989 l 2
 1102 987 1063 951 1022 840 c 2
 713 0 l 2
 570 -397 493 -492 90 -492 c 2
 55 -492 l 1
 55 -373 l 1
EndSplineSet
Substitution2: "'smcp' Lowercase to Small Capitals lookup 38 subtable" yacute.sc
Substitution2: "'aalt' Access All Alternates lookup 0 subtable" yacute.sc
EndChar

StartChar: thorn
Encoding: 254 254 192
Width: 1320
GlyphClass: 2
Flags: HW
AnchorPoint: "Anchor-3" 625 532 basechar 0
AnchorPoint: "Anchor-1" 662 -492 basechar 0
AnchorPoint: "Anchor-0" 662 1556 basechar 0
LayerCount: 2
Fore
SplineSet
27 -492 m 1
 27 -383 l 1
 51 -383 l 2
 110 -383 197 -367 197 -250 c 2
 197 1305 l 2
 197 1430 137 1448 59 1448 c 2
 45 1448 l 1
 45 1556 l 1
 508 1556 l 1
 508 1180 l 2
 508 1104 483 938 483 938 c 1
 492 938 l 1
 551 1044 647 1118 805 1118 c 0
 1077 1118 1225 942 1225 545 c 0
 1225 150 1079 -25 813 -25 c 0
 657 -25 565 39 506 139 c 1
 492 139 l 1
 492 139 508 -23 508 -109 c 2
 508 -250 l 2
 508 -367 594 -383 653 -383 c 2
 698 -383 l 1
 698 -492 l 1
 27 -492 l 1
717 127 m 0
 854 127 909 264 909 543 c 0
 909 815 854 965 719 965 c 0
 555 965 508 815 508 545 c 0
 508 262 555 127 717 127 c 0
EndSplineSet
Substitution2: "'smcp' Lowercase to Small Capitals lookup 38 subtable" thorn.sc
Substitution2: "'aalt' Access All Alternates lookup 0 subtable" thorn.sc
EndChar

StartChar: ydieresis
Encoding: 255 255 193
Width: 1185
GlyphClass: 2
Flags: HW
AnchorPoint: "Anchor-3" 592 303 basechar 0
AnchorPoint: "Anchor-2" 1186 1098 basechar 0
AnchorPoint: "Anchor-1" 594 -492 basechar 0
AnchorPoint: "Anchor-0" 594 1536 basechar 0
LayerCount: 2
Fore
SplineSet
825 1282 m 0
 759 1282 702 1317 702 1409 c 0
 702 1503 759 1536 825 1536 c 0
 886 1536 946 1503 946 1409 c 0
 946 1317 886 1282 825 1282 c 0
403 1282 m 0
 340 1282 283 1317 283 1409 c 0
 283 1503 340 1536 403 1536 c 0
 466 1536 526 1503 526 1409 c 0
 526 1317 466 1282 403 1282 c 0
55 -373 m 1
 340 -373 442 -227 508 -10 c 1
 139 891 l 2
 108 963 65 975 8 977 c 2
 0 977 l 1
 0 1098 l 1
 584 1098 l 1
 584 989 l 1
 578 989 l 2
 502 989 455 970 455 913 c 0
 455 890 467 854 475 834 c 2
 616 459 l 2
 655 355 668 297 674 242 c 1
 678 299 711 386 719 406 c 2
 854 807 l 2
 864 834 874 882 874 907 c 0
 874 966 823 987 733 989 c 2
 725 989 l 1
 725 1098 l 1
 1186 1098 l 1
 1186 989 l 1
 1178 989 l 2
 1102 987 1063 951 1022 840 c 2
 713 0 l 2
 570 -397 493 -492 90 -492 c 2
 55 -492 l 1
 55 -373 l 1
EndSplineSet
Substitution2: "'smcp' Lowercase to Small Capitals lookup 38 subtable" ydieresis.sc
Substitution2: "'aalt' Access All Alternates lookup 0 subtable" ydieresis.sc
EndChar

StartChar: Amacron
Encoding: 256 256 194
Width: 1542
GlyphClass: 2
Flags: HW
AnchorPoint: "Anchor-3" 774 731 basechar 0
AnchorPoint: "Anchor-2" 1235 1462 basechar 0
AnchorPoint: "Anchor-1" 772 0 basechar 0
AnchorPoint: "Anchor-0" 772 1741 basechar 0
LayerCount: 2
Fore
SplineSet
471 1579 m 1
 471 1741 l 1
 1065 1741 l 1
 1065 1579 l 1
 471 1579 l 1
8 0 m 1
 8 109 l 1
 33 109 l 2
 107 109 152 135 197 258 c 2
 641 1462 l 1
 922 1462 l 1
 1350 256 l 2
 1391 141 1439 109 1505 109 c 2
 1542 109 l 1
 1542 0 l 1
 866 0 l 1
 866 109 l 1
 946 109 l 2
 987 109 1034 131 1034 188 c 0
 1034 221 1024 253 1016 276 c 2
 944 481 l 1
 446 481 l 1
 387 305 l 2
 377 272 362 221 362 188 c 0
 362 135 408 109 455 109 c 2
 541 109 l 1
 541 0 l 1
 8 0 l 1
489 606 m 1
 903 606 l 1
 795 942 l 2
 766 1034 730 1159 707 1255 c 1
 682 1167 643 1046 610 952 c 2
 489 606 l 1
EndSplineSet
Substitution2: "'c2sc' Capitals to Small Capitals lookup 37 subtable" amacron.sc
Substitution2: "'aalt' Access All Alternates lookup 0 subtable" amacron.sc
EndChar

StartChar: amacron
Encoding: 257 257 195
Width: 1226
GlyphClass: 2
Flags: HW
AnchorPoint: "Anchor-3" 627 551 basechar 0
AnchorPoint: "Anchor-2" 1186 1098 basechar 0
AnchorPoint: "Anchor-1" 614 0 basechar 0
AnchorPoint: "Anchor-0" 614 1403 basechar 0
LayerCount: 2
Fore
SplineSet
291 1241 m 1
 291 1403 l 1
 885 1403 l 1
 885 1241 l 1
 291 1241 l 1
414 -20 m 0
 234 -20 92 86 92 313 c 0
 92 534 244 637 551 647 c 2
 719 653 l 1
 719 766 l 2
 719 903 705 999 592 999 c 0
 488 999 455 905 455 778 c 1
 273 778 178 815 178 915 c 0
 178 1065 369 1124 600 1124 c 0
 887 1124 1030 1032 1030 776 c 2
 1030 254 l 2
 1030 141 1061 109 1153 109 c 2
 1161 109 l 1
 1161 0 l 1
 780 0 l 1
 737 141 l 1
 719 141 l 1
 629 30 570 -20 414 -20 c 0
526 129 m 0
 643 129 719 231 719 391 c 2
 719 545 l 1
 627 539 l 2
 463 531 410 452 410 305 c 0
 410 188 446 129 526 129 c 0
EndSplineSet
Substitution2: "'smcp' Lowercase to Small Capitals lookup 38 subtable" amacron.sc
Substitution2: "'aalt' Access All Alternates lookup 0 subtable" amacron.sc
EndChar

StartChar: Abreve
Encoding: 258 258 196
Width: 1542
GlyphClass: 2
Flags: HW
AnchorPoint: "Anchor-3" 774 731 basechar 0
AnchorPoint: "Anchor-2" 1235 1462 basechar 0
AnchorPoint: "Anchor-1" 772 0 basechar 0
AnchorPoint: "Anchor-0" 772 1901 basechar 0
LayerCount: 2
Fore
SplineSet
778 1579 m 0
 563 1579 455 1747 451 1901 c 1
 586 1901 l 1
 609 1803 678 1761 778 1761 c 0
 878 1761 948 1803 971 1901 c 1
 1106 1901 l 1
 1102 1747 993 1579 778 1579 c 0
8 0 m 1
 8 109 l 1
 33 109 l 2
 107 109 152 135 197 258 c 2
 641 1462 l 1
 922 1462 l 1
 1350 256 l 2
 1391 141 1439 109 1505 109 c 2
 1542 109 l 1
 1542 0 l 1
 866 0 l 1
 866 109 l 1
 946 109 l 2
 987 109 1034 131 1034 188 c 0
 1034 221 1024 253 1016 276 c 2
 944 481 l 1
 446 481 l 1
 387 305 l 2
 377 272 362 221 362 188 c 0
 362 135 408 109 455 109 c 2
 541 109 l 1
 541 0 l 1
 8 0 l 1
489 606 m 1
 903 606 l 1
 795 942 l 2
 766 1034 730 1159 707 1255 c 1
 682 1167 643 1046 610 952 c 2
 489 606 l 1
EndSplineSet
Substitution2: "'c2sc' Capitals to Small Capitals lookup 37 subtable" abreve.sc
Substitution2: "'aalt' Access All Alternates lookup 0 subtable" abreve.sc
EndChar

StartChar: abreve
Encoding: 259 259 197
Width: 1226
GlyphClass: 2
Flags: HW
AnchorPoint: "Anchor-3" 627 551 basechar 0
AnchorPoint: "Anchor-2" 1186 1098 basechar 0
AnchorPoint: "Anchor-1" 614 0 basechar 0
AnchorPoint: "Anchor-0" 614 1563 basechar 0
LayerCount: 2
Fore
SplineSet
584 1241 m 0
 369 1241 260 1409 256 1563 c 1
 391 1563 l 1
 414 1465 484 1423 584 1423 c 0
 684 1423 753 1465 776 1563 c 1
 911 1563 l 1
 907 1409 799 1241 584 1241 c 0
414 -20 m 0
 234 -20 92 86 92 313 c 0
 92 534 244 637 551 647 c 2
 719 653 l 1
 719 766 l 2
 719 903 705 999 592 999 c 0
 488 999 455 905 455 778 c 1
 273 778 178 815 178 915 c 0
 178 1065 369 1124 600 1124 c 0
 887 1124 1030 1032 1030 776 c 2
 1030 254 l 2
 1030 141 1061 109 1153 109 c 2
 1161 109 l 1
 1161 0 l 1
 780 0 l 1
 737 141 l 1
 719 141 l 1
 629 30 570 -20 414 -20 c 0
526 129 m 0
 643 129 719 231 719 391 c 2
 719 545 l 1
 627 539 l 2
 463 531 410 452 410 305 c 0
 410 188 446 129 526 129 c 0
EndSplineSet
Substitution2: "'smcp' Lowercase to Small Capitals lookup 38 subtable" abreve.sc
Substitution2: "'aalt' Access All Alternates lookup 0 subtable" abreve.sc
EndChar

StartChar: Aogonek
Encoding: 260 260 198
Width: 1542
GlyphClass: 2
Flags: HW
AnchorPoint: "Anchor-3" 774 731 basechar 0
AnchorPoint: "Anchor-2" 1235 1462 basechar 0
AnchorPoint: "Anchor-1" 772 -492 basechar 0
AnchorPoint: "Anchor-0" 772 1462 basechar 0
LayerCount: 2
Fore
SplineSet
8 0 m 1
 8 109 l 1
 33 109 l 2
 107 109 152 135 197 258 c 2
 641 1462 l 1
 922 1462 l 1
 1350 256 l 2
 1391 141 1439 109 1505 109 c 2
 1542 109 l 1
 1542 0 l 1
 1403 0 l 1
 1317 -27 1212 -107 1212 -236 c 0
 1212 -312 1272 -344 1354 -344 c 0
 1391 -344 1434 -338 1483 -328 c 1
 1483 -459 l 1
 1440 -479 1352 -492 1309 -492 c 0
 1110 -492 1004 -422 1004 -266 c 0
 1004 -139 1120 -29 1245 0 c 1
 866 0 l 1
 866 109 l 1
 946 109 l 2
 987 109 1034 131 1034 188 c 0
 1034 221 1024 253 1016 276 c 2
 944 481 l 1
 446 481 l 1
 387 305 l 2
 377 272 362 221 362 188 c 0
 362 135 408 109 455 109 c 2
 541 109 l 1
 541 0 l 1
 8 0 l 1
489 606 m 1
 903 606 l 1
 795 942 l 2
 766 1034 730 1159 707 1255 c 1
 682 1167 643 1046 610 952 c 2
 489 606 l 1
EndSplineSet
Substitution2: "'c2sc' Capitals to Small Capitals lookup 37 subtable" aogonek.sc
Substitution2: "'locl' Localized Forms in Latin lookup 6 subtable" Aogonek.loclNAV
AlternateSubs2: "'aalt' Access All Alternates lookup 1 subtable" Aogonek.loclNAV aogonek.sc
EndChar

StartChar: aogonek
Encoding: 261 261 199
Width: 1226
GlyphClass: 2
Flags: HW
AnchorPoint: "Anchor-3" 627 551 basechar 0
AnchorPoint: "Anchor-2" 1186 1098 basechar 0
AnchorPoint: "Anchor-1" 614 -492 basechar 0
AnchorPoint: "Anchor-0" 614 1098 basechar 0
LayerCount: 2
Fore
SplineSet
414 -20 m 0
 234 -20 92 86 92 313 c 0
 92 534 244 637 551 647 c 2
 719 653 l 1
 719 766 l 2
 719 903 705 999 592 999 c 0
 488 999 455 905 455 778 c 1
 273 778 178 815 178 915 c 0
 178 1065 369 1124 600 1124 c 0
 887 1124 1030 1032 1030 776 c 2
 1030 254 l 2
 1030 141 1061 109 1153 109 c 2
 1161 109 l 1
 1161 0 l 1
 938 0 l 1
 852 -27 748 -107 748 -236 c 0
 748 -312 807 -344 889 -344 c 0
 926 -344 969 -338 1018 -328 c 1
 1018 -459 l 1
 975 -479 887 -492 844 -492 c 0
 645 -492 539 -422 539 -266 c 0
 539 -139 655 -29 780 0 c 1
 737 141 l 1
 719 141 l 1
 629 30 570 -20 414 -20 c 0
526 129 m 0
 643 129 719 231 719 391 c 2
 719 545 l 1
 627 539 l 2
 463 531 410 452 410 305 c 0
 410 188 446 129 526 129 c 0
EndSplineSet
Substitution2: "'smcp' Lowercase to Small Capitals lookup 38 subtable" aogonek.sc
Substitution2: "'locl' Localized Forms in Latin lookup 6 subtable" aogonek.loclNAV
AlternateSubs2: "'aalt' Access All Alternates lookup 1 subtable" aogonek.loclNAV aogonek.sc
EndChar

StartChar: Cacute
Encoding: 262 262 200
Width: 1368
GlyphClass: 2
Flags: HW
AnchorPoint: "Anchor-3" 698 731 basechar 0
AnchorPoint: "Anchor-2" 1327 1462 basechar 0
AnchorPoint: "Anchor-1" 786 0 basechar 0
AnchorPoint: "Anchor-0" 786 1907 basechar 0
LayerCount: 2
Fore
SplineSet
670 1606 m 1
 729 1684 825 1815 868 1907 c 1
 1190 1907 l 1
 1190 1886 l 1
 1139 1814 938 1653 809 1579 c 1
 670 1579 l 1
 670 1606 l 1
821 -20 m 0
 346 -20 113 280 113 733 c 0
 113 1175 354 1483 819 1483 c 0
 1132 1483 1286 1378 1286 1245 c 0
 1286 1143 1196 1067 1030 1067 c 1
 1030 1202 975 1352 805 1352 c 0
 545 1352 457 1128 457 733 c 0
 457 338 567 143 870 143 c 0
 1069 143 1179 246 1249 338 c 1
 1269 322 1284 285 1284 250 c 0
 1284 135 1171 -20 821 -20 c 0
EndSplineSet
Substitution2: "'c2sc' Capitals to Small Capitals lookup 37 subtable" cacute.sc
Substitution2: "'aalt' Access All Alternates lookup 0 subtable" cacute.sc
EndChar

StartChar: cacute
Encoding: 263 263 201
Width: 1079
GlyphClass: 2
Flags: HW
AnchorPoint: "Anchor-3" 549 551 basechar 0
AnchorPoint: "Anchor-2" 1038 1098 basechar 0
AnchorPoint: "Anchor-1" 541 0 basechar 0
AnchorPoint: "Anchor-0" 541 1569 basechar 0
LayerCount: 2
Fore
SplineSet
446 1268 m 1
 505 1346 602 1477 645 1569 c 1
 967 1569 l 1
 967 1548 l 1
 916 1476 715 1315 586 1241 c 1
 446 1241 l 1
 446 1268 l 1
604 -20 m 0
 303 -20 96 125 96 545 c 0
 96 987 315 1124 598 1124 c 0
 862 1124 1004 1030 1004 909 c 0
 1004 821 952 735 739 735 c 1
 739 876 708 999 606 999 c 0
 487 999 412 897 412 547 c 0
 412 271 483 133 655 133 c 0
 796 133 905 205 952 299 c 1
 985 279 1001 242 1001 205 c 0
 1001 103 880 -20 604 -20 c 0
EndSplineSet
Substitution2: "'smcp' Lowercase to Small Capitals lookup 38 subtable" cacute.sc
Substitution2: "'aalt' Access All Alternates lookup 0 subtable" cacute.sc
EndChar

StartChar: Ccircumflex
Encoding: 264 264 202
Width: 1368
GlyphClass: 2
Flags: HW
AnchorPoint: "Anchor-3" 698 731 basechar 0
AnchorPoint: "Anchor-2" 1327 1462 basechar 0
AnchorPoint: "Anchor-1" 786 0 basechar 0
AnchorPoint: "Anchor-0" 786 1907 basechar 0
LayerCount: 2
Fore
SplineSet
414 1606 m 1
 477 1684 596 1815 639 1907 c 1
 915 1907 l 1
 958 1815 1078 1684 1141 1606 c 1
 1141 1579 l 1
 999 1579 l 1
 942 1624 837 1708 776 1763 c 1
 715 1708 612 1624 555 1579 c 1
 414 1579 l 1
 414 1606 l 1
821 -20 m 0
 346 -20 113 280 113 733 c 0
 113 1175 354 1483 819 1483 c 0
 1132 1483 1286 1378 1286 1245 c 0
 1286 1143 1196 1067 1030 1067 c 1
 1030 1202 975 1352 805 1352 c 0
 545 1352 457 1128 457 733 c 0
 457 338 567 143 870 143 c 0
 1069 143 1179 246 1249 338 c 1
 1269 322 1284 285 1284 250 c 0
 1284 135 1171 -20 821 -20 c 0
EndSplineSet
Substitution2: "'c2sc' Capitals to Small Capitals lookup 37 subtable" ccircumflex.sc
Substitution2: "'aalt' Access All Alternates lookup 0 subtable" ccircumflex.sc
EndChar

StartChar: ccircumflex
Encoding: 265 265 203
Width: 1079
GlyphClass: 2
Flags: HW
AnchorPoint: "Anchor-3" 549 551 basechar 0
AnchorPoint: "Anchor-2" 1038 1098 basechar 0
AnchorPoint: "Anchor-1" 541 0 basechar 0
AnchorPoint: "Anchor-0" 541 1569 basechar 0
LayerCount: 2
Fore
SplineSet
227 1268 m 1
 290 1346 410 1477 453 1569 c 1
 729 1569 l 1
 772 1477 891 1346 954 1268 c 1
 954 1241 l 1
 813 1241 l 1
 756 1286 651 1370 590 1425 c 1
 529 1370 426 1286 369 1241 c 1
 227 1241 l 1
 227 1268 l 1
604 -20 m 0
 303 -20 96 125 96 545 c 0
 96 987 315 1124 598 1124 c 0
 862 1124 1004 1030 1004 909 c 0
 1004 821 952 735 739 735 c 1
 739 876 708 999 606 999 c 0
 487 999 412 897 412 547 c 0
 412 271 483 133 655 133 c 0
 796 133 905 205 952 299 c 1
 985 279 1001 242 1001 205 c 0
 1001 103 880 -20 604 -20 c 0
EndSplineSet
Substitution2: "'smcp' Lowercase to Small Capitals lookup 38 subtable" ccircumflex.sc
Substitution2: "'aalt' Access All Alternates lookup 0 subtable" ccircumflex.sc
EndChar

StartChar: Cdotaccent
Encoding: 266 266 204
Width: 1368
GlyphClass: 2
Flags: HW
AnchorPoint: "Anchor-3" 698 731 basechar 0
AnchorPoint: "Anchor-2" 1327 1462 basechar 0
AnchorPoint: "Anchor-1" 786 0 basechar 0
AnchorPoint: "Anchor-0" 786 1915 basechar 0
LayerCount: 2
Fore
SplineSet
795 1620 m 0
 697 1620 621 1667 621 1767 c 0
 621 1871 697 1915 795 1915 c 0
 889 1915 971 1871 971 1767 c 0
 971 1667 889 1620 795 1620 c 0
821 -20 m 0
 346 -20 113 280 113 733 c 0
 113 1175 354 1483 819 1483 c 0
 1132 1483 1286 1378 1286 1245 c 0
 1286 1143 1196 1067 1030 1067 c 1
 1030 1202 975 1352 805 1352 c 0
 545 1352 457 1128 457 733 c 0
 457 338 567 143 870 143 c 0
 1069 143 1179 246 1249 338 c 1
 1269 322 1284 285 1284 250 c 0
 1284 135 1171 -20 821 -20 c 0
EndSplineSet
EndChar

StartChar: cdotaccent
Encoding: 267 267 205
Width: 1079
GlyphClass: 2
Flags: HW
AnchorPoint: "Anchor-3" 549 551 basechar 0
AnchorPoint: "Anchor-2" 1038 1098 basechar 0
AnchorPoint: "Anchor-1" 541 0 basechar 0
AnchorPoint: "Anchor-0" 541 1577 basechar 0
LayerCount: 2
Fore
SplineSet
592 1282 m 0
 494 1282 418 1330 418 1430 c 0
 418 1534 494 1577 592 1577 c 0
 686 1577 768 1534 768 1430 c 0
 768 1330 686 1282 592 1282 c 0
604 -20 m 0
 303 -20 96 125 96 545 c 0
 96 987 315 1124 598 1124 c 0
 862 1124 1004 1030 1004 909 c 0
 1004 821 952 735 739 735 c 1
 739 876 708 999 606 999 c 0
 487 999 412 897 412 547 c 0
 412 271 483 133 655 133 c 0
 796 133 905 205 952 299 c 1
 985 279 1001 242 1001 205 c 0
 1001 103 880 -20 604 -20 c 0
EndSplineSet
Substitution2: "'smcp' Lowercase to Small Capitals lookup 38 subtable" cdotaccent.sc
Substitution2: "'aalt' Access All Alternates lookup 0 subtable" cdotaccent.sc
EndChar

StartChar: Ccaron
Encoding: 268 268 206
Width: 1368
GlyphClass: 2
Flags: HW
AnchorPoint: "Anchor-3" 698 731 basechar 0
AnchorPoint: "Anchor-2" 1327 1462 basechar 0
AnchorPoint: "Anchor-1" 786 0 basechar 0
AnchorPoint: "Anchor-0" 786 1907 basechar 0
LayerCount: 2
Fore
SplineSet
639 1579 m 1
 596 1671 477 1802 414 1880 c 1
 414 1907 l 1
 555 1907 l 1
 612 1862 715 1777 776 1722 c 1
 837 1777 942 1862 999 1907 c 1
 1141 1907 l 1
 1141 1880 l 1
 1078 1802 958 1671 915 1579 c 1
 639 1579 l 1
821 -20 m 0
 346 -20 113 280 113 733 c 0
 113 1175 354 1483 819 1483 c 0
 1132 1483 1286 1378 1286 1245 c 0
 1286 1143 1196 1067 1030 1067 c 1
 1030 1202 975 1352 805 1352 c 0
 545 1352 457 1128 457 733 c 0
 457 338 567 143 870 143 c 0
 1069 143 1179 246 1249 338 c 1
 1269 322 1284 285 1284 250 c 0
 1284 135 1171 -20 821 -20 c 0
EndSplineSet
Substitution2: "'c2sc' Capitals to Small Capitals lookup 37 subtable" ccaron.sc
Substitution2: "'aalt' Access All Alternates lookup 0 subtable" ccaron.sc
EndChar

StartChar: ccaron
Encoding: 269 269 207
Width: 1079
GlyphClass: 2
Flags: HW
AnchorPoint: "Anchor-3" 549 551 basechar 0
AnchorPoint: "Anchor-2" 1038 1098 basechar 0
AnchorPoint: "Anchor-1" 541 0 basechar 0
AnchorPoint: "Anchor-0" 541 1569 basechar 0
LayerCount: 2
Fore
SplineSet
455 1241 m 1
 412 1333 292 1464 229 1542 c 1
 229 1569 l 1
 371 1569 l 1
 428 1524 531 1439 592 1384 c 1
 653 1439 758 1524 815 1569 c 1
 956 1569 l 1
 956 1542 l 1
 893 1464 774 1333 731 1241 c 1
 455 1241 l 1
604 -20 m 0
 303 -20 96 125 96 545 c 0
 96 987 315 1124 598 1124 c 0
 862 1124 1004 1030 1004 909 c 0
 1004 821 952 735 739 735 c 1
 739 876 708 999 606 999 c 0
 487 999 412 897 412 547 c 0
 412 271 483 133 655 133 c 0
 796 133 905 205 952 299 c 1
 985 279 1001 242 1001 205 c 0
 1001 103 880 -20 604 -20 c 0
EndSplineSet
Substitution2: "'smcp' Lowercase to Small Capitals lookup 38 subtable" ccaron.sc
Substitution2: "'aalt' Access All Alternates lookup 0 subtable" ccaron.sc
EndChar

StartChar: Dcaron
Encoding: 270 270 208
Width: 1570
GlyphClass: 2
Flags: HW
AnchorPoint: "Anchor-3" 786 731 basechar 0
AnchorPoint: "Anchor-2" 1530 1462 basechar 0
AnchorPoint: "Anchor-1" 786 0 basechar 0
AnchorPoint: "Anchor-0" 786 1907 basechar 0
LayerCount: 2
Fore
SplineSet
612 1579 m 1
 569 1671 450 1802 387 1880 c 1
 387 1907 l 1
 528 1907 l 1
 585 1862 689 1777 750 1722 c 1
 811 1777 916 1862 973 1907 c 1
 1114 1907 l 1
 1114 1880 l 1
 1051 1802 932 1671 889 1579 c 1
 612 1579 l 1
57 0 m 1
 57 109 l 1
 143 109 l 2
 202 109 248 125 248 242 c 2
 248 1229 l 2
 248 1338 200 1354 143 1354 c 2
 57 1354 l 1
 57 1462 l 1
 733 1462 l 2
 1186 1462 1458 1223 1458 758 c 0
 1458 309 1210 0 733 0 c 2
 57 0 l 1
686 127 m 2
 967 127 1112 367 1112 758 c 0
 1112 1149 967 1337 688 1337 c 2
 571 1337 l 1
 571 127 l 1
 686 127 l 2
EndSplineSet
Substitution2: "'c2sc' Capitals to Small Capitals lookup 37 subtable" dcaron.sc
Substitution2: "'aalt' Access All Alternates lookup 0 subtable" dcaron.sc
EndChar

StartChar: dcaron
Encoding: 271 271 209
Width: 1329
GlyphClass: 2
Flags: HW
AnchorPoint: "Anchor-3" 666 549 basechar 0
AnchorPoint: "Anchor-2" 1268 1556 basechar 0
AnchorPoint: "Anchor-1" 666 0 basechar 0
AnchorPoint: "Anchor-0" 666 1556 basechar 0
LayerCount: 2
Fore
SplineSet
1235 1255 m 1
 1262 1337 1299 1466 1315 1556 c 1
 1552 1556 l 1
 1552 1536 l 1
 1515 1450 1426 1317 1358 1229 c 1
 1235 1229 l 1
 1235 1255 l 1
512 -20 m 0
 244 -20 94 154 94 547 c 0
 94 942 244 1122 508 1122 c 0
 662 1122 756 1052 813 958 c 1
 827 958 l 1
 817 1034 811 1142 811 1208 c 2
 811 1321 l 2
 811 1434 735 1448 645 1448 c 2
 629 1448 l 1
 629 1556 l 1
 1122 1556 l 1
 1122 252 l 2
 1122 127 1202 109 1292 109 c 2
 1300 109 l 1
 1300 0 l 1
 903 0 l 1
 846 160 l 1
 827 160 l 1
 766 49 672 -20 512 -20 c 0
600 133 m 0
 762 133 811 268 811 551 c 0
 811 821 762 971 600 971 c 0
 463 971 410 821 410 549 c 0
 410 270 463 133 600 133 c 0
EndSplineSet
Substitution2: "'smcp' Lowercase to Small Capitals lookup 38 subtable" dcaron.sc
Substitution2: "'aalt' Access All Alternates lookup 0 subtable" dcaron.sc
EndChar

StartChar: Dcroat
Encoding: 272 272 210
Width: 1570
GlyphClass: 2
Flags: HW
AnchorPoint: "Anchor-3" 758 731 basechar 0
AnchorPoint: "Anchor-1" 786 0 basechar 0
AnchorPoint: "Anchor-0" 786 1462 basechar 0
LayerCount: 2
Fore
SplineSet
57 0 m 1
 57 109 l 1
 143 109 l 2
 202 109 248 125 248 242 c 2
 248 702 l 1
 78 702 l 1
 78 827 l 1
 248 827 l 1
 248 1229 l 2
 248 1338 200 1354 143 1354 c 2
 57 1354 l 1
 57 1462 l 1
 733 1462 l 2
 1186 1462 1458 1223 1458 758 c 0
 1458 309 1210 0 733 0 c 2
 57 0 l 1
686 127 m 2
 967 127 1112 367 1112 758 c 0
 1112 1149 967 1337 688 1337 c 2
 571 1337 l 1
 571 827 l 1
 827 827 l 1
 827 702 l 1
 571 702 l 1
 571 127 l 1
 686 127 l 2
EndSplineSet
Substitution2: "'c2sc' Capitals to Small Capitals lookup 37 subtable" dcroat.sc
Substitution2: "'aalt' Access All Alternates lookup 0 subtable" dcroat.sc
EndChar

StartChar: dcroat
Encoding: 273 273 211
Width: 1329
GlyphClass: 2
Flags: HW
AnchorPoint: "Anchor-3" 696 768 basechar 0
AnchorPoint: "Anchor-1" 666 0 basechar 0
AnchorPoint: "Anchor-0" 666 1556 basechar 0
LayerCount: 2
Fore
SplineSet
512 -20 m 0
 244 -20 94 143 94 516 c 0
 94 891 244 1061 508 1061 c 0
 662 1061 756 991 813 897 c 1
 827 897 l 1
 827 897 811 1108 811 1163 c 2
 811 1184 l 1
 494 1184 l 1
 494 1292 l 1
 811 1292 l 1
 811 1321 l 2
 811 1436 735 1448 645 1448 c 2
 629 1448 l 1
 629 1556 l 1
 1122 1556 l 1
 1122 1292 l 1
 1300 1292 l 1
 1300 1184 l 1
 1122 1184 l 1
 1122 252 l 2
 1122 127 1202 109 1292 109 c 2
 1300 109 l 1
 1300 0 l 1
 903 0 l 1
 846 160 l 1
 827 160 l 1
 766 49 672 -20 512 -20 c 0
600 133 m 0
 762 133 811 258 811 520 c 0
 811 770 762 909 600 909 c 0
 463 909 410 770 410 518 c 0
 410 260 463 133 600 133 c 0
EndSplineSet
Substitution2: "'smcp' Lowercase to Small Capitals lookup 38 subtable" dcroat.sc
Substitution2: "'aalt' Access All Alternates lookup 0 subtable" dcroat.sc
EndChar

StartChar: Emacron
Encoding: 274 274 212
Width: 1337
GlyphClass: 2
Flags: HW
AnchorPoint: "Anchor-3" 664 731 basechar 0
AnchorPoint: "Anchor-2" 1296 1462 basechar 0
AnchorPoint: "Anchor-1" 670 0 basechar 0
AnchorPoint: "Anchor-0" 670 1741 basechar 0
LayerCount: 2
Fore
SplineSet
377 1579 m 1
 377 1741 l 1
 971 1741 l 1
 971 1579 l 1
 377 1579 l 1
57 0 m 1
 57 109 l 1
 143 109 l 2
 200 109 248 122 248 231 c 2
 248 1221 l 2
 248 1338 202 1354 143 1354 c 2
 57 1354 l 1
 57 1462 l 1
 1194 1462 l 1
 1202 1085 l 1
 1059 1085 l 1
 1049 1182 l 2
 1039 1282 1002 1337 918 1337 c 2
 573 1337 l 1
 573 825 l 1
 1059 825 l 1
 1059 702 l 1
 573 702 l 1
 573 125 l 1
 983 125 l 2
 1065 125 1100 191 1114 281 c 2
 1130 377 l 1
 1272 377 l 1
 1257 0 l 1
 57 0 l 1
EndSplineSet
Substitution2: "'c2sc' Capitals to Small Capitals lookup 37 subtable" emacron.sc
Substitution2: "'aalt' Access All Alternates lookup 0 subtable" emacron.sc
EndChar

StartChar: emacron
Encoding: 275 275 213
Width: 1169
GlyphClass: 2
Flags: HW
AnchorPoint: "Anchor-3" 590 551 basechar 0
AnchorPoint: "Anchor-2" 1128 1098 basechar 0
AnchorPoint: "Anchor-1" 586 0 basechar 0
AnchorPoint: "Anchor-0" 586 1403 basechar 0
LayerCount: 2
Fore
SplineSet
324 1241 m 1
 324 1403 l 1
 918 1403 l 1
 918 1241 l 1
 324 1241 l 1
627 -20 m 0
 279 -20 96 187 96 543 c 0
 96 928 280 1124 604 1124 c 0
 901 1124 1083 957 1083 631 c 2
 1083 526 l 1
 412 526 l 1
 420 252 516 133 686 133 c 0
 827 133 928 205 975 299 c 1
 1012 279 1030 244 1030 199 c 0
 1030 82 903 -20 627 -20 c 0
770 657 m 1
 770 866 725 991 608 991 c 0
 493 991 422 874 416 657 c 1
 770 657 l 1
EndSplineSet
Substitution2: "'smcp' Lowercase to Small Capitals lookup 38 subtable" emacron.sc
Substitution2: "'aalt' Access All Alternates lookup 0 subtable" emacron.sc
EndChar

StartChar: Ebreve
Encoding: 276 276 214
Width: 1337
GlyphClass: 2
Flags: HW
AnchorPoint: "Anchor-3" 664 731 basechar 0
AnchorPoint: "Anchor-2" 1296 1462 basechar 0
AnchorPoint: "Anchor-1" 670 0 basechar 0
AnchorPoint: "Anchor-0" 670 1901 basechar 0
LayerCount: 2
Fore
SplineSet
684 1579 m 0
 469 1579 360 1747 356 1901 c 1
 492 1901 l 1
 515 1803 584 1761 684 1761 c 0
 784 1761 854 1803 877 1901 c 1
 1012 1901 l 1
 1008 1747 899 1579 684 1579 c 0
57 0 m 1
 57 109 l 1
 143 109 l 2
 200 109 248 122 248 231 c 2
 248 1221 l 2
 248 1338 202 1354 143 1354 c 2
 57 1354 l 1
 57 1462 l 1
 1194 1462 l 1
 1202 1085 l 1
 1059 1085 l 1
 1049 1182 l 2
 1039 1282 1002 1337 918 1337 c 2
 573 1337 l 1
 573 825 l 1
 1059 825 l 1
 1059 702 l 1
 573 702 l 1
 573 125 l 1
 983 125 l 2
 1065 125 1100 191 1114 281 c 2
 1130 377 l 1
 1272 377 l 1
 1257 0 l 1
 57 0 l 1
EndSplineSet
Substitution2: "'c2sc' Capitals to Small Capitals lookup 37 subtable" ebreve.sc
Substitution2: "'aalt' Access All Alternates lookup 0 subtable" ebreve.sc
EndChar

StartChar: ebreve
Encoding: 277 277 215
Width: 1169
GlyphClass: 2
Flags: HW
AnchorPoint: "Anchor-3" 590 551 basechar 0
AnchorPoint: "Anchor-2" 1128 1098 basechar 0
AnchorPoint: "Anchor-1" 586 0 basechar 0
AnchorPoint: "Anchor-0" 586 1563 basechar 0
LayerCount: 2
Fore
SplineSet
604 1241 m 0
 389 1241 280 1409 276 1563 c 1
 412 1563 l 1
 435 1465 504 1423 604 1423 c 0
 704 1423 774 1465 797 1563 c 1
 932 1563 l 1
 928 1409 819 1241 604 1241 c 0
627 -20 m 0
 279 -20 96 187 96 543 c 0
 96 928 280 1124 604 1124 c 0
 901 1124 1083 957 1083 631 c 2
 1083 526 l 1
 412 526 l 1
 420 252 516 133 686 133 c 0
 827 133 928 205 975 299 c 1
 1012 279 1030 244 1030 199 c 0
 1030 82 903 -20 627 -20 c 0
770 657 m 1
 770 866 725 991 608 991 c 0
 493 991 422 874 416 657 c 1
 770 657 l 1
EndSplineSet
Substitution2: "'smcp' Lowercase to Small Capitals lookup 38 subtable" ebreve.sc
Substitution2: "'aalt' Access All Alternates lookup 0 subtable" ebreve.sc
EndChar

StartChar: Edotaccent
Encoding: 278 278 216
Width: 1337
GlyphClass: 2
Flags: HW
AnchorPoint: "Anchor-3" 664 731 basechar 0
AnchorPoint: "Anchor-2" 1296 1462 basechar 0
AnchorPoint: "Anchor-1" 670 0 basechar 0
AnchorPoint: "Anchor-0" 670 1886 basechar 0
LayerCount: 2
Fore
SplineSet
678 1591 m 0
 580 1591 504 1639 504 1739 c 0
 504 1843 580 1886 678 1886 c 0
 772 1886 854 1843 854 1739 c 0
 854 1639 772 1591 678 1591 c 0
57 0 m 1
 57 109 l 1
 143 109 l 2
 200 109 248 122 248 231 c 2
 248 1221 l 2
 248 1338 202 1354 143 1354 c 2
 57 1354 l 1
 57 1462 l 1
 1194 1462 l 1
 1202 1085 l 1
 1059 1085 l 1
 1049 1182 l 2
 1039 1282 1002 1337 918 1337 c 2
 573 1337 l 1
 573 825 l 1
 1059 825 l 1
 1059 702 l 1
 573 702 l 1
 573 125 l 1
 983 125 l 2
 1065 125 1100 191 1114 281 c 2
 1130 377 l 1
 1272 377 l 1
 1257 0 l 1
 57 0 l 1
EndSplineSet
Substitution2: "'c2sc' Capitals to Small Capitals lookup 37 subtable" edotaccent.sc
Substitution2: "'aalt' Access All Alternates lookup 0 subtable" edotaccent.sc
EndChar

StartChar: edotaccent
Encoding: 279 279 217
Width: 1169
GlyphClass: 2
Flags: HW
AnchorPoint: "Anchor-3" 590 551 basechar 0
AnchorPoint: "Anchor-2" 1128 1098 basechar 0
AnchorPoint: "Anchor-1" 586 0 basechar 0
AnchorPoint: "Anchor-0" 586 1577 basechar 0
LayerCount: 2
Fore
SplineSet
608 1282 m 0
 510 1282 434 1330 434 1430 c 0
 434 1534 510 1577 608 1577 c 0
 702 1577 784 1534 784 1430 c 0
 784 1330 702 1282 608 1282 c 0
627 -20 m 0
 279 -20 96 187 96 543 c 0
 96 928 280 1124 604 1124 c 0
 901 1124 1083 957 1083 631 c 2
 1083 526 l 1
 412 526 l 1
 420 252 516 133 686 133 c 0
 827 133 928 205 975 299 c 1
 1012 279 1030 244 1030 199 c 0
 1030 82 903 -20 627 -20 c 0
770 657 m 1
 770 866 725 991 608 991 c 0
 493 991 422 874 416 657 c 1
 770 657 l 1
EndSplineSet
Substitution2: "'smcp' Lowercase to Small Capitals lookup 38 subtable" edotaccent.sc
Substitution2: "'aalt' Access All Alternates lookup 0 subtable" edotaccent.sc
EndChar

StartChar: Eogonek
Encoding: 280 280 218
Width: 1337
GlyphClass: 2
Flags: HW
AnchorPoint: "Anchor-3" 664 731 basechar 0
AnchorPoint: "Anchor-2" 1296 1462 basechar 0
AnchorPoint: "Anchor-1" 670 -492 basechar 0
AnchorPoint: "Anchor-0" 670 1462 basechar 0
LayerCount: 2
Fore
SplineSet
57 0 m 1
 57 109 l 1
 143 109 l 2
 200 109 248 122 248 231 c 2
 248 1221 l 2
 248 1338 202 1354 143 1354 c 2
 57 1354 l 1
 57 1462 l 1
 1194 1462 l 1
 1202 1085 l 1
 1059 1085 l 1
 1049 1182 l 2
 1039 1282 1002 1337 918 1337 c 2
 573 1337 l 1
 573 825 l 1
 1059 825 l 1
 1059 702 l 1
 573 702 l 1
 573 125 l 1
 983 125 l 2
 1065 125 1100 191 1114 281 c 2
 1130 377 l 1
 1272 377 l 1
 1257 0 l 1
 1118 0 l 1
 1032 -27 928 -107 928 -236 c 0
 928 -312 987 -344 1069 -344 c 0
 1106 -344 1149 -338 1198 -328 c 1
 1198 -459 l 1
 1155 -479 1067 -492 1024 -492 c 0
 825 -492 719 -422 719 -266 c 0
 719 -139 836 -29 961 0 c 1
 57 0 l 1
EndSplineSet
Substitution2: "'c2sc' Capitals to Small Capitals lookup 37 subtable" eogonek.sc
Substitution2: "'locl' Localized Forms in Latin lookup 6 subtable" Eogonek.loclNAV
AlternateSubs2: "'aalt' Access All Alternates lookup 1 subtable" Eogonek.loclNAV eogonek.sc
EndChar

StartChar: eogonek
Encoding: 281 281 219
Width: 1169
GlyphClass: 2
Flags: HW
AnchorPoint: "Anchor-3" 590 315 basechar 0
AnchorPoint: "Anchor-1" 586 -492 basechar 0
AnchorPoint: "Anchor-0" 586 1098 basechar 0
LayerCount: 2
Fore
SplineSet
774 -492 m 0
 575 -492 469 -422 469 -266 c 0
 469 -160 551 -65 651 -20 c 1
 627 -20 l 2
 279 -20 96 187 96 543 c 0
 96 928 280 1124 604 1124 c 0
 901 1124 1083 957 1083 631 c 2
 1083 526 l 1
 412 526 l 1
 420 252 516 133 686 133 c 0
 827 133 928 205 975 299 c 1
 1012 279 1030 244 1030 199 c 0
 1030 127 983 61 883 20 c 1
 754 -52 678 -117 678 -236 c 0
 678 -312 737 -344 819 -344 c 0
 856 -344 899 -338 948 -328 c 1
 948 -459 l 1
 905 -479 817 -492 774 -492 c 0
770 657 m 1
 770 866 725 991 608 991 c 0
 493 991 422 874 416 657 c 1
 770 657 l 1
EndSplineSet
Substitution2: "'smcp' Lowercase to Small Capitals lookup 38 subtable" eogonek.sc
Substitution2: "'locl' Localized Forms in Latin lookup 6 subtable" eogonek.loclNAV
AlternateSubs2: "'aalt' Access All Alternates lookup 1 subtable" eogonek.loclNAV eogonek.sc
EndChar

StartChar: Ecaron
Encoding: 282 282 220
Width: 1337
GlyphClass: 2
Flags: HW
AnchorPoint: "Anchor-3" 664 731 basechar 0
AnchorPoint: "Anchor-2" 1296 1462 basechar 0
AnchorPoint: "Anchor-1" 670 0 basechar 0
AnchorPoint: "Anchor-0" 670 1907 basechar 0
LayerCount: 2
Fore
SplineSet
537 1579 m 1
 494 1671 374 1802 311 1880 c 1
 311 1907 l 1
 453 1907 l 1
 510 1862 613 1777 674 1722 c 1
 735 1777 840 1862 897 1907 c 1
 1038 1907 l 1
 1038 1880 l 1
 975 1802 856 1671 813 1579 c 1
 537 1579 l 1
57 0 m 1
 57 109 l 1
 143 109 l 2
 200 109 248 122 248 231 c 2
 248 1221 l 2
 248 1338 202 1354 143 1354 c 2
 57 1354 l 1
 57 1462 l 1
 1194 1462 l 1
 1202 1085 l 1
 1059 1085 l 1
 1049 1182 l 2
 1039 1282 1002 1337 918 1337 c 2
 573 1337 l 1
 573 825 l 1
 1059 825 l 1
 1059 702 l 1
 573 702 l 1
 573 125 l 1
 983 125 l 2
 1065 125 1100 191 1114 281 c 2
 1130 377 l 1
 1272 377 l 1
 1257 0 l 1
 57 0 l 1
EndSplineSet
Substitution2: "'c2sc' Capitals to Small Capitals lookup 37 subtable" ecaron.sc
Substitution2: "'aalt' Access All Alternates lookup 0 subtable" ecaron.sc
EndChar

StartChar: ecaron
Encoding: 283 283 221
Width: 1169
GlyphClass: 2
Flags: HW
AnchorPoint: "Anchor-3" 590 551 basechar 0
AnchorPoint: "Anchor-2" 1128 1098 basechar 0
AnchorPoint: "Anchor-1" 586 0 basechar 0
AnchorPoint: "Anchor-0" 586 1569 basechar 0
LayerCount: 2
Fore
SplineSet
459 1241 m 1
 416 1333 296 1464 233 1542 c 1
 233 1569 l 1
 375 1569 l 1
 432 1524 535 1439 596 1384 c 1
 657 1439 762 1524 819 1569 c 1
 961 1569 l 1
 961 1542 l 1
 898 1464 778 1333 735 1241 c 1
 459 1241 l 1
627 -20 m 0
 279 -20 96 187 96 543 c 0
 96 928 280 1124 604 1124 c 0
 901 1124 1083 957 1083 631 c 2
 1083 526 l 1
 412 526 l 1
 420 252 516 133 686 133 c 0
 827 133 928 205 975 299 c 1
 1012 279 1030 244 1030 199 c 0
 1030 82 903 -20 627 -20 c 0
770 657 m 1
 770 866 725 991 608 991 c 0
 493 991 422 874 416 657 c 1
 770 657 l 1
EndSplineSet
Substitution2: "'smcp' Lowercase to Small Capitals lookup 38 subtable" ecaron.sc
Substitution2: "'aalt' Access All Alternates lookup 0 subtable" ecaron.sc
EndChar

StartChar: Gcircumflex
Encoding: 284 284 222
Width: 1574
GlyphClass: 2
Flags: HW
AnchorPoint: "Anchor-3" 815 731 basechar 0
AnchorPoint: "Anchor-2" 1534 1462 basechar 0
AnchorPoint: "Anchor-1" 788 0 basechar 0
AnchorPoint: "Anchor-0" 788 1907 basechar 0
LayerCount: 2
Fore
SplineSet
475 1606 m 1
 538 1684 657 1815 700 1907 c 1
 977 1907 l 1
 1020 1815 1139 1684 1202 1606 c 1
 1202 1579 l 1
 1061 1579 l 1
 1004 1624 899 1708 838 1763 c 1
 777 1708 673 1624 616 1579 c 1
 475 1579 l 1
 475 1606 l 1
866 -20 m 0
 358 -20 113 280 113 733 c 0
 113 1175 375 1483 877 1483 c 0
 1217 1483 1389 1378 1389 1245 c 0
 1389 1149 1296 1071 1124 1071 c 1
 1124 1237 1044 1352 870 1352 c 0
 571 1352 457 1128 457 733 c 0
 457 338 575 119 897 119 c 0
 948 119 1000 123 1047 133 c 1
 1047 434 l 2
 1047 543 997 580 901 580 c 2
 874 580 l 1
 874 688 l 1
 1518 688 l 1
 1518 580 l 1
 1491 580 l 2
 1407 580 1370 543 1370 426 c 2
 1370 90 l 1
 1210 16 1052 -20 866 -20 c 0
EndSplineSet
Substitution2: "'c2sc' Capitals to Small Capitals lookup 37 subtable" gcircumflex.sc
Substitution2: "'aalt' Access All Alternates lookup 0 subtable" gcircumflex.sc
EndChar

StartChar: gcircumflex
Encoding: 285 285 223
Width: 1146
GlyphClass: 2
Flags: HW
AnchorPoint: "Anchor-3" 569 342 basechar 0
AnchorPoint: "Anchor-2" 1126 1098 basechar 0
AnchorPoint: "Anchor-1" 573 -492 basechar 0
AnchorPoint: "Anchor-0" 573 1569 basechar 0
LayerCount: 2
Fore
SplineSet
168 1268 m 1
 231 1346 350 1477 393 1569 c 1
 670 1569 l 1
 713 1477 832 1346 895 1268 c 1
 895 1241 l 1
 754 1241 l 1
 697 1286 591 1370 530 1425 c 1
 469 1370 366 1286 309 1241 c 1
 168 1241 l 1
 168 1268 l 1
483 -492 m 0
 161 -492 4 -393 4 -207 c 0
 4 -62 103 17 281 31 c 1
 207 60 131 117 131 213 c 0
 131 303 207 367 313 428 c 1
 192 471 104 579 104 745 c 0
 104 985 239 1124 532 1124 c 0
 628 1124 715 1096 776 1061 c 1
 848 1139 907 1176 989 1176 c 0
 1087 1176 1137 1122 1137 1059 c 0
 1137 998 1104 942 991 942 c 1
 991 997 952 1028 913 1028 c 0
 890 1028 860 1018 846 1006 c 1
 901 945 946 845 946 745 c 0
 946 538 817 387 532 387 c 0
 501 387 439 391 414 393 c 1
 375 377 340 338 340 289 c 0
 340 244 379 223 436 223 c 2
 684 223 l 2
 956 223 1077 107 1077 -90 c 0
 1077 -342 886 -492 483 -492 c 0
526 508 m 0
 635 508 666 601 666 748 c 0
 666 900 633 1001 524 1001 c 0
 418 1001 383 895 383 745 c 0
 383 602 420 508 526 508 c 0
487 -369 m 0
 727 -369 831 -299 831 -164 c 0
 831 -78 777 -47 666 -47 c 2
 428 -47 l 2
 346 -47 246 -70 246 -203 c 0
 246 -316 329 -369 487 -369 c 0
EndSplineSet
Substitution2: "'smcp' Lowercase to Small Capitals lookup 38 subtable" gcircumflex.sc
Substitution2: "'aalt' Access All Alternates lookup 0 subtable" gcircumflex.sc
EndChar

StartChar: Gbreve
Encoding: 286 286 224
Width: 1574
GlyphClass: 2
Flags: HW
AnchorPoint: "Anchor-3" 815 731 basechar 0
AnchorPoint: "Anchor-2" 1534 1462 basechar 0
AnchorPoint: "Anchor-1" 788 0 basechar 0
AnchorPoint: "Anchor-0" 788 1901 basechar 0
LayerCount: 2
Fore
SplineSet
838 1579 m 0
 623 1579 514 1747 510 1901 c 1
 645 1901 l 1
 668 1803 738 1761 838 1761 c 0
 938 1761 1007 1803 1030 1901 c 1
 1165 1901 l 1
 1161 1747 1053 1579 838 1579 c 0
866 -20 m 0
 358 -20 113 280 113 733 c 0
 113 1175 375 1483 877 1483 c 0
 1217 1483 1389 1378 1389 1245 c 0
 1389 1149 1296 1071 1124 1071 c 1
 1124 1237 1044 1352 870 1352 c 0
 571 1352 457 1128 457 733 c 0
 457 338 575 119 897 119 c 0
 948 119 1000 123 1047 133 c 1
 1047 434 l 2
 1047 543 997 580 901 580 c 2
 874 580 l 1
 874 688 l 1
 1518 688 l 1
 1518 580 l 1
 1491 580 l 2
 1407 580 1370 543 1370 426 c 2
 1370 90 l 1
 1210 16 1052 -20 866 -20 c 0
EndSplineSet
Substitution2: "'c2sc' Capitals to Small Capitals lookup 37 subtable" gbreve.sc
Substitution2: "'aalt' Access All Alternates lookup 0 subtable" gbreve.sc
EndChar

StartChar: gbreve
Encoding: 287 287 225
Width: 1146
GlyphClass: 2
Flags: HW
AnchorPoint: "Anchor-3" 569 342 basechar 0
AnchorPoint: "Anchor-2" 1126 1098 basechar 0
AnchorPoint: "Anchor-1" 573 -492 basechar 0
AnchorPoint: "Anchor-0" 573 1563 basechar 0
LayerCount: 2
Fore
SplineSet
524 1241 m 0
 309 1241 201 1409 197 1563 c 1
 332 1563 l 1
 355 1465 424 1423 524 1423 c 0
 624 1423 694 1465 717 1563 c 1
 852 1563 l 1
 848 1409 739 1241 524 1241 c 0
483 -492 m 0
 161 -492 4 -393 4 -207 c 0
 4 -62 103 17 281 31 c 1
 207 60 131 117 131 213 c 0
 131 303 207 367 313 428 c 1
 192 471 104 579 104 745 c 0
 104 985 239 1124 532 1124 c 0
 628 1124 715 1096 776 1061 c 1
 848 1139 907 1176 989 1176 c 0
 1087 1176 1137 1122 1137 1059 c 0
 1137 998 1104 942 991 942 c 1
 991 997 952 1028 913 1028 c 0
 890 1028 860 1018 846 1006 c 1
 901 945 946 845 946 745 c 0
 946 538 817 387 532 387 c 0
 501 387 439 391 414 393 c 1
 375 377 340 338 340 289 c 0
 340 244 379 223 436 223 c 2
 684 223 l 2
 956 223 1077 107 1077 -90 c 0
 1077 -342 886 -492 483 -492 c 0
526 508 m 0
 635 508 666 601 666 748 c 0
 666 900 633 1001 524 1001 c 0
 418 1001 383 895 383 745 c 0
 383 602 420 508 526 508 c 0
487 -369 m 0
 727 -369 831 -299 831 -164 c 0
 831 -78 777 -47 666 -47 c 2
 428 -47 l 2
 346 -47 246 -70 246 -203 c 0
 246 -316 329 -369 487 -369 c 0
EndSplineSet
Substitution2: "'smcp' Lowercase to Small Capitals lookup 38 subtable" gbreve.sc
Substitution2: "'aalt' Access All Alternates lookup 0 subtable" gbreve.sc
EndChar

StartChar: Gdotaccent
Encoding: 288 288 226
Width: 1574
GlyphClass: 2
Flags: HW
AnchorPoint: "Anchor-3" 815 731 basechar 0
AnchorPoint: "Anchor-2" 1534 1462 basechar 0
AnchorPoint: "Anchor-1" 788 0 basechar 0
AnchorPoint: "Anchor-0" 788 1915 basechar 0
LayerCount: 2
Fore
SplineSet
836 1620 m 0
 738 1620 662 1667 662 1767 c 0
 662 1871 738 1915 836 1915 c 0
 930 1915 1012 1871 1012 1767 c 0
 1012 1667 930 1620 836 1620 c 0
866 -20 m 0
 358 -20 113 280 113 733 c 0
 113 1175 375 1483 877 1483 c 0
 1217 1483 1389 1378 1389 1245 c 0
 1389 1149 1296 1071 1124 1071 c 1
 1124 1237 1044 1352 870 1352 c 0
 571 1352 457 1128 457 733 c 0
 457 338 575 119 897 119 c 0
 948 119 1000 123 1047 133 c 1
 1047 434 l 2
 1047 543 997 580 901 580 c 2
 874 580 l 1
 874 688 l 1
 1518 688 l 1
 1518 580 l 1
 1491 580 l 2
 1407 580 1370 543 1370 426 c 2
 1370 90 l 1
 1210 16 1052 -20 866 -20 c 0
EndSplineSet
EndChar

StartChar: gdotaccent
Encoding: 289 289 227
Width: 1146
GlyphClass: 2
Flags: HW
AnchorPoint: "Anchor-3" 569 342 basechar 0
AnchorPoint: "Anchor-2" 1126 1098 basechar 0
AnchorPoint: "Anchor-1" 573 -492 basechar 0
AnchorPoint: "Anchor-0" 573 1577 basechar 0
LayerCount: 2
Fore
SplineSet
524 1282 m 0
 426 1282 350 1330 350 1430 c 0
 350 1534 426 1577 524 1577 c 0
 618 1577 700 1534 700 1430 c 0
 700 1330 618 1282 524 1282 c 0
483 -492 m 0
 161 -492 4 -393 4 -207 c 0
 4 -62 103 17 281 31 c 1
 207 60 131 117 131 213 c 0
 131 303 207 367 313 428 c 1
 192 471 104 579 104 745 c 0
 104 985 239 1124 532 1124 c 0
 628 1124 715 1096 776 1061 c 1
 848 1139 907 1176 989 1176 c 0
 1087 1176 1137 1122 1137 1059 c 0
 1137 998 1104 942 991 942 c 1
 991 997 952 1028 913 1028 c 0
 890 1028 860 1018 846 1006 c 1
 901 945 946 845 946 745 c 0
 946 538 817 387 532 387 c 0
 501 387 439 391 414 393 c 1
 375 377 340 338 340 289 c 0
 340 244 379 223 436 223 c 2
 684 223 l 2
 956 223 1077 107 1077 -90 c 0
 1077 -342 886 -492 483 -492 c 0
526 508 m 0
 635 508 666 601 666 748 c 0
 666 900 633 1001 524 1001 c 0
 418 1001 383 895 383 745 c 0
 383 602 420 508 526 508 c 0
487 -369 m 0
 727 -369 831 -299 831 -164 c 0
 831 -78 777 -47 666 -47 c 2
 428 -47 l 2
 346 -47 246 -70 246 -203 c 0
 246 -316 329 -369 487 -369 c 0
EndSplineSet
Substitution2: "'smcp' Lowercase to Small Capitals lookup 38 subtable" gdotaccent.sc
Substitution2: "'aalt' Access All Alternates lookup 0 subtable" gdotaccent.sc
EndChar

StartChar: uni0122
Encoding: 290 290 228
Width: 1574
GlyphClass: 2
Flags: HW
AnchorPoint: "Anchor-3" 815 731 basechar 0
AnchorPoint: "Anchor-2" 1534 1462 basechar 0
AnchorPoint: "Anchor-1" 788 -453 basechar 0
AnchorPoint: "Anchor-0" 788 1462 basechar 0
LayerCount: 2
Fore
SplineSet
866 -20 m 0
 358 -20 113 280 113 733 c 0
 113 1175 375 1483 877 1483 c 0
 1217 1483 1389 1378 1389 1245 c 0
 1389 1149 1296 1071 1124 1071 c 1
 1124 1237 1044 1352 870 1352 c 0
 571 1352 457 1128 457 733 c 0
 457 338 575 119 897 119 c 0
 948 119 1000 123 1047 133 c 1
 1047 434 l 2
 1047 543 997 580 901 580 c 2
 874 580 l 1
 874 688 l 1
 1518 688 l 1
 1518 580 l 1
 1491 580 l 2
 1407 580 1370 543 1370 426 c 2
 1370 90 l 1
 1210 16 1052 -20 866 -20 c 0
633 -426 m 1
 660 -344 697 -215 713 -125 c 1
 950 -125 l 1
 950 -145 l 1
 913 -231 824 -365 756 -453 c 1
 633 -453 l 1
 633 -426 l 1
EndSplineSet
Substitution2: "'c2sc' Capitals to Small Capitals lookup 37 subtable" uni0123.sc
Substitution2: "'aalt' Access All Alternates lookup 0 subtable" uni0123.sc
EndChar

StartChar: uni0123
Encoding: 291 291 229
Width: 1146
GlyphClass: 2
Flags: HW
AnchorPoint: "Anchor-3" 569 342 basechar 0
AnchorPoint: "Anchor-2" 1126 1098 basechar 0
AnchorPoint: "Anchor-1" 573 -492 basechar 0
AnchorPoint: "Anchor-0" 573 1569 basechar 0
LayerCount: 2
Fore
SplineSet
422 1262 m 1
 459 1348 548 1481 616 1569 c 1
 739 1569 l 1
 739 1542 l 1
 712 1460 675 1331 659 1241 c 1
 422 1241 l 1
 422 1262 l 1
483 -492 m 0
 161 -492 4 -393 4 -207 c 0
 4 -62 103 17 281 31 c 1
 207 60 131 117 131 213 c 0
 131 303 207 367 313 428 c 1
 192 471 104 579 104 745 c 0
 104 985 239 1124 532 1124 c 0
 628 1124 715 1096 776 1061 c 1
 848 1139 907 1176 989 1176 c 0
 1087 1176 1137 1122 1137 1059 c 0
 1137 998 1104 942 991 942 c 1
 991 997 952 1028 913 1028 c 0
 890 1028 860 1018 846 1006 c 1
 901 945 946 845 946 745 c 0
 946 538 817 387 532 387 c 0
 501 387 439 391 414 393 c 1
 375 377 340 338 340 289 c 0
 340 244 379 223 436 223 c 2
 684 223 l 2
 956 223 1077 107 1077 -90 c 0
 1077 -342 886 -492 483 -492 c 0
526 508 m 0
 635 508 666 601 666 748 c 0
 666 900 633 1001 524 1001 c 0
 418 1001 383 895 383 745 c 0
 383 602 420 508 526 508 c 0
487 -369 m 0
 727 -369 831 -299 831 -164 c 0
 831 -78 777 -47 666 -47 c 2
 428 -47 l 2
 346 -47 246 -70 246 -203 c 0
 246 -316 329 -369 487 -369 c 0
EndSplineSet
Substitution2: "'smcp' Lowercase to Small Capitals lookup 38 subtable" uni0123.sc
Substitution2: "'aalt' Access All Alternates lookup 0 subtable" uni0123.sc
EndChar

